<svg width="100" height="100" viewBox="0 0 100 100" fill="none" xmlns="http://www.w3.org/2000/svg">
<path d="M6.25 37.9167C6.25 26.8323 6.25 21.2901 8.40716 17.0564C10.3047 13.3324 13.3324 10.3047 17.0564 8.40716C21.2901 6.25 26.8323 6.25 37.9167 6.25H62.0833C73.1677 6.25 78.7099 6.25 82.9436 8.40716C86.6676 10.3047 89.6953 13.3324 91.5928 17.0564C93.75 21.2901 93.75 26.8323 93.75 37.9167V62.0833C93.75 73.1677 93.75 78.7099 91.5928 82.9436C89.6953 86.6676 86.6676 89.6953 82.9436 91.5928C78.7099 93.75 73.1677 93.75 62.0833 93.75H37.9167C26.8323 93.75 21.2901 93.75 17.0564 91.5928C13.3324 89.6953 10.3047 86.6676 8.40716 82.9436C6.25 78.7099 6.25 73.1677 6.25 62.0833V37.9167Z" fill="#001E36"/>
<path d="M25 70.3633V31.8857C25 31.6239 25.1094 31.4744 25.3646 31.4744C29.1322 31.4744 32.898 31.25 36.6667 31.25C42.7817 31.25 49.4031 33.3409 51.724 39.7382C52.2708 41.3088 52.5625 42.9167 52.5625 44.5994C52.5625 47.8152 51.8333 50.4701 50.375 52.5641C46.3013 58.4135 39.2406 58.3227 32.9115 58.3227V70.3259C32.961 70.6812 32.6581 70.8494 32.3646 70.8494H25.4375C25.1458 70.8494 25 70.6998 25 70.3633ZM32.9479 38.6912V51.2553C35.4575 51.4392 38.0835 51.4591 40.4948 50.6571C43.1568 49.8892 44.6146 47.5849 44.6146 44.8237C44.6886 42.4709 43.4065 40.2134 41.224 39.3643C38.8418 38.3738 35.5194 38.3145 32.9479 38.6912Z" fill="#31A8FF"/>
<path d="M75.3021 48.7731C74.1989 48.1917 73.024 47.7664 71.8095 47.5088C70.2488 47.1415 64.0931 45.8553 64.0908 49.074C64.1454 50.871 66.9978 51.7514 68.2582 52.2648C72.6827 53.7838 77.6896 56.4991 77.5912 61.9575C77.7265 68.7526 71.1429 71.4689 65.4994 71.4696C62.5615 71.5 59.5009 71.0449 56.8121 69.7839C56.5555 69.6479 56.3902 69.3574 56.4012 69.0614V62.5595C56.3723 62.2988 56.6521 62.071 56.8708 62.2585C59.5053 63.8517 62.6279 64.6252 65.6755 64.6666C67.0209 64.6666 69.6873 64.5361 69.6671 62.5595C69.6671 60.6626 66.4774 59.7904 65.2059 59.3085C63.3628 58.6506 61.6153 57.7392 60.0111 56.5994C57.7693 55.0003 56.363 52.4365 56.4013 49.6159C56.3881 43.2178 62.4483 40.346 67.9061 40.3446C70.4575 40.3236 73.1974 40.5125 75.5724 41.5486C75.914 41.6492 75.9848 42.0089 75.9833 42.3313V48.4118C76.005 48.7892 75.5858 48.9178 75.3021 48.7731Z" fill="#31A8FF"/>
</svg>
