<svg width="41" height="41" viewBox="0 0 41 41" fill="none" xmlns="http://www.w3.org/2000/svg">
<path d="M19.7241 19.4249C21.0631 18.7848 21.7621 17.8164 21.7621 16.3089C21.7621 13.3362 19.5472 12.6119 16.9913 12.6119H9.95523V27.5347H17.1892C19.9009 27.5347 22.4484 26.2336 22.4484 23.2019C22.4484 21.3281 21.56 19.9428 19.7241 19.4249ZM13.2354 15.1594H16.3134C17.4966 15.1594 18.5619 15.4921 18.5619 16.8648C18.5619 18.1322 17.7324 18.6417 16.5618 18.6417H13.2354V15.1594ZM16.7429 24.9999H13.2354V20.8902H16.8103C18.2546 20.8902 19.1683 21.4923 19.1683 23.0208C19.1683 24.5283 18.0777 24.9999 16.7429 24.9999ZM31.8383 14.8647H25.7875V13.3951H31.8383V14.8647ZM34.209 22.2882C34.209 19.0922 32.3394 16.4268 28.9498 16.4268C25.657 16.4268 23.4211 18.9027 23.4211 22.145C23.4211 25.5094 25.5391 27.8168 28.9498 27.8168C31.5309 27.8168 33.2026 26.6547 34.0068 24.183H31.3878C31.1057 25.1051 29.9435 25.5936 29.0424 25.5936C27.3034 25.5936 26.3897 24.5746 26.3897 22.844H34.1837C34.1963 22.6671 34.209 22.4776 34.209 22.2882ZM26.3939 20.9744C26.4907 19.5554 27.4339 18.6669 28.8571 18.6669C30.3477 18.6669 31.0972 19.5428 31.2236 20.9744H26.3939Z" fill="white"/>
<circle cx="20.6269" cy="20.3731" r="18.9179" stroke="white" stroke-width="2.91045"/>
</svg>
