<svg width="41" height="41" viewBox="0 0 41 41" fill="none" xmlns="http://www.w3.org/2000/svg">
<path d="M19.7244 19.4249C21.0634 18.7848 21.7624 17.8164 21.7624 16.3089C21.7624 13.3362 19.5476 12.6119 16.9917 12.6119H9.95557V27.5347H17.1896C19.9013 27.5347 22.4488 26.2336 22.4488 23.2019C22.4488 21.3281 21.5603 19.9428 19.7244 19.4249ZM13.2357 15.1594H16.3137C17.497 15.1594 18.5623 15.4921 18.5623 16.8648C18.5623 18.1322 17.7328 18.6417 16.5622 18.6417H13.2357V15.1594ZM16.7432 24.9999H13.2357V20.8902H16.8106C18.2549 20.8902 19.1686 21.4923 19.1686 23.0208C19.1686 24.5283 18.078 24.9999 16.7432 24.9999ZM31.8387 14.8647H25.7879V13.3951H31.8387V14.8647ZM34.2093 22.2882C34.2093 19.0922 32.3397 16.4268 28.9501 16.4268C25.6573 16.4268 23.4214 18.9027 23.4214 22.145C23.4214 25.5094 25.5394 27.8168 28.9501 27.8168C31.5313 27.8168 33.2029 26.6547 34.0072 24.183H31.3881C31.106 25.1051 29.9438 25.5936 29.0427 25.5936C27.3037 25.5936 26.39 24.5746 26.39 22.844H34.184C34.1967 22.6671 34.2093 22.4776 34.2093 22.2882ZM26.3942 20.9744C26.4911 19.5554 27.4343 18.6669 28.8575 18.6669C30.3481 18.6669 31.0976 19.5428 31.2239 20.9744H26.3942Z" fill="#D4AF37"/>
<circle cx="20.627" cy="20.3731" r="18.9179" stroke="#D4AF37" stroke-width="2.91045"/>
</svg>
