<svg width="25" height="26" viewBox="0 0 25 26" fill="none" xmlns="http://www.w3.org/2000/svg">
<path d="M24.3501 12.9074C24.3501 19.5969 18.9302 25.0168 12.2407 25.0168C5.55127 25.0168 0.131348 19.5969 0.131348 12.9074C0.131348 6.21795 5.55127 0.798033 12.2407 0.798033C18.9302 0.798033 24.3501 6.21795 24.3501 12.9074ZM13.0708 18.4689L19.687 11.8527C20.146 11.3937 20.146 10.6515 19.687 10.1974L18.8569 9.36737C18.3979 8.90838 17.6558 8.90838 17.2017 9.36737L12.2407 14.3283L7.27978 9.36737C6.8208 8.90838 6.07861 8.90838 5.62451 9.36737L4.79443 10.1974C4.33545 10.6564 4.33545 11.3986 4.79443 11.8527L11.4106 18.4689C11.8696 18.9279 12.6118 18.9279 13.0708 18.4689Z" fill="white"/>
</svg>
