<svg width="46" height="46" viewBox="0 0 46 46" fill="none" xmlns="http://www.w3.org/2000/svg">
<path d="M19.4062 0H26.5938C27.7887 0 28.75 0.961328 28.75 2.15625V17.25H36.6293C38.2285 17.25 39.0281 19.1816 37.8961 20.3137L24.2309 33.9879C23.557 34.6617 22.452 34.6617 21.7781 33.9879L8.09492 20.3137C6.96289 19.1816 7.7625 17.25 9.36172 17.25H17.25V2.15625C17.25 0.961328 18.2113 0 19.4062 0ZM46 33.7812V43.8438C46 45.0387 45.0387 46 43.8438 46H2.15625C0.961328 46 0 45.0387 0 43.8438V33.7812C0 32.5863 0.961328 31.625 2.15625 31.625H15.3363L19.7387 36.0273C21.5445 37.8332 24.4555 37.8332 26.2613 36.0273L30.6637 31.625H43.8438C45.0387 31.625 46 32.5863 46 33.7812ZM34.8594 41.6875C34.8594 40.6992 34.0508 39.8906 33.0625 39.8906C32.0742 39.8906 31.2656 40.6992 31.2656 41.6875C31.2656 42.6758 32.0742 43.4844 33.0625 43.4844C34.0508 43.4844 34.8594 42.6758 34.8594 41.6875ZM40.6094 41.6875C40.6094 40.6992 39.8008 39.8906 38.8125 39.8906C37.8242 39.8906 37.0156 40.6992 37.0156 41.6875C37.0156 42.6758 37.8242 43.4844 38.8125 43.4844C39.8008 43.4844 40.6094 42.6758 40.6094 41.6875Z" fill="black"/>
</svg>
