<svg width="57" height="44" viewBox="0 0 57 44" fill="none" xmlns="http://www.w3.org/2000/svg">
<path d="M27.5409 11.4148L9.43109 26.3303V42.4284C9.43109 42.8452 9.59667 43.245 9.89141 43.5397C10.1861 43.8344 10.5859 44 11.0027 44L22.0098 43.9715C22.4253 43.9694 22.823 43.8029 23.116 43.5084C23.4091 43.2139 23.5736 42.8154 23.5736 42.3999V32.9988C23.5736 32.582 23.7391 32.1822 24.0339 31.8875C24.3286 31.5927 24.7284 31.4272 25.1452 31.4272H31.4316C31.8484 31.4272 32.2481 31.5927 32.5429 31.8875C32.8376 32.1822 33.0032 32.582 33.0032 32.9988V42.393C33.0025 42.5998 33.0427 42.8047 33.1214 42.996C33.2001 43.1872 33.3158 43.361 33.4618 43.5075C33.6078 43.654 33.7812 43.7702 33.9722 43.8494C34.1632 43.9287 34.368 43.9696 34.5748 43.9696L45.578 44C45.9948 44 46.3945 43.8344 46.6893 43.5397C46.984 43.245 47.1496 42.8452 47.1496 42.4284V26.3195L29.0437 11.4148C28.8309 11.2432 28.5657 11.1496 28.2923 11.1496C28.0189 11.1496 27.7537 11.2432 27.5409 11.4148ZM56.147 21.5526L47.9354 14.7839V1.1787C47.9354 0.866091 47.8112 0.566284 47.5902 0.345234C47.3691 0.124185 47.0693 0 46.7567 0H41.2561C40.9435 0 40.6437 0.124185 40.4226 0.345234C40.2016 0.566284 40.0774 0.866091 40.0774 1.1787V8.31084L31.2833 1.07557C30.4393 0.381094 29.3803 0.00138826 28.2874 0.00138826C27.1945 0.00138826 26.1355 0.381094 25.2915 1.07557L0.42777 21.5526C0.308414 21.6512 0.209666 21.7724 0.137167 21.9093C0.0646694 22.0461 0.0198422 22.1959 0.00524734 22.35C-0.00934756 22.5042 0.00657585 22.6597 0.0521077 22.8077C0.0976396 22.9557 0.171888 23.0933 0.270609 23.2126L2.77535 26.2576C2.87381 26.3773 2.9949 26.4764 3.13171 26.5493C3.26852 26.6221 3.41836 26.6673 3.57264 26.6821C3.72692 26.697 3.88262 26.6813 4.03083 26.6359C4.17903 26.5905 4.31683 26.5164 4.43634 26.4177L27.5409 7.38752C27.7537 7.21595 28.0189 7.12238 28.2923 7.12238C28.5657 7.12238 28.8309 7.21595 29.0437 7.38752L52.1493 26.4177C52.2686 26.5164 52.4061 26.5906 52.5541 26.6362C52.7021 26.6817 52.8577 26.6976 53.0118 26.683C53.166 26.6684 53.3158 26.6236 53.4526 26.5511C53.5894 26.4786 53.7106 26.3799 53.8093 26.2605L56.314 23.2155C56.4126 23.0956 56.4866 22.9573 56.5315 22.8086C56.5765 22.66 56.5917 22.5039 56.5762 22.3493C56.5607 22.1948 56.5148 22.0449 56.4411 21.9081C56.3675 21.7714 56.2675 21.6506 56.147 21.5526Z" fill="#D4AF37"/>
</svg>
