<svg width="100" height="100" viewBox="0 0 100 100" fill="none" xmlns="http://www.w3.org/2000/svg">
<path d="M44.7917 93.7501H55.2917C59.2917 93.7501 61.875 90.9167 61.125 87.4584L59.4166 79.917H40.6666L38.9584 87.4584C38.2084 90.7084 41.0417 93.7501 44.7917 93.7501Z" stroke="#D4AF37" stroke-width="4" stroke-linecap="round" stroke-linejoin="round"/>
<path d="M59.4166 79.8753L66.625 73.4584C70.6667 69.8751 70.8333 67.3749 67.625 63.3332L54.9166 47.2085C52.25 43.8335 47.875 43.8335 45.2083 47.2085L32.5 63.3332C29.2917 67.3749 29.2916 70.0001 33.5 73.4584L40.7083 79.8753" stroke="#D4AF37" stroke-width="4" stroke-linecap="round" stroke-linejoin="round"/>
<path d="M50.0417 46.3333V56.875" stroke="#D4AF37" stroke-width="4" stroke-linecap="round" stroke-linejoin="round"/>
<path d="M52.1667 20.8333H48C45.7083 20.8333 43.8333 18.9583 43.8333 16.6666V12.4999C43.8333 10.2083 45.7083 8.33325 48 8.33325H52.1667C54.4583 8.33325 56.3333 10.2083 56.3333 12.4999V16.6666C56.3333 18.9583 54.4583 20.8333 52.1667 20.8333Z" stroke="#D4AF37" stroke-width="4" stroke-linecap="round" stroke-linejoin="round"/>
<path d="M13.625 59.0418H17.7917C20.0833 59.0418 21.9583 57.1668 21.9583 54.8751V50.7084C21.9583 48.4168 20.0833 46.5415 17.7917 46.5415H13.625C11.3333 46.5415 9.45834 48.4168 9.45834 50.7084V54.8751C9.45834 57.1668 11.3333 59.0418 13.625 59.0418Z" stroke="#D4AF37" stroke-width="4" stroke-linecap="round" stroke-linejoin="round"/>
<path d="M86.375 59.0418H82.2083C79.9166 59.0418 78.0416 57.1668 78.0416 54.8751V50.7084C78.0416 48.4168 79.9166 46.5415 82.2083 46.5415H86.375C88.6666 46.5415 90.5416 48.4168 90.5416 50.7084V54.8751C90.5416 57.1668 88.6666 59.0418 86.375 59.0418Z" stroke="#D4AF37" stroke-width="4" stroke-linecap="round" stroke-linejoin="round"/>
<path d="M43.8334 14.8333C27.9584 16.7083 15.625 30.1665 15.625 46.5415" stroke="#D4AF37" stroke-width="4" stroke-linecap="round" stroke-linejoin="round"/>
<path d="M84.375 46.5415C84.375 30.2082 72.125 16.7916 56.3333 14.8333" stroke="#D4AF37" stroke-width="4" stroke-linecap="round" stroke-linejoin="round"/>
</svg>
