<svg width="41" height="41" viewBox="0 0 41 41" fill="none" xmlns="http://www.w3.org/2000/svg">
<circle cx="20.3731" cy="20.3731" r="18.9179" stroke="white" stroke-width="2.91045"/>
<path d="M15.422 29.9529H11.0222V15.7843H15.422V29.9529ZM13.2197 13.8516C11.8128 13.8516 10.6716 12.6863 10.6716 11.2794C10.6716 10.6036 10.9401 9.9555 11.4179 9.47765C11.8958 8.99979 12.5439 8.73134 13.2197 8.73134C13.8955 8.73134 14.5436 8.99979 15.0214 9.47765C15.4993 9.9555 15.7678 10.6036 15.7678 11.2794C15.7678 12.6863 14.6261 13.8516 13.2197 13.8516ZM31.8889 29.9529H27.4986V23.0557C27.4986 21.412 27.4654 19.304 25.2111 19.304C22.9236 19.304 22.573 21.0898 22.573 22.9373V29.9529H18.178V15.7843H22.3977V17.7171H22.4593C23.0467 16.6039 24.4816 15.4291 26.6222 15.4291C31.0751 15.4291 31.8936 18.3613 31.8936 22.1699V29.9529H31.8889Z" fill="white"/>
</svg>
