<svg width="41" height="41" viewBox="0 0 41 41" fill="none" xmlns="http://www.w3.org/2000/svg">
<circle cx="20.3731" cy="20.3731" r="18.9179" stroke="#D4AF37" stroke-width="2.91045"/>
<path d="M15.4222 29.9529H11.0224V15.7843H15.4222V29.9529ZM13.2199 13.8516C11.813 13.8516 10.6719 12.6863 10.6719 11.2794C10.6719 10.6036 10.9403 9.9555 11.4182 9.47765C11.896 8.99979 12.5441 8.73134 13.2199 8.73134C13.8957 8.73134 14.5438 8.99979 15.0217 9.47765C15.4995 9.9555 15.768 10.6036 15.768 11.2794C15.768 12.6863 14.6264 13.8516 13.2199 13.8516ZM31.8892 29.9529H27.4988V23.0557C27.4988 21.412 27.4657 19.304 25.2113 19.304C22.9238 19.304 22.5733 21.0898 22.5733 22.9373V29.9529H18.1782V15.7843H22.398V17.7171H22.4596C23.047 16.6039 24.4818 15.4291 26.6225 15.4291C31.0753 15.4291 31.8939 18.3613 31.8939 22.1699V29.9529H31.8892Z" fill="#D4AF37"/>
</svg>
