<svg width="1021" height="200" viewBox="0 0 1021 200" fill="none" xmlns="http://www.w3.org/2000/svg">
<circle cx="923" cy="98" r="97" fill="white" stroke="black"/>
<circle cx="923" cy="98" r="84" fill="#6F6F6F" stroke="#D4AF37" stroke-width="4"/>
<path d="M883.79 104.65C882.222 104.65 880.612 104.495 878.962 104.186C877.332 103.897 875.867 103.443 874.567 102.824L875.495 98.2125C876.754 98.8108 878.033 99.2441 879.333 99.5123C880.654 99.7599 882.139 99.8837 883.79 99.8837C886.72 99.8837 889.031 98.7695 890.722 96.5412C892.435 94.2922 893.322 90.6814 893.384 85.7089L893.26 85.5541C892.435 86.9365 891.28 87.9991 889.794 88.7419C888.308 89.4847 886.637 89.8561 884.78 89.8561C880.385 89.8561 876.919 88.5046 874.381 85.8017C871.843 83.0782 870.574 79.2611 870.574 74.3504C870.574 71.2142 871.193 68.4391 872.431 66.025C873.69 63.611 875.371 61.723 877.476 60.3613C879.601 58.9789 881.953 58.2876 884.533 58.2876C889.237 58.2876 892.94 59.7629 895.643 62.7134C898.367 65.6433 899.729 69.9865 899.729 75.7431V83.8829C899.729 90.9187 898.274 96.1388 895.365 99.5433C892.476 102.948 888.618 104.65 883.79 104.65ZM884.78 85.0589C887.029 85.0589 888.896 84.5741 890.382 83.6043C891.888 82.6346 892.971 81.3966 893.632 79.8904V75.1242C893.632 67.0979 890.661 63.0848 884.718 63.0848C883.212 63.0848 881.85 63.5697 880.633 64.5394C879.416 65.4886 878.446 66.8091 877.724 68.501C877.022 70.1929 876.671 72.1427 876.671 74.3504C876.671 77.5898 877.394 80.1895 878.838 82.1497C880.282 84.0892 882.263 85.0589 884.78 85.0589ZM921.796 104.65C917.38 104.65 913.883 103.113 911.304 100.038C908.725 96.9642 907.435 92.559 907.435 86.823V76.1455C907.435 70.4095 908.714 66.0044 911.273 62.9301C913.831 59.8351 917.318 58.2876 921.734 58.2876C926.17 58.2876 929.677 59.8351 932.257 62.9301C934.836 66.0044 936.125 70.4095 936.125 76.1455V86.823C936.125 92.5796 934.846 96.9951 932.288 100.069C929.729 103.123 926.232 104.65 921.796 104.65ZM921.796 99.8837C927.284 99.8837 930.028 95.9428 930.028 88.061V74.8456C930.028 67.0051 927.263 63.0848 921.734 63.0848C919.072 63.0848 917.04 64.0752 915.637 66.056C914.234 68.0161 913.532 70.946 913.532 74.8456V88.061C913.532 91.9607 914.244 94.9112 915.668 96.9126C917.091 98.8933 919.134 99.8837 921.796 99.8837ZM951.569 79.2404C948.742 79.2404 946.473 78.3532 944.76 76.5788C943.068 74.8043 942.222 72.6069 942.222 69.9865V67.6034C942.222 64.983 943.068 62.7753 944.76 60.9803C946.452 59.1852 948.701 58.2876 951.507 58.2876C954.355 58.2876 956.624 59.1852 958.316 60.9803C960.008 62.7547 960.854 64.9624 960.854 67.6034V69.9865C960.854 72.6069 960.008 74.8043 958.316 76.5788C956.624 78.3532 954.375 79.2404 951.569 79.2404ZM951.569 75.4646C953.075 75.4646 954.241 74.9385 955.066 73.8862C955.912 72.8339 956.335 71.534 956.335 69.9865V67.6034C956.335 66.0766 955.912 64.7767 955.066 63.7038C954.22 62.6103 953.034 62.0635 951.507 62.0635C949.98 62.0635 948.804 62.6103 947.979 63.7038C947.154 64.7767 946.741 66.0766 946.741 67.6034V69.9865C946.741 71.5134 947.154 72.8133 947.979 73.8862C948.825 74.9385 950.022 75.4646 951.569 75.4646ZM952.9 100.596L949.526 98.5219L971.531 63.3015L974.905 65.3751L952.9 100.596ZM973.388 104.65C970.541 104.65 968.271 103.763 966.58 101.988C964.888 100.214 964.042 98.0061 964.042 95.3651V92.951C964.042 91.2179 964.423 89.6498 965.187 88.2467C965.95 86.8437 967.023 85.7295 968.406 84.9042C969.809 84.0789 971.449 83.6662 973.327 83.6662C976.153 83.6662 978.413 84.5637 980.104 86.3588C981.817 88.1332 982.673 90.3307 982.673 92.951V95.3651C982.673 98.0061 981.827 100.214 980.135 101.988C978.444 103.763 976.195 104.65 973.388 104.65ZM973.388 100.874C974.915 100.874 976.091 100.348 976.917 99.2957C977.742 98.2228 978.155 96.9126 978.155 95.3651V92.951C978.155 91.4242 977.732 90.1243 976.886 89.0514C976.04 87.9785 974.853 87.442 973.327 87.442C971.8 87.442 970.624 87.9785 969.798 89.0514C968.973 90.1243 968.56 91.4242 968.56 92.951V95.3651C968.56 96.9126 968.973 98.2228 969.798 99.2957C970.644 100.348 971.841 100.874 973.388 100.874Z" fill="#D4AF37"/>
<path d="M910.568 137.254C908.804 137.254 907.331 136.867 906.147 136.094C904.971 135.321 904.085 134.262 903.489 132.917C902.901 131.572 902.608 130.046 902.608 128.339V128.085C902.608 126.362 902.918 124.832 903.538 123.495C904.158 122.151 905.048 121.092 906.207 120.318C907.367 119.545 908.752 119.159 910.362 119.159C911.498 119.159 912.537 119.336 913.479 119.69C914.421 120.045 915.202 120.496 915.822 121.043V124.836H913.926L913.672 122.058C912.859 121.438 911.752 121.128 910.35 121.128C909.199 121.128 908.224 121.426 907.427 122.022C906.63 122.61 906.026 123.423 905.615 124.462C905.205 125.501 904.999 126.7 904.999 128.061V128.339C904.999 130.554 905.486 132.273 906.461 133.497C907.435 134.713 908.832 135.321 910.652 135.321C911.216 135.321 911.768 135.253 912.307 135.116C912.847 134.979 913.294 134.802 913.648 134.584L913.914 132.132H915.774V135.949C915.114 136.36 914.324 136.682 913.406 136.915C912.488 137.141 911.542 137.254 910.568 137.254ZM924.544 137.254C923.473 137.254 922.442 137.097 921.451 136.783C920.461 136.469 919.515 135.985 918.613 135.333V131.576H920.461L920.859 134.343C921.383 134.665 921.951 134.914 922.563 135.091C923.175 135.269 923.835 135.357 924.544 135.357C925.743 135.357 926.674 135.091 927.334 134.56C927.994 134.02 928.324 133.316 928.324 132.446C928.324 131.641 928.026 130.972 927.431 130.441C926.835 129.909 925.772 129.471 924.242 129.124C922.422 128.706 921.033 128.069 920.074 127.216C919.116 126.354 918.637 125.271 918.637 123.966C918.637 123.048 918.878 122.227 919.362 121.502C919.853 120.778 920.533 120.206 921.403 119.787C922.273 119.368 923.287 119.159 924.447 119.159C925.679 119.159 926.766 119.348 927.708 119.727C928.659 120.097 929.44 120.548 930.052 121.079V124.595H928.204L927.805 122.082C927.443 121.792 926.992 121.551 926.452 121.357C925.913 121.164 925.244 121.067 924.447 121.067C923.424 121.067 922.595 121.329 921.959 121.853C921.33 122.376 921.016 123.069 921.016 123.93C921.016 124.687 921.318 125.307 921.922 125.79C922.526 126.266 923.573 126.688 925.063 127.059C926.915 127.518 928.316 128.198 929.267 129.1C930.225 129.994 930.704 131.101 930.704 132.422C930.704 133.364 930.45 134.202 929.943 134.934C929.436 135.659 928.719 136.227 927.793 136.638C926.875 137.048 925.792 137.254 924.544 137.254ZM939.111 137.254C938.04 137.254 937.009 137.097 936.019 136.783C935.028 136.469 934.082 135.985 933.18 135.333V131.576H935.028L935.427 134.343C935.95 134.665 936.518 134.914 937.13 135.091C937.742 135.269 938.403 135.357 939.111 135.357C940.311 135.357 941.241 135.091 941.902 134.56C942.562 134.02 942.892 133.316 942.892 132.446C942.892 131.641 942.594 130.972 941.998 130.441C941.402 129.909 940.339 129.471 938.809 129.124C936.989 128.706 935.6 128.069 934.642 127.216C933.684 126.354 933.204 125.271 933.204 123.966C933.204 123.048 933.446 122.227 933.929 121.502C934.42 120.778 935.101 120.206 935.971 119.787C936.84 119.368 937.855 119.159 939.015 119.159C940.247 119.159 941.334 119.348 942.276 119.727C943.226 120.097 944.007 120.548 944.619 121.079V124.595H942.771L942.373 122.082C942.01 121.792 941.559 121.551 941.02 121.357C940.48 121.164 939.812 121.067 939.015 121.067C937.992 121.067 937.162 121.329 936.526 121.853C935.898 122.376 935.584 123.069 935.584 123.93C935.584 124.687 935.886 125.307 936.49 125.79C937.094 126.266 938.141 126.688 939.631 127.059C941.483 127.518 942.884 128.198 943.834 129.1C944.793 129.994 945.272 131.101 945.272 132.422C945.272 133.364 945.018 134.202 944.511 134.934C944.003 135.659 943.287 136.227 942.361 136.638C941.443 137.048 940.359 137.254 939.111 137.254Z" fill="white"/>
<circle cx="644" cy="102" r="97" fill="white" stroke="black"/>
<circle cx="644" cy="102" r="84" fill="#6F6F6F" stroke="#D4AF37" stroke-width="4"/>
<path d="M604.94 102.594C603.506 102.594 602.034 102.453 600.525 102.17C599.034 101.906 597.694 101.491 596.506 100.924L597.355 96.7071C598.506 97.2543 599.676 97.6506 600.864 97.8959C602.072 98.1223 603.431 98.2355 604.94 98.2355C607.62 98.2355 609.733 97.2166 611.28 95.1787C612.847 93.1219 613.658 89.8198 613.715 85.2722L613.601 85.1307C612.847 86.3949 611.79 87.3667 610.431 88.046C609.073 88.7253 607.544 89.065 605.846 89.065C601.827 89.065 598.657 87.829 596.336 85.3571C594.015 82.8664 592.854 79.3755 592.854 74.8846C592.854 72.0164 593.42 69.4785 594.553 67.2707C595.704 65.063 597.241 63.3365 599.166 62.0911C601.11 60.8268 603.261 60.1947 605.619 60.1947C609.922 60.1947 613.309 61.5439 615.781 64.2422C618.271 66.9217 619.517 70.8937 619.517 76.1583V83.6023C619.517 90.0368 618.187 94.8107 615.526 97.9242C612.884 101.038 609.356 102.594 604.94 102.594ZM605.846 84.6778C607.903 84.6778 609.61 84.2344 610.969 83.3475C612.346 82.4607 613.337 81.3285 613.941 79.951V75.5922C613.941 68.2519 611.224 64.5818 605.789 64.5818C604.412 64.5818 603.166 65.0253 602.053 65.9121C600.94 66.7801 600.053 67.9878 599.393 69.5351C598.751 71.0824 598.43 72.8655 598.43 74.8846C598.43 77.8471 599.091 80.2246 600.412 82.0172C601.732 83.791 603.544 84.6778 605.846 84.6778ZM639.698 102.594C635.66 102.594 632.461 101.189 630.103 98.3771C627.744 95.5655 626.565 91.5369 626.565 86.2912V76.5262C626.565 71.2805 627.735 67.2519 630.074 64.4403C632.414 61.6099 635.603 60.1947 639.641 60.1947C643.698 60.1947 646.906 61.6099 649.265 64.4403C651.623 67.2519 652.803 71.2805 652.803 76.5262V86.2912C652.803 91.5557 651.633 95.5938 649.293 98.4054C646.953 101.198 643.755 102.594 639.698 102.594ZM639.698 98.2355C644.717 98.2355 647.227 94.6315 647.227 87.4233V75.3374C647.227 68.167 644.698 64.5818 639.641 64.5818C637.207 64.5818 635.348 65.4876 634.065 67.299C632.782 69.0916 632.141 71.7711 632.141 75.3374V87.4233C632.141 90.9897 632.792 93.688 634.094 95.5183C635.396 97.3298 637.264 98.2355 639.698 98.2355ZM666.926 79.3566C664.341 79.3566 662.266 78.5452 660.699 76.9225C659.152 75.2997 658.379 73.2901 658.379 70.8937V68.7143C658.379 66.3178 659.152 64.2988 660.699 62.6572C662.247 61.0155 664.304 60.1947 666.87 60.1947C669.474 60.1947 671.549 61.0155 673.097 62.6572C674.644 64.2799 675.418 66.299 675.418 68.7143V70.8937C675.418 73.2901 674.644 75.2997 673.097 76.9225C671.549 78.5452 669.493 79.3566 666.926 79.3566ZM666.926 75.9035C668.304 75.9035 669.37 75.4223 670.125 74.46C670.898 73.4977 671.285 72.3089 671.285 70.8937V68.7143C671.285 67.3179 670.898 66.1291 670.125 65.1479C669.351 64.1478 668.266 63.6478 666.87 63.6478C665.473 63.6478 664.398 64.1478 663.643 65.1479C662.888 66.1291 662.511 67.3179 662.511 68.7143V70.8937C662.511 72.29 662.888 73.4788 663.643 74.46C664.417 75.4223 665.511 75.9035 666.926 75.9035ZM668.143 98.8865L665.058 96.9902L685.183 64.78L688.268 66.6763L668.143 98.8865ZM686.881 102.594C684.277 102.594 682.201 101.783 680.654 100.16C679.107 98.5375 678.333 96.5184 678.333 94.1031V91.8954C678.333 90.3104 678.682 88.8763 679.38 87.5932C680.078 86.31 681.06 85.2911 682.324 84.5363C683.607 83.7815 685.107 83.4041 686.824 83.4041C689.409 83.4041 691.476 84.225 693.023 85.8666C694.589 87.4894 695.372 89.499 695.372 91.8954V94.1031C695.372 96.5184 694.598 98.5375 693.051 100.16C691.504 101.783 689.447 102.594 686.881 102.594ZM686.881 99.1413C688.277 99.1413 689.353 98.6601 690.108 97.6978C690.862 96.7165 691.24 95.5183 691.24 94.1031V91.8954C691.24 90.4991 690.853 89.3103 690.079 88.3291C689.306 87.3479 688.221 86.8572 686.824 86.8572C685.428 86.8572 684.352 87.3479 683.598 88.3291C682.843 89.3103 682.465 90.4991 682.465 91.8954V94.1031C682.465 95.5183 682.843 96.7165 683.598 97.6978C684.371 98.6601 685.466 99.1413 686.881 99.1413Z" fill="#D4AF37"/>
<path d="M608.178 139.6V138.078L610.146 137.74V123.885L608.178 123.547V122.013H614.495V123.547L612.526 123.885V129.961H620.933V123.885L618.964 123.547V122.013H625.282V123.547L623.313 123.885V137.74L625.282 138.078V139.6H618.964V138.078L620.933 137.74V131.833H612.526V137.74L614.495 138.078V139.6H608.178ZM631.575 139.6V138.078L633.544 137.74V123.812H629.558L629.208 126.252H627.42V122.013H642.036V126.252H640.272L639.91 123.812H635.924V137.74L637.893 138.078V139.6H631.575ZM644.379 139.6V138.078L646.348 137.74V123.885L644.379 123.547V122.013H649.525L655.19 135.36H655.263L660.747 122.013H666.049V123.547L664.081 123.885V137.74L666.049 138.078V139.6H659.732V138.078L661.81 137.74V125.262L661.749 125.25L656.036 138.972H654.453L648.547 125.274L648.486 125.286L648.571 132.642V137.74L650.697 138.078V139.6H644.379ZM668.163 139.6V138.078L670.132 137.74V123.885L668.163 123.547V122.013H674.481V123.547L672.512 123.885V137.776H678.733L679.011 134.998H680.835V139.6H668.163Z" fill="white"/>
<circle cx="370" cy="98" r="97" fill="white" stroke="black"/>
<circle cx="370" cy="98" r="84" fill="#6F6F6F" stroke="#D4AF37" stroke-width="4"/>
<path d="M330.657 102.594C329.223 102.594 327.751 102.453 326.242 102.17C324.751 101.906 323.411 101.491 322.222 100.924L323.072 96.7071C324.223 97.2543 325.393 97.6506 326.581 97.8959C327.789 98.1223 329.148 98.2355 330.657 98.2355C333.337 98.2355 335.45 97.2166 336.997 95.1787C338.563 93.1219 339.375 89.8198 339.431 85.2722L339.318 85.1307C338.563 86.3949 337.507 87.3667 336.148 88.046C334.79 88.7253 333.261 89.065 331.563 89.065C327.544 89.065 324.374 87.829 322.053 85.3571C319.732 82.8664 318.571 79.3755 318.571 74.8846C318.571 72.0164 319.137 69.4785 320.27 67.2707C321.421 65.063 322.958 63.3365 324.883 62.0911C326.827 60.8268 328.978 60.1947 331.336 60.1947C335.639 60.1947 339.026 61.5439 341.498 64.2422C343.988 66.9217 345.234 70.8937 345.234 76.1583V83.6023C345.234 90.0368 343.904 94.8107 341.243 97.9242C338.601 101.038 335.073 102.594 330.657 102.594ZM331.563 84.6778C333.62 84.6778 335.327 84.2344 336.686 83.3475C338.063 82.4607 339.054 81.3285 339.658 79.951V75.5922C339.658 68.2519 336.941 64.5818 331.506 64.5818C330.129 64.5818 328.883 65.0253 327.77 65.9121C326.657 66.7801 325.77 67.9878 325.11 69.5351C324.468 71.0824 324.147 72.8655 324.147 74.8846C324.147 77.8471 324.808 80.2246 326.128 82.0172C327.449 83.791 329.261 84.6778 331.563 84.6778ZM364.537 102V98.4337L369.151 97.6412V92.4898H350.64V89.348L368.811 60.7891H374.699V88.1309H380.388V92.4898H374.699V97.6412L379.312 98.4337V102H364.537ZM356.584 88.1309H369.151V68.7426L368.981 68.6859L368.415 70.1861L356.584 88.1309ZM393.209 79.3566C390.624 79.3566 388.549 78.5452 386.983 76.9225C385.435 75.2997 384.662 73.2901 384.662 70.8937V68.7143C384.662 66.3178 385.435 64.2988 386.983 62.6572C388.53 61.0155 390.587 60.1947 393.153 60.1947C395.757 60.1947 397.832 61.0155 399.38 62.6572C400.927 64.2799 401.701 66.299 401.701 68.7143V70.8937C401.701 73.2901 400.927 75.2997 399.38 76.9225C397.832 78.5452 395.776 79.3566 393.209 79.3566ZM393.209 75.9035C394.587 75.9035 395.653 75.4223 396.408 74.46C397.181 73.4977 397.568 72.3089 397.568 70.8937V68.7143C397.568 67.3179 397.181 66.1291 396.408 65.1479C395.634 64.1478 394.549 63.6478 393.153 63.6478C391.757 63.6478 390.681 64.1478 389.926 65.1479C389.171 66.1291 388.794 67.3179 388.794 68.7143V70.8937C388.794 72.29 389.171 73.4788 389.926 74.46C390.7 75.4223 391.794 75.9035 393.209 75.9035ZM394.427 98.8865L391.341 96.9902L411.466 64.78L414.551 66.6763L394.427 98.8865ZM413.164 102.594C410.56 102.594 408.484 101.783 406.937 100.16C405.39 98.5375 404.616 96.5184 404.616 94.1031V91.8954C404.616 90.3104 404.965 88.8763 405.663 87.5932C406.361 86.31 407.343 85.2911 408.607 84.5363C409.89 83.7815 411.39 83.4041 413.107 83.4041C415.692 83.4041 417.759 84.225 419.306 85.8666C420.872 87.4894 421.655 89.499 421.655 91.8954V94.1031C421.655 96.5184 420.882 98.5375 419.334 100.16C417.787 101.783 415.73 102.594 413.164 102.594ZM413.164 99.1413C414.56 99.1413 415.636 98.6601 416.391 97.6978C417.145 96.7165 417.523 95.5183 417.523 94.1031V91.8954C417.523 90.4991 417.136 89.3103 416.362 88.3291C415.589 87.3479 414.504 86.8572 413.107 86.8572C411.711 86.8572 410.635 87.3479 409.881 88.3291C409.126 89.3103 408.748 90.4991 408.748 91.8954V94.1031C408.748 95.5183 409.126 96.7165 409.881 97.6978C410.654 98.6601 411.749 99.1413 413.164 99.1413Z" fill="#D4AF37"/>
<path d="M309.025 140V138.355L310.435 138.159L317.079 120.994H319.286L325.813 138.159L327.209 138.355V140H321.753V138.355L323.189 138.107L321.935 134.609H314.325L313.033 138.107L314.469 138.355V140H309.025ZM315.121 132.455H321.152L318.359 124.727L318.202 124.296H318.124L317.967 124.727L315.121 132.455ZM334.258 140.274C333.11 140.274 332.122 139.991 331.295 139.426C330.477 138.851 329.851 138.055 329.415 137.037C328.98 136.019 328.763 134.831 328.763 133.473V133.199C328.763 131.685 328.98 130.358 329.415 129.217C329.851 128.077 330.481 127.194 331.308 126.568C332.135 125.932 333.127 125.615 334.284 125.615C335.12 125.615 335.855 125.771 336.491 126.085C337.135 126.389 337.683 126.833 338.135 127.416V121.659L336.008 121.294V119.636H340.707V137.99L342.835 138.355V140H338.475L338.266 138.316C337.326 139.621 335.99 140.274 334.258 140.274ZM334.911 138.186C335.677 138.186 336.321 138.011 336.843 137.663C337.365 137.315 337.796 136.824 338.135 136.188V129.635C337.805 129.043 337.374 128.573 336.843 128.225C336.312 127.877 335.677 127.703 334.937 127.703C333.71 127.703 332.801 128.212 332.209 129.231C331.626 130.249 331.334 131.572 331.334 133.199V133.473C331.334 134.892 331.626 136.032 332.209 136.893C332.792 137.755 333.693 138.186 334.911 138.186ZM350.915 140.274C349.61 140.274 348.483 139.97 347.534 139.36C346.594 138.742 345.868 137.894 345.354 136.815C344.841 135.727 344.584 134.487 344.584 133.094V132.807C344.584 131.415 344.841 130.179 345.354 129.1C345.868 128.012 346.594 127.159 347.534 126.541C348.483 125.924 349.601 125.615 350.889 125.615C352.194 125.615 353.317 125.924 354.257 126.541C355.206 127.159 355.937 128.008 356.45 129.087C356.963 130.166 357.22 131.406 357.22 132.807V133.094C357.22 134.496 356.963 135.74 356.45 136.828C355.937 137.907 355.21 138.751 354.27 139.36C353.33 139.97 352.212 140.274 350.915 140.274ZM350.915 138.264C352.134 138.264 353.06 137.776 353.696 136.802C354.331 135.827 354.649 134.591 354.649 133.094V132.807C354.649 131.815 354.505 130.932 354.218 130.157C353.939 129.374 353.522 128.761 352.965 128.317C352.408 127.864 351.716 127.638 350.889 127.638C350.071 127.638 349.384 127.864 348.827 128.317C348.27 128.761 347.852 129.374 347.573 130.157C347.295 130.932 347.156 131.815 347.156 132.807V133.094C347.156 134.591 347.469 135.827 348.096 136.802C348.731 137.776 349.671 138.264 350.915 138.264ZM366.71 140.274C364.892 140.274 363.525 139.578 362.611 138.186L362.377 140H360.157V121.659L358.03 121.294V119.636H362.729V127.547C363.173 126.92 363.721 126.441 364.374 126.111C365.035 125.78 365.805 125.615 366.684 125.615C367.85 125.615 368.843 125.932 369.661 126.568C370.487 127.194 371.118 128.077 371.553 129.217C371.997 130.358 372.219 131.685 372.219 133.199V133.473C372.219 134.831 371.997 136.019 371.553 137.037C371.118 138.055 370.487 138.851 369.661 139.426C368.843 139.991 367.859 140.274 366.71 140.274ZM366.058 138.186C367.267 138.186 368.164 137.755 368.747 136.893C369.339 136.032 369.634 134.892 369.634 133.473V133.199C369.634 131.572 369.339 130.249 368.747 129.231C368.155 128.212 367.25 127.703 366.032 127.703C365.24 127.703 364.57 127.895 364.021 128.278C363.482 128.661 363.051 129.174 362.729 129.818V136.058C363.051 136.71 363.486 137.228 364.034 137.611C364.591 137.994 365.266 138.186 366.058 138.186ZM381.122 140.274C379.817 140.274 378.681 139.978 377.715 139.386C376.749 138.786 376 137.955 375.47 136.893C374.947 135.831 374.686 134.604 374.686 133.212V132.638C374.686 131.297 374.96 130.101 375.509 129.048C376.066 127.986 376.801 127.151 377.715 126.541C378.637 125.924 379.642 125.615 380.73 125.615C382.627 125.615 384.063 126.189 385.038 127.338C386.022 128.486 386.513 130.018 386.513 131.933V133.538H377.349L377.31 133.604C377.336 134.961 377.68 136.079 378.341 136.958C379.003 137.829 379.93 138.264 381.122 138.264C381.992 138.264 382.754 138.142 383.406 137.898C384.068 137.646 384.638 137.302 385.116 136.867L386.122 138.538C385.617 139.025 384.947 139.439 384.111 139.778C383.285 140.109 382.288 140.274 381.122 140.274ZM377.428 131.528H383.942V131.189C383.942 130.179 383.672 129.335 383.132 128.656C382.593 127.977 381.792 127.638 380.73 127.638C379.869 127.638 379.133 128.003 378.524 128.734C377.915 129.457 377.541 130.366 377.402 131.463L377.428 131.528ZM395.259 140V138.355L396.904 138.068L402.791 130.353L397.335 122.939L395.677 122.651V120.994H401.838V122.651L400.05 122.821L404.253 128.682L408.248 122.821L406.42 122.651V120.994H412.621V122.651L410.885 122.939L405.729 130.353L411.446 138.068L413.13 138.355V140H406.89V138.355L408.731 138.186L404.227 132.011L399.737 138.186L401.473 138.355V140H395.259ZM415.245 140V138.355L417.373 137.99V123.017L415.245 122.651V120.994H422.686C424.365 120.994 425.827 121.394 427.072 122.194C428.325 122.995 429.3 124.096 429.996 125.497C430.692 126.898 431.04 128.5 431.04 130.301V130.706C431.04 132.464 430.705 134.047 430.035 135.457C429.365 136.858 428.412 137.968 427.176 138.786C425.949 139.595 424.496 140 422.816 140H415.245ZM419.944 137.99H422.686C423.887 137.99 424.918 137.663 425.779 137.011C426.641 136.349 427.302 135.47 427.764 134.374C428.233 133.269 428.468 132.046 428.468 130.706V130.275C428.468 128.891 428.233 127.655 427.764 126.568C427.302 125.471 426.641 124.605 425.779 123.97C424.918 123.335 423.887 123.017 422.686 123.017H419.944V137.99Z" fill="white"/>
<circle cx="98" cy="102" r="97" fill="white" stroke="black"/>
<circle cx="98" cy="102" r="84" fill="#6F6F6F" stroke="#D4AF37" stroke-width="4"/>
<path d="M59.1383 98.5944C57.7042 98.5944 56.2324 98.4529 54.7229 98.1698C53.2322 97.9057 51.8924 97.4905 50.7037 96.9244L51.5528 92.7071C52.7038 93.2543 53.8737 93.6506 55.0625 93.8959C56.2702 94.1223 57.6288 94.2355 59.1383 94.2355C61.8178 94.2355 63.9312 93.2166 65.4785 91.1787C67.0446 89.1219 67.856 85.8198 67.9126 81.2722L67.7994 81.1307C67.0446 82.3949 65.9879 83.3667 64.6293 84.046C63.2707 84.7253 61.7423 85.065 60.0441 85.065C56.0249 85.065 52.8548 83.829 50.5338 81.3571C48.2129 78.8664 47.0524 75.3755 47.0524 70.8846C47.0524 68.0164 47.6185 65.4785 48.7507 63.2707C49.9017 61.063 51.4396 59.3365 53.3643 58.0911C55.3078 56.8268 57.4589 56.1947 59.8176 56.1947C64.1199 56.1947 67.5069 57.5439 69.9788 60.2422C72.4696 62.9217 73.715 66.8937 73.715 72.1583V79.6023C73.715 86.0368 72.3847 90.8107 69.7241 93.9242C67.0824 97.0377 63.5538 98.5944 59.1383 98.5944ZM60.0441 80.6778C62.1008 80.6778 63.8085 80.2344 65.1671 79.3475C66.5446 78.4607 67.5352 77.3285 68.1391 75.951V71.5922C68.1391 64.2519 65.4219 60.5818 59.9874 60.5818C58.61 60.5818 57.3646 61.0253 56.2513 61.9121C55.138 62.7801 54.2511 63.9878 53.5907 65.5351C52.9491 67.0824 52.6284 68.8655 52.6284 70.8846C52.6284 73.8471 53.2888 76.2246 54.6097 78.0172C55.9305 79.791 57.742 80.6778 60.0441 80.6778ZM91.8014 98.5944C90.3673 98.5944 88.8955 98.4529 87.3859 98.1698C85.8952 97.9057 84.5555 97.4905 83.3667 96.9244L84.2159 92.7071C85.3669 93.2543 86.5368 93.6506 87.7256 93.8959C88.9332 94.1223 90.2918 94.2355 91.8014 94.2355C94.4808 94.2355 96.5942 93.2166 98.1415 91.1787C99.7077 89.1219 100.519 85.8198 100.576 81.2722L100.462 81.1307C99.7077 82.3949 98.651 83.3667 97.2924 84.046C95.9338 84.7253 94.4054 85.065 92.7071 85.065C88.6879 85.065 85.5178 83.829 83.1969 81.3571C80.876 78.8664 79.7155 75.3755 79.7155 70.8846C79.7155 68.0164 80.2816 65.4785 81.4137 63.2707C82.5648 61.063 84.1026 59.3365 86.0273 58.0911C87.9709 56.8268 90.122 56.1947 92.4807 56.1947C96.7829 56.1947 100.17 57.5439 102.642 60.2422C105.133 62.9217 106.378 66.8937 106.378 72.1583V79.6023C106.378 86.0368 105.048 90.8107 102.387 93.9242C99.7454 97.0377 96.2168 98.5944 91.8014 98.5944ZM92.7071 80.6778C94.7639 80.6778 96.4716 80.2344 97.8302 79.3475C99.2076 78.4607 100.198 77.3285 100.802 75.951V71.5922C100.802 64.2519 98.0849 60.5818 92.6505 60.5818C91.273 60.5818 90.0276 61.0253 88.9143 61.9121C87.8011 62.7801 86.9142 63.9878 86.2538 65.5351C85.6122 67.0824 85.2914 68.8655 85.2914 70.8846C85.2914 73.8471 85.9518 76.2246 87.2727 78.0172C88.5936 79.791 90.405 80.6778 92.7071 80.6778ZM120.728 75.3566C118.143 75.3566 116.068 74.5452 114.501 72.9225C112.954 71.2997 112.18 69.2901 112.18 66.8937V64.7143C112.18 62.3178 112.954 60.2988 114.501 58.6572C116.049 57.0155 118.105 56.1947 120.672 56.1947C123.276 56.1947 125.351 57.0155 126.899 58.6572C128.446 60.2799 129.22 62.299 129.22 64.7143V66.8937C129.22 69.2901 128.446 71.2997 126.899 72.9225C125.351 74.5452 123.295 75.3566 120.728 75.3566ZM120.728 71.9035C122.106 71.9035 123.172 71.4223 123.927 70.46C124.7 69.4977 125.087 68.3089 125.087 66.8937V64.7143C125.087 63.3179 124.7 62.1291 123.927 61.1479C123.153 60.1478 122.068 59.6478 120.672 59.6478C119.275 59.6478 118.2 60.1478 117.445 61.1479C116.69 62.1291 116.313 63.3179 116.313 64.7143V66.8937C116.313 68.29 116.69 69.4788 117.445 70.46C118.219 71.4223 119.313 71.9035 120.728 71.9035ZM121.945 94.8865L118.86 92.9902L138.984 60.78L142.07 62.6763L121.945 94.8865ZM140.683 98.5944C138.079 98.5944 136.003 97.783 134.456 96.1602C132.909 94.5375 132.135 92.5184 132.135 90.1031V87.8954C132.135 86.3104 132.484 84.8763 133.182 83.5932C133.88 82.31 134.862 81.2911 136.126 80.5363C137.409 79.7815 138.909 79.4041 140.626 79.4041C143.211 79.4041 145.277 80.225 146.825 81.8666C148.391 83.4894 149.174 85.499 149.174 87.8954V90.1031C149.174 92.5184 148.4 94.5375 146.853 96.1602C145.306 97.783 143.249 98.5944 140.683 98.5944ZM140.683 95.1413C142.079 95.1413 143.155 94.6601 143.909 93.6978C144.664 92.7165 145.042 91.5183 145.042 90.1031V87.8954C145.042 86.4991 144.655 85.3103 143.881 84.3291C143.107 83.3479 142.022 82.8572 140.626 82.8572C139.23 82.8572 138.154 83.3479 137.399 84.3291C136.645 85.3103 136.267 86.4991 136.267 87.8954V90.1031C136.267 91.5183 136.645 92.7165 137.399 93.6978C138.173 94.6601 139.268 95.1413 140.683 95.1413Z" fill="#D4AF37"/>
<path d="M47.5018 140V137.758L50.4018 137.26V116.854L47.5018 116.355V114.096H66.9832V120.323H64.1722L63.7808 116.818H53.9066V125.785H63.3894V128.542H53.9066V137.26L56.8066 137.758V140H47.5018ZM69.5985 140V137.758L72.4985 137.26V123.508L69.5985 123.009V120.75H76.0033V137.26L78.9033 137.758V140H69.5985ZM72.3206 116V112.246H76.0033V116H72.3206ZM89.7737 147.775C88.8486 147.775 87.8464 147.644 86.767 147.383C85.6877 147.134 84.7388 146.79 83.9204 146.351L84.8278 143.629C85.4801 143.973 86.2511 144.258 87.1406 144.483C88.0302 144.709 88.896 144.821 89.7382 144.821C91.3038 144.821 92.4484 144.383 93.1719 143.505C93.9072 142.627 94.2749 141.376 94.2749 139.751V137.918C92.994 139.555 91.2326 140.374 88.9909 140.374C87.4253 140.374 86.0732 139.988 84.9345 139.217C83.7959 138.434 82.9182 137.349 82.3014 135.961C81.6965 134.562 81.3941 132.943 81.3941 131.104V130.731C81.3941 128.667 81.6965 126.858 82.3014 125.304C82.9182 123.751 83.7959 122.547 84.9345 121.693C86.0732 120.827 87.4372 120.394 89.0265 120.394C91.4105 120.394 93.2371 121.319 94.5062 123.17L94.8264 120.75H100.164V122.992L97.7798 123.508V139.751C97.7798 142.242 97.0859 144.199 95.6982 145.622C94.3105 147.057 92.3357 147.775 89.7737 147.775ZM89.8627 137.527C90.9183 137.527 91.8019 137.29 92.5136 136.815C93.2252 136.329 93.8123 135.647 94.2749 134.769V125.909C93.8242 125.091 93.2371 124.445 92.5136 123.97C91.7901 123.484 90.9183 123.241 89.8983 123.241C88.2259 123.241 86.9746 123.94 86.1443 125.34C85.3141 126.74 84.8989 128.537 84.8989 130.731V131.104C84.8989 133.038 85.3081 134.591 86.1265 135.766C86.9449 136.94 88.1903 137.527 89.8627 137.527ZM101.925 140V137.758L104.825 137.26V123.508L101.925 123.009V120.75H107.974L108.205 123.258C108.822 122.345 109.617 121.639 110.589 121.141C111.562 120.643 112.689 120.394 113.97 120.394C115.251 120.394 116.348 120.691 117.261 121.284C118.186 121.877 118.88 122.766 119.343 123.952C119.948 122.861 120.748 121.995 121.745 121.355C122.741 120.714 123.903 120.394 125.232 120.394C127.201 120.394 128.754 121.07 129.893 122.422C131.032 123.763 131.601 125.785 131.601 128.489V137.26L134.501 137.758V140H125.178V137.758L128.078 137.26V128.454C128.078 126.556 127.752 125.215 127.1 124.433C126.447 123.638 125.481 123.241 124.2 123.241C122.978 123.241 121.994 123.674 121.246 124.539C120.511 125.393 120.084 126.473 119.965 127.777V137.26L122.865 137.758V140H113.561V137.758L116.461 137.26V128.454C116.461 126.651 116.123 125.334 115.446 124.504C114.782 123.662 113.816 123.241 112.546 123.241C111.479 123.241 110.601 123.46 109.913 123.899C109.225 124.338 108.698 124.955 108.33 125.749V137.26L111.23 137.758V140H101.925ZM143.343 140.374C141.339 140.374 139.815 139.887 138.771 138.915C137.727 137.93 137.205 136.549 137.205 134.769C137.205 132.943 137.952 131.478 139.447 130.375C140.941 129.26 143.017 128.703 145.674 128.703H149.107V126.817C149.107 125.654 148.752 124.753 148.04 124.112C147.34 123.472 146.35 123.152 145.069 123.152C144.262 123.152 143.563 123.253 142.969 123.454C142.376 123.644 141.837 123.911 141.35 124.255L140.977 126.941H138.273V122.529C140.016 121.106 142.299 120.394 145.122 120.394C147.459 120.394 149.291 120.952 150.62 122.066C151.948 123.181 152.612 124.777 152.612 126.852V136.122C152.612 136.371 152.612 136.614 152.612 136.851C152.624 137.088 152.642 137.325 152.666 137.563L154.534 137.758V140H149.499C149.297 139.027 149.173 138.144 149.125 137.349C148.449 138.215 147.601 138.938 146.581 139.52C145.573 140.089 144.494 140.374 143.343 140.374ZM143.859 137.438C145.021 137.438 146.083 137.159 147.044 136.602C148.004 136.044 148.692 135.374 149.107 134.591V131.104H145.549C143.936 131.104 142.726 131.49 141.92 132.261C141.113 133.032 140.71 133.892 140.71 134.841C140.71 136.572 141.76 137.438 143.859 137.438Z" fill="white"/>
</svg>
