<svg width="42" height="41" viewBox="0 0 42 41" fill="none" xmlns="http://www.w3.org/2000/svg">
<circle cx="20.7911" cy="20.3731" r="18.9179" stroke="#D4AF37" stroke-width="2.91045"/>
<path d="M30.91 18.4913C30.9254 18.7067 30.9254 18.9222 30.9254 19.1377C30.9254 25.7089 25.9239 33.2805 16.7826 33.2805C13.9663 33.2805 11.3501 32.4649 9.14941 31.0491C9.54955 31.0952 9.93425 31.1106 10.3498 31.1106C12.6735 31.1106 14.8127 30.3258 16.5209 28.9869C14.3356 28.9407 12.5043 27.5095 11.8733 25.5397C12.1811 25.5858 12.4889 25.6166 12.8121 25.6166C13.2584 25.6166 13.7047 25.555 14.1202 25.4473C11.8426 24.9856 10.1343 22.985 10.1343 20.5689V20.5073C10.796 20.8767 11.5655 21.1075 12.3811 21.1383C11.0422 20.2457 10.1651 18.7221 10.1651 16.9985C10.1651 16.0752 10.4113 15.2287 10.8422 14.49C13.2891 17.5064 16.9672 19.4762 21.0915 19.6917C21.0146 19.3223 20.9684 18.9376 20.9684 18.5529C20.9684 15.8135 23.1845 13.5821 25.9392 13.5821C27.3704 13.5821 28.6631 14.1823 29.5711 15.1518C30.6945 14.9364 31.7717 14.5208 32.7259 13.9514C32.3565 15.1057 31.5717 16.0752 30.5406 16.6907C31.541 16.5831 32.5105 16.306 33.403 15.9213C32.726 16.9062 31.8796 17.7833 30.91 18.4913Z" fill="#D4AF37"/>
</svg>
