<svg width="42" height="41" viewBox="0 0 42 41" fill="none" xmlns="http://www.w3.org/2000/svg">
<circle cx="20.791" cy="20.3731" r="18.9179" stroke="white" stroke-width="2.91045"/>
<path d="M30.9099 18.4913C30.9253 18.7067 30.9253 18.9222 30.9253 19.1377C30.9253 25.7089 25.9238 33.2805 16.7824 33.2805C13.9662 33.2805 11.35 32.4649 9.14929 31.0491C9.54943 31.0952 9.93413 31.1106 10.3497 31.1106C12.6734 31.1106 14.8126 30.3258 16.5208 28.9869C14.3355 28.9407 12.5042 27.5095 11.8732 25.5397C12.181 25.5858 12.4888 25.6166 12.812 25.6166C13.2583 25.6166 13.7046 25.555 14.1201 25.4473C11.8425 24.9856 10.1342 22.985 10.1342 20.5689V20.5073C10.7959 20.8767 11.5654 21.1075 12.381 21.1383C11.0421 20.2457 10.165 18.7221 10.165 16.9985C10.165 16.0752 10.4111 15.2287 10.8421 14.49C13.289 17.5064 16.9671 19.4762 21.0914 19.6917C21.0145 19.3223 20.9683 18.9376 20.9683 18.5529C20.9683 15.8135 23.1844 13.5821 25.9391 13.5821C27.3703 13.5821 28.663 14.1823 29.571 15.1518C30.6944 14.9364 31.7716 14.5208 32.7258 13.9514C32.3564 15.1057 31.5716 16.0752 30.5405 16.6907C31.5408 16.5831 32.5104 16.306 33.4029 15.9213C32.7259 16.9062 31.8794 17.7833 30.9099 18.4913Z" fill="white"/>
</svg>
