<svg width="72" height="72" viewBox="0 0 72 72" fill="none" xmlns="http://www.w3.org/2000/svg">
<circle cx="36" cy="36" r="36" fill="#D4AF37"/>
<path d="M29.0362 27.1802C28.7961 27.6369 28.6538 28.1564 28.6217 28.6933C28.5896 29.2302 28.6687 29.7682 28.8521 30.2605L34.0357 44.1763L34.938 44.2273L35.3774 33.2919C35.0981 33.1567 34.8375 32.9554 34.621 32.673C33.8457 31.6614 33.9086 30.0959 34.7615 29.1763C35.6145 28.2567 36.9345 28.3313 37.7098 29.3429C38.4852 30.3546 38.4223 31.9201 37.5693 32.8397C37.3312 33.0964 37.0556 33.2674 36.7668 33.3704L36.3273 44.3059L37.2296 44.3569L43.5056 31.0889C43.7276 30.6194 43.8495 30.0928 43.8606 29.5547C43.8717 29.0166 43.7717 28.4835 43.5693 28.0017L40.518 20.7399L32.6559 20.2954L29.0362 27.1802ZM38.7722 12.1798L35.0802 11.9711C33.9285 11.906 32.9501 12.9609 32.8952 14.3268L32.7296 18.4465L40.5929 18.891L40.7584 14.7713C40.8133 13.4054 39.9242 12.2453 38.7722 12.1798Z" fill="white"/>
<path d="M32.8014 56.4393H39.6137C40.8676 56.4393 41.8845 55.5947 41.8845 54.5533V48.8952C41.8845 47.8538 40.8676 47.0092 39.6137 47.0092H32.8014C31.5475 47.0092 30.5307 47.8538 30.5307 48.8952V54.5533C30.5307 55.5947 31.5475 56.4393 32.8014 56.4393ZM44.1553 53.1388L50.1693 53.1388C50.8434 54.5203 52.4691 55.4963 54.3737 55.4963C56.8815 55.4963 58.9153 53.8077 58.9153 51.7242C58.9153 49.6408 56.8815 47.9522 54.3737 47.9522C52.4691 47.9522 50.8434 48.9282 50.1693 50.3097L44.5115 50.3097C48.4406 48.3931 51.3139 45.1633 52.2846 41.3511H48.7791C47.9773 43.8035 46.1699 45.9017 43.738 47.3369C44.0006 47.8131 44.1553 48.3383 44.1553 48.8952V53.1388ZM47.5614 39.4651H54.3737C55.6276 39.4651 56.6445 38.6205 56.6445 37.5791V31.921C56.6445 30.8796 55.6276 30.035 54.3737 30.035L47.5614 30.035C46.3075 30.035 45.2907 30.8796 45.2907 31.921L45.2907 37.5791C45.2907 38.6205 46.3075 39.4651 47.5614 39.4651ZM18.0414 55.4963C19.946 55.4963 21.5718 54.5203 22.2459 53.1388L28.2599 53.1388V48.8952C28.2599 48.3383 28.4153 47.8131 28.6772 47.3369C26.2453 45.9017 24.4379 43.8035 23.636 41.3511H20.1305C21.1013 45.1633 23.9745 48.3931 27.9037 50.3097L22.2459 50.3097C21.5718 48.9282 19.946 47.9522 18.0414 47.9522C15.5337 47.9522 13.4999 49.6408 13.4999 51.7242C13.4999 53.8077 15.5337 55.4963 18.0414 55.4963ZM18.0414 39.4651H24.8537C26.1076 39.4651 27.1245 38.6205 27.1245 37.5791V31.921C27.1245 30.8796 26.1076 30.035 24.8537 30.035H18.0414C16.7875 30.035 15.7707 30.8796 15.7707 31.921V37.5791C15.7707 38.6205 16.7875 39.4651 18.0414 39.4651Z" fill="white"/>
</svg>
