<svg width="40" height="40" viewBox="0 0 40 40" fill="none" xmlns="http://www.w3.org/2000/svg">
<path d="M28.1611 11.7412C26.1152 9.69043 23.3906 8.5625 20.4951 8.5625C14.5186 8.5625 9.65527 13.4258 9.65527 19.4023C9.65527 21.3115 10.1533 23.1768 11.1006 24.8223L9.5625 30.4375L15.3096 28.9287C16.8916 29.793 18.6738 30.2471 20.4902 30.2471H20.4951C26.4668 30.2471 31.4375 25.3838 31.4375 19.4072C31.4375 16.5117 30.207 13.792 28.1611 11.7412V11.7412ZM20.4951 28.4209C18.874 28.4209 17.2871 27.9863 15.9053 27.166L15.5781 26.9707L12.1699 27.8643L13.0781 24.5391L12.8633 24.1973C11.96 22.7617 11.4863 21.1064 11.4863 19.4023C11.4863 14.4365 15.5293 10.3936 20.5 10.3936C22.9072 10.3936 25.168 11.3311 26.8672 13.0352C28.5664 14.7393 29.6113 17 29.6064 19.4072C29.6064 24.3779 25.4609 28.4209 20.4951 28.4209V28.4209ZM25.4365 21.6729C25.168 21.5361 23.835 20.8818 23.5859 20.7939C23.3369 20.7012 23.1563 20.6572 22.9756 20.9307C22.7949 21.2041 22.2773 21.8096 22.1162 21.9951C21.96 22.1758 21.7988 22.2002 21.5303 22.0635C19.9385 21.2676 18.8936 20.6426 17.8438 18.8408C17.5654 18.3623 18.1221 18.3965 18.6396 17.3613C18.7275 17.1807 18.6836 17.0244 18.6152 16.8877C18.5469 16.751 18.0049 15.418 17.7803 14.876C17.5605 14.3486 17.3359 14.4219 17.1699 14.4121C17.0137 14.4023 16.833 14.4023 16.6523 14.4023C16.4717 14.4023 16.1787 14.4707 15.9297 14.7393C15.6807 15.0127 14.9824 15.667 14.9824 17C14.9824 18.333 15.9541 19.6221 16.0859 19.8027C16.2227 19.9834 17.9951 22.7178 20.7148 23.8945C22.4336 24.6367 23.1074 24.7002 23.9668 24.5732C24.4893 24.4951 25.5684 23.9189 25.793 23.2842C26.0176 22.6494 26.0176 22.1074 25.9492 21.9951C25.8857 21.873 25.7051 21.8047 25.4365 21.6729Z" fill="white"/>
<rect x="1" y="1" width="38" height="38" rx="19" stroke="white" stroke-width="2"/>
</svg>
