<svg width="100" height="100" viewBox="0 0 100 100" fill="none" xmlns="http://www.w3.org/2000/svg">
<path d="M6.24994 37.9167C6.24994 26.8323 6.24994 21.2901 8.4071 17.0564C10.3046 13.3324 13.3323 10.3047 17.0564 8.40716C21.29 6.25 26.8322 6.25 37.9166 6.25H62.0833C73.1677 6.25 78.7098 6.25 82.9435 8.40716C86.6675 10.3047 89.6953 13.3324 91.5928 17.0564C93.75 21.2901 93.7499 26.8323 93.7499 37.9167V62.0833C93.7499 73.1677 93.75 78.7099 91.5928 82.9436C89.6953 86.6676 86.6675 89.6954 82.9435 91.5928C78.7098 93.75 73.1677 93.75 62.0833 93.75H37.9166C26.8322 93.75 21.29 93.75 17.0564 91.5928C13.3323 89.6954 10.3046 86.6676 8.4071 82.9436C6.24994 78.7099 6.24994 73.1677 6.24994 62.0833V37.9167Z" fill="#470137"/>
<path d="M52.0202 31.9806L41.1023 50.463L52.7832 70.0892C53.026 70.5342 52.7832 70.6324 52.4311 70.6324H44.096C43.5089 70.6324 43.0981 70.6112 42.8632 70.2095C42.08 68.6443 41.2973 67.0891 40.5154 65.5439C39.7321 63.9992 38.9005 62.4239 38.0208 60.8179C37.1403 59.2132 36.2696 57.5877 35.4087 55.9414C34.6254 57.5472 33.7547 59.1526 32.9139 60.7577C32.0721 62.3634 31.2406 63.9588 30.4194 65.5439C29.5976 67.1298 28.7563 68.7051 27.8954 70.2698C27.7386 70.631 27.4642 70.6683 27.0735 70.6683H19.032C18.716 70.6683 18.6779 70.4307 18.8559 70.1494L30.1845 51.065L19.1493 31.9204C18.9489 31.6473 19.1214 31.3561 19.4429 31.3786H27.7192C28.0775 31.3583 28.3942 31.4936 28.5996 31.8001C29.3041 33.4057 30.0867 35.0111 30.9475 36.6163C31.8079 38.222 32.6786 39.8074 33.5596 41.3723C34.4401 42.9376 35.3108 44.5229 36.0544 46.1284C36.8366 44.4831 37.629 42.8777 38.4316 41.3122C39.2333 39.7469 40.055 38.1715 40.8968 36.5862C41.738 35.0011 42.55 33.4258 43.3329 31.8602C43.4369 31.5168 43.6855 31.3428 44.0373 31.3786H51.7266C52.0202 31.3786 52.1416 31.7793 52.0202 31.9806Z" fill="#FF61F6"/>
<path d="M68.866 71.4141C63.6894 71.4949 58.2672 69.3636 55.5416 64.6413C54.2107 62.3742 53.5455 59.5346 53.5458 56.1225C53.5237 53.3595 54.2121 50.6392 55.5416 48.2359C58.9718 42.1041 65.8824 39.8067 72.4465 40.4096V28.5496C72.4465 28.2692 72.564 28.1282 72.7988 28.1282H80.1946C80.3967 28.0985 80.5757 28.282 80.5469 28.4893V64.0693C80.5469 65.5373 80.6924 67.0001 80.7817 68.4641C80.7961 68.7142 80.6514 68.9615 80.4294 69.0662C76.7751 70.6293 72.8212 71.396 68.866 71.4141ZM72.4465 63.9489V47.5135C67.0854 46.0239 61.8802 50.1075 61.8809 55.7613C61.7536 61.6066 66.7923 65.645 72.4465 63.9489Z" fill="#FF61F6"/>
</svg>
