<svg width="25" height="25" viewBox="0 0 25 25" fill="none" xmlns="http://www.w3.org/2000/svg">
<path d="M12.8333 24.8316C6.14386 24.8316 0.723938 19.4117 0.723938 12.7222C0.723938 6.03278 6.14386 0.612854 12.8333 0.612854C19.5228 0.612854 24.9427 6.03278 24.9427 12.7222C24.9427 19.4117 19.5228 24.8316 12.8333 24.8316ZM18.4974 10.5738H12.8333V7.11188C12.8333 6.58942 12.1985 6.32574 11.8323 6.69684L6.25128 12.3072C6.02179 12.5367 6.02179 12.9029 6.25128 13.1324L11.8323 18.7427C12.2034 19.1138 12.8333 18.8502 12.8333 18.3277V14.8707H18.4974C18.8196 14.8707 19.0833 14.607 19.0833 14.2847V11.1597C19.0833 10.8375 18.8196 10.5738 18.4974 10.5738Z" fill="black"/>
</svg>
