<svg width="100" height="100" viewBox="0 0 100 100" fill="none" xmlns="http://www.w3.org/2000/svg">
<circle cx="50" cy="50" r="43.75" fill="#105DFB"/>
<path fill-rule="evenodd" clip-rule="evenodd" d="M21.4873 68.6233V30.4482H39.135C44.8035 30.4482 49.3987 35.0435 49.3987 40.7119C49.3987 44.314 48.2911 46.5453 44.2299 48.8343C49.0897 51.0486 50.4394 54.1176 50.4394 58.3983C50.4394 64.1892 45.295 68.6233 39.5042 68.6233H21.4873ZM28.9551 36.7675V45.9472H37.6953C37.6953 45.9472 41.9433 45.9472 41.9433 41.3573C41.9433 36.7675 37.6953 36.7675 37.6953 36.7675H28.9551ZM28.9551 62.1581V52.246H38.3301C39.8437 52.246 43.0176 53.0272 43.0176 57.7147C43.0176 61.1913 39.8926 62.1256 38.3301 62.1581H28.9551Z" fill="white"/>
<path fill-rule="evenodd" clip-rule="evenodd" d="M66.4062 40.9667C61.0351 40.9667 53.0761 44.8241 53.0761 55.078C53.0761 61.3218 56.4941 69.3358 66.748 69.3358C74.9511 69.3358 78.7272 63.3137 79.5898 60.3026H71.875C71.4843 61.6698 69.9707 63.1835 66.748 63.1835C62.0605 63.1835 60.4004 59.1796 60.1562 57.1776H79.5898V55.078C79.5898 44.8241 71.7773 40.9667 66.4062 40.9667ZM66.4062 46.8261C62.0312 46.8261 60.4166 50.4394 60.1562 52.246H71.875C71.875 50.4394 70.7812 46.8261 66.4062 46.8261Z" fill="white"/>
<path d="M57.0801 32.6171V37.3534H75.4883V32.6171H57.0801Z" fill="white"/>
</svg>
