<svg width="33" height="35" viewBox="0 0 33 35" fill="none" xmlns="http://www.w3.org/2000/svg">
<path d="M28.2866 22.7301L22.8179 20.3863C22.5843 20.2868 22.3246 20.2658 22.078 20.3266C21.8315 20.3873 21.6113 20.5265 21.4507 20.7233L19.0288 23.6822C15.2279 21.8901 12.169 18.8313 10.377 15.0304L13.3359 12.6085C13.533 12.4482 13.6726 12.228 13.7333 11.9813C13.7941 11.7346 13.7729 11.4749 13.6729 11.2413L11.3291 5.77257C11.2193 5.52081 11.0251 5.31527 10.78 5.19137C10.5348 5.06747 10.2542 5.03298 9.98633 5.09386L4.9082 6.26573C4.64998 6.32536 4.4196 6.47075 4.25466 6.67817C4.08971 6.8856 3.99994 7.14281 4 7.40782C4 19.9322 14.1514 30.0641 26.6562 30.0641C26.9213 30.0642 27.1787 29.9745 27.3862 29.8096C27.5937 29.6446 27.7392 29.4142 27.7988 29.1559L28.9707 24.0777C29.0312 23.8086 28.996 23.5268 28.8711 23.2808C28.7463 23.0349 28.5396 22.8401 28.2866 22.7301Z" fill="#D4AF37"/>
<rect y="0.0645142" width="33" height="34.0645" rx="10.6452" fill="#D4AF37" fill-opacity="0.15"/>
</svg>
