<svg width="100" height="100" viewBox="0 0 100 100" fill="none" xmlns="http://www.w3.org/2000/svg">
<path d="M91.3749 28.1666L77.3332 84.5417C76.3332 88.7501 72.5833 91.6666 68.2499 91.6666H13.4999C7.20822 91.6666 2.70829 85.4997 4.58329 79.458L22.1249 23.1251C23.3333 19.2085 26.9583 16.4998 31.0416 16.4998H82.2916C86.2499 16.4998 89.5416 18.9164 90.9166 22.2498C91.7083 24.0414 91.8749 26.0833 91.3749 28.1666Z" stroke="#D4AF37" stroke-width="4" stroke-miterlimit="10"/>
<path d="M66.6667 91.6667H86.5834C91.9584 91.6667 96.1666 87.125 95.7916 81.75L91.6667 25" stroke="#D4AF37" stroke-width="4" stroke-miterlimit="10" stroke-linecap="round" stroke-linejoin="round"/>
<path d="M40.3333 26.5833L44.6667 8.5835" stroke="#D4AF37" stroke-width="4" stroke-miterlimit="10" stroke-linecap="round" stroke-linejoin="round"/>
<path d="M68.25 26.6252L72.1667 8.54199" stroke="#D4AF37" stroke-width="4" stroke-miterlimit="10" stroke-linecap="round" stroke-linejoin="round"/>
<path d="M32.0834 50H65.4167" stroke="#D4AF37" stroke-width="4" stroke-miterlimit="10" stroke-linecap="round" stroke-linejoin="round"/>
<path d="M27.9167 66.6667H61.2501" stroke="#D4AF37" stroke-width="4" stroke-miterlimit="10" stroke-linecap="round" stroke-linejoin="round"/>
</svg>
