<svg width="20" height="20" viewBox="0 0 20 20" fill="none" xmlns="http://www.w3.org/2000/svg">
<path d="M19.2188 9.60938C19.2188 14.9178 14.9178 19.2188 9.60938 19.2188C4.30097 19.2188 0 14.9178 0 9.60938C0 4.30097 4.30097 0 9.60938 0C14.9178 0 19.2188 4.30097 19.2188 9.60938ZM13.6546 8.48957L10.8493 11.415V4.33972C10.8493 3.82438 10.4347 3.40978 9.91935 3.40978H9.29939C8.78405 3.40978 8.36946 3.82438 8.36946 4.33972V11.415L5.56414 8.48957C5.20379 8.11372 4.6032 8.10597 4.2351 8.47407L3.81275 8.9003C3.44853 9.26452 3.44853 9.85348 3.81275 10.2138L8.95067 15.3556C9.31489 15.7199 9.90386 15.7199 10.2642 15.3556L15.406 10.2138C15.7702 9.84961 15.7702 9.26065 15.406 8.9003L14.9837 8.47407C14.6155 8.10597 14.015 8.11372 13.6546 8.48957Z" fill="#D4AF37"/>
</svg>
