<svg width="100" height="100" viewBox="0 0 100 100" fill="none" xmlns="http://www.w3.org/2000/svg">
<path d="M50 32.875L45.5417 40.625C44.5417 42.3333 45.375 43.75 47.3333 43.75H52.625C54.625 43.75 55.4167 45.1667 54.4167 46.875L50 54.625" stroke="#D4AF37" stroke-width="4" stroke-linecap="round" stroke-linejoin="round"/>
<path d="M34.5833 75.1667V70.3334C25 64.5417 17.125 53.2501 17.125 41.2501C17.125 20.6251 36.0833 4.45841 57.5 9.12508C66.9167 11.2084 75.1667 17.4584 79.4583 26.0834C88.1667 43.5834 79 62.1667 65.5417 70.2917V75.1251C65.5417 76.3334 66 79.1251 61.5417 79.1251H38.5833C34 79.1667 34.5833 77.3751 34.5833 75.1667Z" stroke="#D4AF37" stroke-width="4" stroke-linecap="round" stroke-linejoin="round"/>
<path d="M35.4167 91.6667C44.9584 88.9584 55.0417 88.9584 64.5834 91.6667" stroke="#D4AF37" stroke-width="4" stroke-linecap="round" stroke-linejoin="round"/>
</svg>
