<svg width="72" height="72" viewBox="0 0 72 72" fill="none" xmlns="http://www.w3.org/2000/svg">
<circle cx="36" cy="36" r="36" fill="#D4AF37"/>
<path d="M24.4471 37.3223L34.8323 26.9386L31.4277 23.534L26.668 28.2937C26.6112 28.3506 26.5438 28.3957 26.4696 28.4265C26.3954 28.4572 26.3158 28.4731 26.2355 28.4731C26.1551 28.4731 26.0756 28.4572 26.0014 28.4265C25.9271 28.3957 25.8597 28.3506 25.803 28.2937L24.9379 27.4286C24.6987 27.1894 24.6987 26.802 24.9379 26.5636L29.6976 21.8039L27.1017 19.2072C26.1456 18.2511 24.5961 18.2511 23.64 19.2072L16.7173 26.1299C15.7619 27.086 15.7612 28.6355 16.7173 29.5916L24.4471 37.3223ZM54.4243 28.3091C55.872 26.8615 55.8712 24.5148 54.4243 23.0672L50.9325 19.5753C49.4848 18.1277 47.1374 18.1277 45.689 19.5753L42.1377 23.1258L50.8731 31.8611L54.4243 28.3091ZM40.3914 24.8729L17.4727 47.7885L16.0251 56.0793C15.8299 57.1975 16.8037 58.1713 17.9226 57.9746L26.2143 56.5207L49.1268 33.6074L40.3914 24.8729ZM54.7932 46.8987L52.1973 44.3028L47.4376 49.0625C47.1984 49.3017 46.811 49.3017 46.5725 49.0625L45.7075 48.1975C45.4691 47.9582 45.4691 47.5709 45.7075 47.3324L50.4672 42.5727L47.061 39.1666L36.6758 49.5502L44.4088 57.2824C45.3649 58.2385 46.9144 58.2385 47.8705 57.2824L54.7932 50.3605C55.7493 49.4044 55.7493 47.8548 54.7932 46.8987Z" fill="white"/>
</svg>
