<svg width="100" height="100" viewBox="0 0 100 100" fill="none" xmlns="http://www.w3.org/2000/svg">
<rect x="6.25" y="6.25" width="87.5" height="87.5" fill="#FFCA28"/>
<path d="M59.375 79.0239L65.8173 74.7611C66.3221 76.3473 69.5192 80.1144 73.5577 80.1144C77.5962 80.1144 79.4712 77.9087 79.4712 76.4464C79.4712 72.4614 75.3474 71.0564 73.3668 70.3816C73.0439 70.2716 72.778 70.181 72.5962 70.1017C72.5029 70.0611 72.3619 70.0073 72.1809 69.9381C69.978 69.0965 61.851 65.9915 61.851 56.9911C61.851 47.0775 71.4183 45.9375 73.5817 45.9375C74.9972 45.9375 81.8029 46.111 85.1923 52.4804L78.9423 56.8424C77.5721 54.0666 75.2956 53.1496 73.8942 53.1496C70.4327 53.1496 69.7115 55.6873 69.7115 56.8424C69.7115 60.0837 73.4724 61.5365 76.6479 62.7632C77.4787 63.0841 78.2695 63.3895 78.9423 63.7075C82.4038 65.3433 87.5 68.0199 87.5 76.4464C87.5 80.667 83.96 87.5 75.0481 87.5C63.0769 87.5 59.9038 80.3127 59.375 79.0239Z" fill="#3E3E3E"/>
<path d="M28.125 79.8704L34.8396 75.6098C35.3658 77.1951 37.4102 80.1182 40.3767 80.1182C43.3431 80.1182 44.8614 77.0713 44.8614 75.6098V46.875H53.1194V75.6098C53.253 79.5732 51.0549 87.5 41.3538 87.5C32.4344 87.5 28.7263 82.199 28.125 79.8704Z" fill="#3E3E3E"/>
</svg>
