<svg width="1021" height="200" viewBox="0 0 1021 200" fill="none" xmlns="http://www.w3.org/2000/svg">
<circle cx="923" cy="98" r="97" fill="white" stroke="black"/>
<circle cx="923" cy="98" r="84" fill="#6F6F6F" stroke="#D4AF37" stroke-width="4"/>
<path d="M887.497 98.5944C884.818 98.5944 882.421 97.9434 880.308 96.6414C878.213 95.3205 876.562 93.4053 875.355 90.8956C874.147 88.386 873.543 85.348 873.543 81.7817V76.2341C873.543 71.8752 874.194 68.2145 875.496 65.252C876.817 62.2707 878.628 60.0158 880.93 58.4873C883.251 56.9589 885.912 56.1947 888.912 56.1947C890.309 56.1947 891.696 56.3551 893.073 56.6759C894.469 56.9966 895.62 57.4023 896.526 57.8929L895.451 62.0537C894.564 61.6197 893.592 61.2706 892.535 61.0064C891.479 60.7234 890.271 60.5818 888.912 60.5818C886.025 60.5818 883.723 61.6763 882.006 63.8651C880.308 66.0351 879.402 69.3184 879.289 73.715L879.402 73.8282C880.459 72.847 881.751 72.0733 883.28 71.5073C884.808 70.9223 886.459 70.6298 888.233 70.6298C890.686 70.6298 892.818 71.2148 894.63 72.3847C896.441 73.5357 897.838 75.1302 898.819 77.1681C899.819 79.206 900.319 81.527 900.319 84.1309C900.319 86.9802 899.791 89.4899 898.734 91.6599C897.677 93.8298 896.186 95.5281 894.262 96.7546C892.337 97.9811 890.082 98.5944 887.497 98.5944ZM887.497 94.2355C889.78 94.2355 891.554 93.2732 892.818 91.3485C894.101 89.405 894.743 86.9991 894.743 84.1309C894.743 81.4137 894.054 79.1777 892.677 77.4228C891.318 75.668 889.431 74.7905 887.016 74.7905C885.11 74.7905 883.487 75.1774 882.148 75.951C880.808 76.7058 879.789 77.7248 879.091 79.0079V82.3195C879.091 86.15 879.883 89.0936 881.468 91.1504C883.072 93.2072 885.082 94.2355 887.497 94.2355ZM919.056 98.5944C915.018 98.5944 911.82 97.1886 909.461 94.3771C907.102 91.5655 905.923 87.5369 905.923 82.2912V72.5262C905.923 67.2805 907.093 63.2519 909.433 60.4403C911.773 57.6099 914.962 56.1947 919 56.1947C923.057 56.1947 926.264 57.6099 928.623 60.4403C930.982 63.2519 932.161 67.2805 932.161 72.5262V82.2912C932.161 87.5557 930.991 91.5938 928.651 94.4054C926.312 97.198 923.113 98.5944 919.056 98.5944ZM919.056 94.2355C924.076 94.2355 926.585 90.6315 926.585 83.4233V71.3374C926.585 64.167 924.057 60.5818 919 60.5818C916.565 60.5818 914.707 61.4876 913.424 63.299C912.141 65.0916 911.499 67.7711 911.499 71.3374V83.4233C911.499 86.9897 912.15 89.688 913.452 91.5183C914.754 93.3298 916.622 94.2355 919.056 94.2355ZM946.285 75.3566C943.7 75.3566 941.624 74.5452 940.058 72.9225C938.511 71.2997 937.737 69.2901 937.737 66.8937V64.7143C937.737 62.3178 938.511 60.2988 940.058 58.6572C941.605 57.0155 943.662 56.1947 946.228 56.1947C948.832 56.1947 950.908 57.0155 952.455 58.6572C954.003 60.2799 954.776 62.299 954.776 64.7143V66.8937C954.776 69.2901 954.003 71.2997 952.455 72.9225C950.908 74.5452 948.851 75.3566 946.285 75.3566ZM946.285 71.9035C947.662 71.9035 948.728 71.4223 949.483 70.46C950.257 69.4977 950.644 68.3089 950.644 66.8937V64.7143C950.644 63.3179 950.257 62.1291 949.483 61.1479C948.71 60.1478 947.625 59.6478 946.228 59.6478C944.832 59.6478 943.756 60.1478 943.002 61.1479C942.247 62.1291 941.869 63.3179 941.869 64.7143V66.8937C941.869 68.29 942.247 69.4788 943.002 70.46C943.775 71.4223 944.87 71.9035 946.285 71.9035ZM947.502 94.8865L944.417 92.9902L964.541 60.78L967.626 62.6763L947.502 94.8865ZM966.239 98.5944C963.635 98.5944 961.56 97.783 960.012 96.1602C958.465 94.5375 957.691 92.5184 957.691 90.1031V87.8954C957.691 86.3104 958.041 84.8763 958.739 83.5932C959.437 82.31 960.418 81.2911 961.682 80.5363C962.966 79.7815 964.466 79.4041 966.183 79.4041C968.768 79.4041 970.834 80.225 972.381 81.8666C973.948 83.4894 974.731 85.499 974.731 87.8954V90.1031C974.731 92.5184 973.957 94.5375 972.41 96.1602C970.862 97.783 968.806 98.5944 966.239 98.5944ZM966.239 95.1413C967.636 95.1413 968.711 94.6601 969.466 93.6978C970.221 92.7165 970.598 91.5183 970.598 90.1031V87.8954C970.598 86.4991 970.211 85.3103 969.438 84.3291C968.664 83.3479 967.579 82.8572 966.183 82.8572C964.786 82.8572 963.711 83.3479 962.956 84.3291C962.201 85.3103 961.824 86.4991 961.824 87.8954V90.1031C961.824 91.5183 962.201 92.7165 962.956 93.6978C963.73 94.6601 964.824 95.1413 966.239 95.1413Z" fill="#D4AF37"/>
<path d="M890.41 136.254C889.339 136.254 888.308 136.097 887.318 135.783C886.327 135.469 885.381 134.985 884.479 134.333V130.576H886.327L886.726 133.343C887.249 133.665 887.817 133.914 888.429 134.091C889.041 134.269 889.701 134.357 890.41 134.357C891.61 134.357 892.54 134.091 893.2 133.56C893.861 133.02 894.191 132.316 894.191 131.446C894.191 130.641 893.893 129.972 893.297 129.441C892.701 128.909 891.638 128.471 890.108 128.124C888.288 127.706 886.899 127.069 885.941 126.216C884.982 125.354 884.503 124.271 884.503 122.966C884.503 122.048 884.745 121.227 885.228 120.502C885.719 119.778 886.4 119.206 887.269 118.787C888.139 118.368 889.154 118.159 890.313 118.159C891.546 118.159 892.633 118.348 893.575 118.727C894.525 119.097 895.306 119.548 895.918 120.079V123.595H894.07L893.671 121.082C893.309 120.792 892.858 120.551 892.319 120.357C891.779 120.164 891.111 120.067 890.313 120.067C889.291 120.067 888.461 120.329 887.825 120.853C887.197 121.376 886.883 122.069 886.883 122.93C886.883 123.687 887.185 124.307 887.789 124.79C888.393 125.266 889.44 125.688 890.929 126.059C892.782 126.518 894.183 127.198 895.133 128.1C896.091 128.994 896.57 130.101 896.57 131.422C896.57 132.364 896.317 133.202 895.809 133.934C895.302 134.659 894.585 135.227 893.659 135.638C892.741 136.048 891.658 136.254 890.41 136.254ZM898.431 136V134.478L900.4 134.14V119.029L898.431 118.69V117.156H902.779V129.296L907.406 124.694L907.466 124.621L906.065 124.464V122.93H911.694V124.464L910.015 124.778L906.343 128.475L910.848 134.188L912.733 134.478V136H906.826V134.478L908.155 134.321L908.118 134.273L904.809 130.009L902.779 132.05V134.14L904.748 134.478V136H898.431ZM919.34 136.254C918.132 136.254 917.081 135.98 916.187 135.432C915.293 134.877 914.601 134.108 914.11 133.125C913.626 132.143 913.385 131.007 913.385 129.719V129.187C913.385 127.947 913.639 126.84 914.146 125.865C914.661 124.883 915.342 124.11 916.187 123.546C917.041 122.974 917.971 122.689 918.978 122.689C920.733 122.689 922.062 123.22 922.964 124.283C923.874 125.346 924.329 126.763 924.329 128.535V130.021H915.849L915.813 130.081C915.837 131.337 916.155 132.372 916.767 133.186C917.379 133.991 918.237 134.393 919.34 134.393C920.145 134.393 920.85 134.281 921.454 134.055C922.066 133.822 922.593 133.504 923.036 133.101L923.966 134.647C923.499 135.098 922.879 135.481 922.106 135.795C921.341 136.101 920.419 136.254 919.34 136.254ZM915.922 128.161H921.949V127.846C921.949 126.912 921.699 126.131 921.2 125.503C920.701 124.875 919.96 124.561 918.978 124.561C918.18 124.561 917.5 124.899 916.936 125.576C916.372 126.244 916.026 127.085 915.897 128.1L915.922 128.161ZM930.803 136.205C929.837 136.205 929.068 135.923 928.496 135.36C927.932 134.788 927.651 133.878 927.651 132.63V124.694H925.585V122.93H927.651V119.778H930.03V122.93H932.869V124.694H930.03V132.63C930.03 133.258 930.155 133.721 930.405 134.019C930.654 134.317 930.988 134.466 931.407 134.466C931.689 134.466 932.003 134.442 932.349 134.393C932.696 134.337 932.965 134.289 933.159 134.249L933.485 135.807C933.139 135.911 932.712 136.004 932.204 136.085C931.705 136.165 931.238 136.205 930.803 136.205ZM940.914 136.254C939.73 136.254 938.699 135.98 937.821 135.432C936.944 134.877 936.263 134.108 935.78 133.125C935.297 132.143 935.055 131.007 935.055 129.719V129.211C935.055 127.971 935.289 126.86 935.756 125.878C936.223 124.895 936.895 124.118 937.773 123.546C938.651 122.974 939.698 122.689 940.914 122.689C941.969 122.689 942.891 122.862 943.68 123.208C944.477 123.554 945.145 124.029 945.685 124.633L945.745 127.774H943.885L943.474 125.491C943.201 125.209 942.858 124.984 942.448 124.815C942.037 124.645 941.554 124.561 940.998 124.561C940.29 124.561 939.665 124.77 939.126 125.189C938.594 125.608 938.18 126.167 937.882 126.868C937.584 127.569 937.435 128.35 937.435 129.211V129.719C937.435 131.152 937.745 132.292 938.365 133.137C938.985 133.975 939.83 134.393 940.902 134.393C941.707 134.393 942.375 134.172 942.907 133.729C943.438 133.286 943.764 132.678 943.885 131.905H946.023L946.047 131.978C946.007 132.727 945.786 133.427 945.383 134.079C944.98 134.732 944.405 135.259 943.656 135.662C942.915 136.056 942.001 136.254 940.914 136.254ZM947.606 136V134.478L949.574 134.14V119.029L947.606 118.69V117.156H951.954V124.67C952.405 124.041 952.957 123.554 953.609 123.208C954.261 122.862 954.986 122.689 955.783 122.689C957.184 122.689 958.272 123.107 959.045 123.945C959.818 124.782 960.204 126.071 960.204 127.81V134.14L962.173 134.478V136H955.856V134.478L957.825 134.14V127.786C957.825 125.676 956.903 124.621 955.058 124.621C954.406 124.621 953.81 124.778 953.271 125.092C952.739 125.398 952.3 125.817 951.954 126.349V134.14L953.923 134.478V136H947.606Z" fill="white"/>
<circle cx="644" cy="102" r="97" fill="white" stroke="black"/>
<circle cx="644" cy="102" r="84" fill="#6F6F6F" stroke="#D4AF37" stroke-width="4"/>
<path d="M604.94 102.594C603.506 102.594 602.034 102.453 600.525 102.17C599.034 101.906 597.694 101.491 596.506 100.924L597.355 96.7071C598.506 97.2543 599.676 97.6506 600.864 97.8959C602.072 98.1223 603.431 98.2355 604.94 98.2355C607.62 98.2355 609.733 97.2166 611.28 95.1787C612.847 93.1219 613.658 89.8198 613.715 85.2722L613.601 85.1307C612.847 86.3949 611.79 87.3667 610.431 88.046C609.073 88.7253 607.544 89.065 605.846 89.065C601.827 89.065 598.657 87.829 596.336 85.3571C594.015 82.8664 592.854 79.3755 592.854 74.8846C592.854 72.0164 593.42 69.4785 594.553 67.2707C595.704 65.063 597.241 63.3365 599.166 62.0911C601.11 60.8268 603.261 60.1947 605.619 60.1947C609.922 60.1947 613.309 61.5439 615.781 64.2422C618.271 66.9217 619.517 70.8937 619.517 76.1583V83.6023C619.517 90.0368 618.187 94.8107 615.526 97.9242C612.884 101.038 609.356 102.594 604.94 102.594ZM605.846 84.6778C607.903 84.6778 609.61 84.2344 610.969 83.3475C612.346 82.4607 613.337 81.3285 613.941 79.951V75.5922C613.941 68.2519 611.224 64.5818 605.789 64.5818C604.412 64.5818 603.166 65.0253 602.053 65.9121C600.94 66.7801 600.053 67.9878 599.393 69.5351C598.751 71.0824 598.43 72.8655 598.43 74.8846C598.43 77.8471 599.091 80.2246 600.412 82.0172C601.732 83.791 603.544 84.6778 605.846 84.6778ZM639.698 102.594C635.66 102.594 632.461 101.189 630.103 98.3771C627.744 95.5655 626.565 91.5369 626.565 86.2912V76.5262C626.565 71.2805 627.735 67.2519 630.074 64.4403C632.414 61.6099 635.603 60.1947 639.641 60.1947C643.698 60.1947 646.906 61.6099 649.265 64.4403C651.623 67.2519 652.803 71.2805 652.803 76.5262V86.2912C652.803 91.5557 651.633 95.5938 649.293 98.4054C646.953 101.198 643.755 102.594 639.698 102.594ZM639.698 98.2355C644.717 98.2355 647.227 94.6315 647.227 87.4233V75.3374C647.227 68.167 644.698 64.5818 639.641 64.5818C637.207 64.5818 635.348 65.4876 634.065 67.299C632.782 69.0916 632.141 71.7711 632.141 75.3374V87.4233C632.141 90.9897 632.792 93.688 634.094 95.5183C635.396 97.3298 637.264 98.2355 639.698 98.2355ZM666.926 79.3566C664.341 79.3566 662.266 78.5452 660.699 76.9225C659.152 75.2997 658.379 73.2901 658.379 70.8937V68.7143C658.379 66.3178 659.152 64.2988 660.699 62.6572C662.247 61.0155 664.304 60.1947 666.87 60.1947C669.474 60.1947 671.549 61.0155 673.097 62.6572C674.644 64.2799 675.418 66.299 675.418 68.7143V70.8937C675.418 73.2901 674.644 75.2997 673.097 76.9225C671.549 78.5452 669.493 79.3566 666.926 79.3566ZM666.926 75.9035C668.304 75.9035 669.37 75.4223 670.125 74.46C670.898 73.4977 671.285 72.3089 671.285 70.8937V68.7143C671.285 67.3179 670.898 66.1291 670.125 65.1479C669.351 64.1478 668.266 63.6478 666.87 63.6478C665.473 63.6478 664.398 64.1478 663.643 65.1479C662.888 66.1291 662.511 67.3179 662.511 68.7143V70.8937C662.511 72.29 662.888 73.4788 663.643 74.46C664.417 75.4223 665.511 75.9035 666.926 75.9035ZM668.143 98.8865L665.058 96.9902L685.183 64.78L688.268 66.6763L668.143 98.8865ZM686.881 102.594C684.277 102.594 682.201 101.783 680.654 100.16C679.107 98.5375 678.333 96.5184 678.333 94.1031V91.8954C678.333 90.3104 678.682 88.8763 679.38 87.5932C680.078 86.31 681.06 85.2911 682.324 84.5363C683.607 83.7815 685.107 83.4041 686.824 83.4041C689.409 83.4041 691.476 84.225 693.023 85.8666C694.589 87.4894 695.372 89.499 695.372 91.8954V94.1031C695.372 96.5184 694.598 98.5375 693.051 100.16C691.504 101.783 689.447 102.594 686.881 102.594ZM686.881 99.1413C688.277 99.1413 689.353 98.6601 690.108 97.6978C690.862 96.7165 691.24 95.5183 691.24 94.1031V91.8954C691.24 90.4991 690.853 89.3103 690.079 88.3291C689.306 87.3479 688.221 86.8572 686.824 86.8572C685.428 86.8572 684.352 87.3479 683.598 88.3291C682.843 89.3103 682.465 90.4991 682.465 91.8954V94.1031C682.465 95.5183 682.843 96.7165 683.598 97.6978C684.371 98.6601 685.466 99.1413 686.881 99.1413Z" fill="#D4AF37"/>
<path d="M582.69 139.6V138.078L584.659 137.74V123.885L582.69 123.547V122.013H589.008V123.547L587.039 123.885V137.74L589.008 138.078V139.6H582.69ZM590.771 139.6V138.078L592.74 137.74V122.629L590.771 122.29V120.756H595.12V137.74L597.089 138.078V139.6H590.771ZM598.671 139.6V138.078L600.64 137.74V122.629L598.671 122.29V120.756H603.02V137.74L604.989 138.078V139.6H598.671ZM612.442 139.854C611.024 139.854 609.917 139.399 609.12 138.489C608.323 137.579 607.924 136.161 607.924 134.237V128.402L606.426 128.064V126.53H610.304V134.261C610.304 135.654 610.509 136.612 610.92 137.136C611.33 137.659 611.97 137.921 612.84 137.921C613.686 137.921 614.382 137.752 614.93 137.414C615.486 137.067 615.904 136.58 616.186 135.952V128.402L614.435 128.064V126.53H618.566V137.74L620.064 138.078V139.6H616.428L616.271 137.667C615.86 138.368 615.328 138.907 614.676 139.286C614.032 139.664 613.287 139.854 612.442 139.854ZM627.033 139.854C626.156 139.854 625.334 139.765 624.569 139.588C623.804 139.411 622.991 139.137 622.129 138.767L622.105 135.662H623.905L624.352 137.534C625.205 137.889 626.099 138.066 627.033 138.066C628 138.066 628.692 137.881 629.111 137.51C629.53 137.14 629.739 136.681 629.739 136.133C629.739 135.618 629.526 135.183 629.099 134.829C628.68 134.466 627.915 134.16 626.804 133.911C625.225 133.548 624.062 133.065 623.313 132.461C622.572 131.849 622.202 131.036 622.202 130.021C622.202 129.312 622.407 128.68 622.818 128.125C623.228 127.561 623.8 127.114 624.533 126.784C625.266 126.454 626.119 126.289 627.094 126.289C628.084 126.289 628.93 126.401 629.63 126.627C630.339 126.852 630.955 127.154 631.479 127.533L631.599 130.516H629.812L629.425 128.777C629.143 128.568 628.809 128.407 628.422 128.294C628.036 128.181 627.593 128.125 627.094 128.125C626.353 128.125 625.749 128.298 625.282 128.644C624.823 128.99 624.593 129.425 624.593 129.949C624.593 130.255 624.658 130.52 624.787 130.746C624.923 130.971 625.181 131.177 625.56 131.362C625.938 131.539 626.494 131.716 627.227 131.893C629.047 132.32 630.315 132.864 631.032 133.524C631.756 134.184 632.119 134.998 632.119 135.964C632.119 137.067 631.708 137.993 630.887 138.742C630.073 139.483 628.789 139.854 627.033 139.854ZM638.702 139.805C637.736 139.805 636.967 139.524 636.395 138.96C635.831 138.388 635.549 137.478 635.549 136.23V128.294H633.484V126.53H635.549V123.378H637.929V126.53H640.767V128.294H637.929V136.23C637.929 136.858 638.054 137.321 638.303 137.619C638.553 137.917 638.887 138.066 639.306 138.066C639.588 138.066 639.902 138.042 640.248 137.993C640.594 137.937 640.864 137.889 641.057 137.849L641.384 139.407C641.037 139.511 640.61 139.604 640.103 139.685C639.604 139.765 639.137 139.805 638.702 139.805ZM642.881 139.6V138.078L644.85 137.74V128.402L642.881 128.064V126.53H646.976L647.182 128.197L647.206 128.427C647.576 127.758 648.031 127.235 648.571 126.856C649.118 126.478 649.742 126.289 650.443 126.289C650.693 126.289 650.946 126.313 651.204 126.361C651.47 126.401 651.659 126.442 651.772 126.482L651.458 128.692L649.803 128.596C649.175 128.555 648.647 128.7 648.22 129.031C647.794 129.353 647.463 129.788 647.23 130.335V137.74L649.199 138.078V139.6H642.881ZM657.449 139.854C656.088 139.854 655.053 139.524 654.345 138.863C653.636 138.195 653.282 137.257 653.282 136.049C653.282 134.809 653.789 133.814 654.804 133.065C655.818 132.308 657.228 131.93 659.031 131.93H661.363V130.649C661.363 129.86 661.121 129.248 660.638 128.813C660.163 128.378 659.49 128.161 658.621 128.161C658.073 128.161 657.598 128.229 657.195 128.366C656.793 128.495 656.426 128.676 656.096 128.91L655.842 130.734H654.006V127.738C655.19 126.772 656.74 126.289 658.657 126.289C660.243 126.289 661.488 126.667 662.389 127.424C663.291 128.181 663.742 129.264 663.742 130.673V136.967C663.742 137.136 663.742 137.301 663.742 137.462C663.75 137.623 663.762 137.784 663.779 137.945L665.047 138.078V139.6H661.628C661.492 138.94 661.407 138.34 661.375 137.8C660.916 138.388 660.34 138.879 659.647 139.274C658.963 139.66 658.23 139.854 657.449 139.854ZM657.799 137.861C658.588 137.861 659.309 137.671 659.962 137.293C660.614 136.914 661.081 136.459 661.363 135.928V133.56H658.947C657.852 133.56 657.03 133.822 656.483 134.346C655.935 134.869 655.661 135.453 655.661 136.097C655.661 137.273 656.374 137.861 657.799 137.861ZM671.509 139.805C670.543 139.805 669.774 139.524 669.202 138.96C668.638 138.388 668.357 137.478 668.357 136.23V128.294H666.291V126.53H668.357V123.378H670.736V126.53H673.575V128.294H670.736V136.23C670.736 136.858 670.861 137.321 671.111 137.619C671.36 137.917 671.695 138.066 672.113 138.066C672.395 138.066 672.709 138.042 673.055 137.993C673.402 137.937 673.672 137.889 673.865 137.849L674.191 139.407C673.845 139.511 673.418 139.604 672.911 139.685C672.411 139.765 671.944 139.805 671.509 139.805ZM680.327 139.805C679.361 139.805 678.592 139.524 678.02 138.96C677.456 138.388 677.175 137.478 677.175 136.23V128.294H675.109V126.53H677.175V123.378H679.554V126.53H682.393V128.294H679.554V136.23C679.554 136.858 679.679 137.321 679.929 137.619C680.178 137.917 680.512 138.066 680.931 138.066C681.213 138.066 681.527 138.042 681.873 137.993C682.22 137.937 682.489 137.889 682.683 137.849L683.009 139.407C682.663 139.511 682.236 139.604 681.728 139.685C681.229 139.765 680.762 139.805 680.327 139.805ZM690.196 139.854C688.988 139.854 687.945 139.572 687.067 139.008C686.198 138.436 685.525 137.651 685.05 136.653C684.575 135.646 684.338 134.499 684.338 133.21V132.944C684.338 131.656 684.575 130.512 685.05 129.514C685.525 128.507 686.198 127.718 687.067 127.146C687.945 126.574 688.98 126.289 690.172 126.289C691.38 126.289 692.419 126.574 693.288 127.146C694.166 127.718 694.842 128.503 695.318 129.502C695.793 130.5 696.03 131.648 696.03 132.944V133.21C696.03 134.507 695.793 135.658 695.318 136.665C694.842 137.663 694.17 138.444 693.3 139.008C692.431 139.572 691.396 139.854 690.196 139.854ZM690.196 137.993C691.323 137.993 692.181 137.542 692.769 136.641C693.357 135.739 693.651 134.595 693.651 133.21V132.944C693.651 132.026 693.518 131.209 693.252 130.492C692.994 129.767 692.608 129.2 692.092 128.789C691.577 128.37 690.937 128.161 690.172 128.161C689.415 128.161 688.779 128.37 688.263 128.789C687.748 129.2 687.361 129.767 687.104 130.492C686.846 131.209 686.717 132.026 686.717 132.944V133.21C686.717 134.595 687.007 135.739 687.587 136.641C688.175 137.542 689.044 137.993 690.196 137.993ZM697.842 139.6V138.078L699.811 137.74V128.402L697.842 128.064V126.53H701.937L702.142 128.197L702.167 128.427C702.537 127.758 702.992 127.235 703.532 126.856C704.079 126.478 704.703 126.289 705.404 126.289C705.653 126.289 705.907 126.313 706.165 126.361C706.431 126.401 706.62 126.442 706.733 126.482L706.418 128.692L704.764 128.596C704.135 128.555 703.608 128.7 703.181 129.031C702.754 129.353 702.424 129.788 702.191 130.335V137.74L704.16 138.078V139.6H697.842Z" fill="white"/>
<circle cx="370" cy="98" r="97" fill="white" stroke="black"/>
<circle cx="370" cy="98" r="84" fill="#6F6F6F" stroke="#D4AF37" stroke-width="4"/>
<path d="M330.657 102.594C329.223 102.594 327.751 102.453 326.242 102.17C324.751 101.906 323.411 101.491 322.222 100.924L323.072 96.7071C324.223 97.2543 325.393 97.6506 326.581 97.8959C327.789 98.1223 329.148 98.2355 330.657 98.2355C333.337 98.2355 335.45 97.2166 336.997 95.1787C338.563 93.1219 339.375 89.8198 339.431 85.2722L339.318 85.1307C338.563 86.3949 337.507 87.3667 336.148 88.046C334.79 88.7253 333.261 89.065 331.563 89.065C327.544 89.065 324.374 87.829 322.053 85.3571C319.732 82.8664 318.571 79.3755 318.571 74.8846C318.571 72.0164 319.137 69.4785 320.27 67.2707C321.421 65.063 322.958 63.3365 324.883 62.0911C326.827 60.8268 328.978 60.1947 331.336 60.1947C335.639 60.1947 339.026 61.5439 341.498 64.2422C343.988 66.9217 345.234 70.8937 345.234 76.1583V83.6023C345.234 90.0368 343.904 94.8107 341.243 97.9242C338.601 101.038 335.073 102.594 330.657 102.594ZM331.563 84.6778C333.62 84.6778 335.327 84.2344 336.686 83.3475C338.063 82.4607 339.054 81.3285 339.658 79.951V75.5922C339.658 68.2519 336.941 64.5818 331.506 64.5818C330.129 64.5818 328.883 65.0253 327.77 65.9121C326.657 66.7801 325.77 67.9878 325.11 69.5351C324.468 71.0824 324.147 72.8655 324.147 74.8846C324.147 77.8471 324.808 80.2246 326.128 82.0172C327.449 83.791 329.261 84.6778 331.563 84.6778ZM364.537 102V98.4337L369.151 97.6412V92.4898H350.64V89.348L368.811 60.7891H374.699V88.1309H380.388V92.4898H374.699V97.6412L379.312 98.4337V102H364.537ZM356.584 88.1309H369.151V68.7426L368.981 68.6859L368.415 70.1861L356.584 88.1309ZM393.209 79.3566C390.624 79.3566 388.549 78.5452 386.983 76.9225C385.435 75.2997 384.662 73.2901 384.662 70.8937V68.7143C384.662 66.3178 385.435 64.2988 386.983 62.6572C388.53 61.0155 390.587 60.1947 393.153 60.1947C395.757 60.1947 397.832 61.0155 399.38 62.6572C400.927 64.2799 401.701 66.299 401.701 68.7143V70.8937C401.701 73.2901 400.927 75.2997 399.38 76.9225C397.832 78.5452 395.776 79.3566 393.209 79.3566ZM393.209 75.9035C394.587 75.9035 395.653 75.4223 396.408 74.46C397.181 73.4977 397.568 72.3089 397.568 70.8937V68.7143C397.568 67.3179 397.181 66.1291 396.408 65.1479C395.634 64.1478 394.549 63.6478 393.153 63.6478C391.757 63.6478 390.681 64.1478 389.926 65.1479C389.171 66.1291 388.794 67.3179 388.794 68.7143V70.8937C388.794 72.29 389.171 73.4788 389.926 74.46C390.7 75.4223 391.794 75.9035 393.209 75.9035ZM394.427 98.8865L391.341 96.9902L411.466 64.78L414.551 66.6763L394.427 98.8865ZM413.164 102.594C410.56 102.594 408.484 101.783 406.937 100.16C405.39 98.5375 404.616 96.5184 404.616 94.1031V91.8954C404.616 90.3104 404.965 88.8763 405.663 87.5932C406.361 86.31 407.343 85.2911 408.607 84.5363C409.89 83.7815 411.39 83.4041 413.107 83.4041C415.692 83.4041 417.759 84.225 419.306 85.8666C420.872 87.4894 421.655 89.499 421.655 91.8954V94.1031C421.655 96.5184 420.882 98.5375 419.334 100.16C417.787 101.783 415.73 102.594 413.164 102.594ZM413.164 99.1413C414.56 99.1413 415.636 98.6601 416.391 97.6978C417.145 96.7165 417.523 95.5183 417.523 94.1031V91.8954C417.523 90.4991 417.136 89.3103 416.362 88.3291C415.589 87.3479 414.504 86.8572 413.107 86.8572C411.711 86.8572 410.635 87.3479 409.881 88.3291C409.126 89.3103 408.748 90.4991 408.748 91.8954V94.1031C408.748 95.5183 409.126 96.7165 409.881 97.6978C410.654 98.6601 411.749 99.1413 413.164 99.1413Z" fill="#D4AF37"/>
<path d="M309.025 140V138.355L310.435 138.159L317.079 120.994H319.286L325.813 138.159L327.209 138.355V140H321.753V138.355L323.189 138.107L321.935 134.609H314.325L313.033 138.107L314.469 138.355V140H309.025ZM315.121 132.455H321.152L318.359 124.727L318.202 124.296H318.124L317.967 124.727L315.121 132.455ZM334.258 140.274C333.11 140.274 332.122 139.991 331.295 139.426C330.477 138.851 329.851 138.055 329.415 137.037C328.98 136.019 328.763 134.831 328.763 133.473V133.199C328.763 131.685 328.98 130.358 329.415 129.217C329.851 128.077 330.481 127.194 331.308 126.568C332.135 125.932 333.127 125.615 334.284 125.615C335.12 125.615 335.855 125.771 336.491 126.085C337.135 126.389 337.683 126.833 338.135 127.416V121.659L336.008 121.294V119.636H340.707V137.99L342.835 138.355V140H338.475L338.266 138.316C337.326 139.621 335.99 140.274 334.258 140.274ZM334.911 138.186C335.677 138.186 336.321 138.011 336.843 137.663C337.365 137.315 337.796 136.824 338.135 136.188V129.635C337.805 129.043 337.374 128.573 336.843 128.225C336.312 127.877 335.677 127.703 334.937 127.703C333.71 127.703 332.801 128.212 332.209 129.231C331.626 130.249 331.334 131.572 331.334 133.199V133.473C331.334 134.892 331.626 136.032 332.209 136.893C332.792 137.755 333.693 138.186 334.911 138.186ZM350.915 140.274C349.61 140.274 348.483 139.97 347.534 139.36C346.594 138.742 345.868 137.894 345.354 136.815C344.841 135.727 344.584 134.487 344.584 133.094V132.807C344.584 131.415 344.841 130.179 345.354 129.1C345.868 128.012 346.594 127.159 347.534 126.541C348.483 125.924 349.601 125.615 350.889 125.615C352.194 125.615 353.317 125.924 354.257 126.541C355.206 127.159 355.937 128.008 356.45 129.087C356.963 130.166 357.22 131.406 357.22 132.807V133.094C357.22 134.496 356.963 135.74 356.45 136.828C355.937 137.907 355.21 138.751 354.27 139.36C353.33 139.97 352.212 140.274 350.915 140.274ZM350.915 138.264C352.134 138.264 353.06 137.776 353.696 136.802C354.331 135.827 354.649 134.591 354.649 133.094V132.807C354.649 131.815 354.505 130.932 354.218 130.157C353.939 129.374 353.522 128.761 352.965 128.317C352.408 127.864 351.716 127.638 350.889 127.638C350.071 127.638 349.384 127.864 348.827 128.317C348.27 128.761 347.852 129.374 347.573 130.157C347.295 130.932 347.156 131.815 347.156 132.807V133.094C347.156 134.591 347.469 135.827 348.096 136.802C348.731 137.776 349.671 138.264 350.915 138.264ZM366.71 140.274C364.892 140.274 363.525 139.578 362.611 138.186L362.377 140H360.157V121.659L358.03 121.294V119.636H362.729V127.547C363.173 126.92 363.721 126.441 364.374 126.111C365.035 125.78 365.805 125.615 366.684 125.615C367.85 125.615 368.843 125.932 369.661 126.568C370.487 127.194 371.118 128.077 371.553 129.217C371.997 130.358 372.219 131.685 372.219 133.199V133.473C372.219 134.831 371.997 136.019 371.553 137.037C371.118 138.055 370.487 138.851 369.661 139.426C368.843 139.991 367.859 140.274 366.71 140.274ZM366.058 138.186C367.267 138.186 368.164 137.755 368.747 136.893C369.339 136.032 369.634 134.892 369.634 133.473V133.199C369.634 131.572 369.339 130.249 368.747 129.231C368.155 128.212 367.25 127.703 366.032 127.703C365.24 127.703 364.57 127.895 364.021 128.278C363.482 128.661 363.051 129.174 362.729 129.818V136.058C363.051 136.71 363.486 137.228 364.034 137.611C364.591 137.994 365.266 138.186 366.058 138.186ZM381.122 140.274C379.817 140.274 378.681 139.978 377.715 139.386C376.749 138.786 376 137.955 375.47 136.893C374.947 135.831 374.686 134.604 374.686 133.212V132.638C374.686 131.297 374.96 130.101 375.509 129.048C376.066 127.986 376.801 127.151 377.715 126.541C378.637 125.924 379.642 125.615 380.73 125.615C382.627 125.615 384.063 126.189 385.038 127.338C386.022 128.486 386.513 130.018 386.513 131.933V133.538H377.349L377.31 133.604C377.336 134.961 377.68 136.079 378.341 136.958C379.003 137.829 379.93 138.264 381.122 138.264C381.992 138.264 382.754 138.142 383.406 137.898C384.068 137.646 384.638 137.302 385.116 136.867L386.122 138.538C385.617 139.025 384.947 139.439 384.111 139.778C383.285 140.109 382.288 140.274 381.122 140.274ZM377.428 131.528H383.942V131.189C383.942 130.179 383.672 129.335 383.132 128.656C382.593 127.977 381.792 127.638 380.73 127.638C379.869 127.638 379.133 128.003 378.524 128.734C377.915 129.457 377.541 130.366 377.402 131.463L377.428 131.528ZM395.259 140V138.355L396.904 138.068L402.791 130.353L397.335 122.939L395.677 122.651V120.994H401.838V122.651L400.05 122.821L404.253 128.682L408.248 122.821L406.42 122.651V120.994H412.621V122.651L410.885 122.939L405.729 130.353L411.446 138.068L413.13 138.355V140H406.89V138.355L408.731 138.186L404.227 132.011L399.737 138.186L401.473 138.355V140H395.259ZM415.245 140V138.355L417.373 137.99V123.017L415.245 122.651V120.994H422.686C424.365 120.994 425.827 121.394 427.072 122.194C428.325 122.995 429.3 124.096 429.996 125.497C430.692 126.898 431.04 128.5 431.04 130.301V130.706C431.04 132.464 430.705 134.047 430.035 135.457C429.365 136.858 428.412 137.968 427.176 138.786C425.949 139.595 424.496 140 422.816 140H415.245ZM419.944 137.99H422.686C423.887 137.99 424.918 137.663 425.779 137.011C426.641 136.349 427.302 135.47 427.764 134.374C428.233 133.269 428.468 132.046 428.468 130.706V130.275C428.468 128.891 428.233 127.655 427.764 126.568C427.302 125.471 426.641 124.605 425.779 123.97C424.918 123.335 423.887 123.017 422.686 123.017H419.944V137.99Z" fill="white"/>
<circle cx="98" cy="102" r="97" fill="white" stroke="black"/>
<circle cx="98" cy="102" r="84" fill="#6F6F6F" stroke="#D4AF37" stroke-width="4"/>
<path d="M59.1383 98.5944C57.7042 98.5944 56.2324 98.4529 54.7229 98.1698C53.2322 97.9057 51.8924 97.4905 50.7037 96.9244L51.5528 92.7071C52.7038 93.2543 53.8737 93.6506 55.0625 93.8959C56.2702 94.1223 57.6288 94.2355 59.1383 94.2355C61.8178 94.2355 63.9312 93.2166 65.4785 91.1787C67.0446 89.1219 67.856 85.8198 67.9126 81.2722L67.7994 81.1307C67.0446 82.3949 65.9879 83.3667 64.6293 84.046C63.2707 84.7253 61.7423 85.065 60.0441 85.065C56.0249 85.065 52.8548 83.829 50.5338 81.3571C48.2129 78.8664 47.0524 75.3755 47.0524 70.8846C47.0524 68.0164 47.6185 65.4785 48.7507 63.2707C49.9017 61.063 51.4396 59.3365 53.3643 58.0911C55.3078 56.8268 57.4589 56.1947 59.8176 56.1947C64.1199 56.1947 67.5069 57.5439 69.9788 60.2422C72.4696 62.9217 73.715 66.8937 73.715 72.1583V79.6023C73.715 86.0368 72.3847 90.8107 69.7241 93.9242C67.0824 97.0377 63.5538 98.5944 59.1383 98.5944ZM60.0441 80.6778C62.1008 80.6778 63.8085 80.2344 65.1671 79.3475C66.5446 78.4607 67.5352 77.3285 68.1391 75.951V71.5922C68.1391 64.2519 65.4219 60.5818 59.9874 60.5818C58.61 60.5818 57.3646 61.0253 56.2513 61.9121C55.138 62.7801 54.2511 63.9878 53.5907 65.5351C52.9491 67.0824 52.6284 68.8655 52.6284 70.8846C52.6284 73.8471 53.2888 76.2246 54.6097 78.0172C55.9305 79.791 57.742 80.6778 60.0441 80.6778ZM91.8014 98.5944C90.3673 98.5944 88.8955 98.4529 87.3859 98.1698C85.8952 97.9057 84.5555 97.4905 83.3667 96.9244L84.2159 92.7071C85.3669 93.2543 86.5368 93.6506 87.7256 93.8959C88.9332 94.1223 90.2918 94.2355 91.8014 94.2355C94.4808 94.2355 96.5942 93.2166 98.1415 91.1787C99.7077 89.1219 100.519 85.8198 100.576 81.2722L100.462 81.1307C99.7077 82.3949 98.651 83.3667 97.2924 84.046C95.9338 84.7253 94.4054 85.065 92.7071 85.065C88.6879 85.065 85.5178 83.829 83.1969 81.3571C80.876 78.8664 79.7155 75.3755 79.7155 70.8846C79.7155 68.0164 80.2816 65.4785 81.4137 63.2707C82.5648 61.063 84.1026 59.3365 86.0273 58.0911C87.9709 56.8268 90.122 56.1947 92.4807 56.1947C96.7829 56.1947 100.17 57.5439 102.642 60.2422C105.133 62.9217 106.378 66.8937 106.378 72.1583V79.6023C106.378 86.0368 105.048 90.8107 102.387 93.9242C99.7454 97.0377 96.2168 98.5944 91.8014 98.5944ZM92.7071 80.6778C94.7639 80.6778 96.4716 80.2344 97.8302 79.3475C99.2076 78.4607 100.198 77.3285 100.802 75.951V71.5922C100.802 64.2519 98.0849 60.5818 92.6505 60.5818C91.273 60.5818 90.0276 61.0253 88.9143 61.9121C87.8011 62.7801 86.9142 63.9878 86.2538 65.5351C85.6122 67.0824 85.2914 68.8655 85.2914 70.8846C85.2914 73.8471 85.9518 76.2246 87.2727 78.0172C88.5936 79.791 90.405 80.6778 92.7071 80.6778ZM120.728 75.3566C118.143 75.3566 116.068 74.5452 114.501 72.9225C112.954 71.2997 112.18 69.2901 112.18 66.8937V64.7143C112.18 62.3178 112.954 60.2988 114.501 58.6572C116.049 57.0155 118.105 56.1947 120.672 56.1947C123.276 56.1947 125.351 57.0155 126.899 58.6572C128.446 60.2799 129.22 62.299 129.22 64.7143V66.8937C129.22 69.2901 128.446 71.2997 126.899 72.9225C125.351 74.5452 123.295 75.3566 120.728 75.3566ZM120.728 71.9035C122.106 71.9035 123.172 71.4223 123.927 70.46C124.7 69.4977 125.087 68.3089 125.087 66.8937V64.7143C125.087 63.3179 124.7 62.1291 123.927 61.1479C123.153 60.1478 122.068 59.6478 120.672 59.6478C119.275 59.6478 118.2 60.1478 117.445 61.1479C116.69 62.1291 116.313 63.3179 116.313 64.7143V66.8937C116.313 68.29 116.69 69.4788 117.445 70.46C118.219 71.4223 119.313 71.9035 120.728 71.9035ZM121.945 94.8865L118.86 92.9902L138.984 60.78L142.07 62.6763L121.945 94.8865ZM140.683 98.5944C138.079 98.5944 136.003 97.783 134.456 96.1602C132.909 94.5375 132.135 92.5184 132.135 90.1031V87.8954C132.135 86.3104 132.484 84.8763 133.182 83.5932C133.88 82.31 134.862 81.2911 136.126 80.5363C137.409 79.7815 138.909 79.4041 140.626 79.4041C143.211 79.4041 145.277 80.225 146.825 81.8666C148.391 83.4894 149.174 85.499 149.174 87.8954V90.1031C149.174 92.5184 148.4 94.5375 146.853 96.1602C145.306 97.783 143.249 98.5944 140.683 98.5944ZM140.683 95.1413C142.079 95.1413 143.155 94.6601 143.909 93.6978C144.664 92.7165 145.042 91.5183 145.042 90.1031V87.8954C145.042 86.4991 144.655 85.3103 143.881 84.3291C143.107 83.3479 142.022 82.8572 140.626 82.8572C139.23 82.8572 138.154 83.3479 137.399 84.3291C136.645 85.3103 136.267 86.4991 136.267 87.8954V90.1031C136.267 91.5183 136.645 92.7165 137.399 93.6978C138.173 94.6601 139.268 95.1413 140.683 95.1413Z" fill="#D4AF37"/>
<path d="M47.5018 140V137.758L50.4018 137.26V116.854L47.5018 116.355V114.096H66.9832V120.323H64.1722L63.7808 116.818H53.9066V125.785H63.3894V128.542H53.9066V137.26L56.8066 137.758V140H47.5018ZM69.5985 140V137.758L72.4985 137.26V123.508L69.5985 123.009V120.75H76.0033V137.26L78.9033 137.758V140H69.5985ZM72.3206 116V112.246H76.0033V116H72.3206ZM89.7737 147.775C88.8486 147.775 87.8464 147.644 86.767 147.383C85.6877 147.134 84.7388 146.79 83.9204 146.351L84.8278 143.629C85.4801 143.973 86.2511 144.258 87.1406 144.483C88.0302 144.709 88.896 144.821 89.7382 144.821C91.3038 144.821 92.4484 144.383 93.1719 143.505C93.9072 142.627 94.2749 141.376 94.2749 139.751V137.918C92.994 139.555 91.2326 140.374 88.9909 140.374C87.4253 140.374 86.0732 139.988 84.9345 139.217C83.7959 138.434 82.9182 137.349 82.3014 135.961C81.6965 134.562 81.3941 132.943 81.3941 131.104V130.731C81.3941 128.667 81.6965 126.858 82.3014 125.304C82.9182 123.751 83.7959 122.547 84.9345 121.693C86.0732 120.827 87.4372 120.394 89.0265 120.394C91.4105 120.394 93.2371 121.319 94.5062 123.17L94.8264 120.75H100.164V122.992L97.7798 123.508V139.751C97.7798 142.242 97.0859 144.199 95.6982 145.622C94.3105 147.057 92.3357 147.775 89.7737 147.775ZM89.8627 137.527C90.9183 137.527 91.8019 137.29 92.5136 136.815C93.2252 136.329 93.8123 135.647 94.2749 134.769V125.909C93.8242 125.091 93.2371 124.445 92.5136 123.97C91.7901 123.484 90.9183 123.241 89.8983 123.241C88.2259 123.241 86.9746 123.94 86.1443 125.34C85.3141 126.74 84.8989 128.537 84.8989 130.731V131.104C84.8989 133.038 85.3081 134.591 86.1265 135.766C86.9449 136.94 88.1903 137.527 89.8627 137.527ZM101.925 140V137.758L104.825 137.26V123.508L101.925 123.009V120.75H107.974L108.205 123.258C108.822 122.345 109.617 121.639 110.589 121.141C111.562 120.643 112.689 120.394 113.97 120.394C115.251 120.394 116.348 120.691 117.261 121.284C118.186 121.877 118.88 122.766 119.343 123.952C119.948 122.861 120.748 121.995 121.745 121.355C122.741 120.714 123.903 120.394 125.232 120.394C127.201 120.394 128.754 121.07 129.893 122.422C131.032 123.763 131.601 125.785 131.601 128.489V137.26L134.501 137.758V140H125.178V137.758L128.078 137.26V128.454C128.078 126.556 127.752 125.215 127.1 124.433C126.447 123.638 125.481 123.241 124.2 123.241C122.978 123.241 121.994 123.674 121.246 124.539C120.511 125.393 120.084 126.473 119.965 127.777V137.26L122.865 137.758V140H113.561V137.758L116.461 137.26V128.454C116.461 126.651 116.123 125.334 115.446 124.504C114.782 123.662 113.816 123.241 112.546 123.241C111.479 123.241 110.601 123.46 109.913 123.899C109.225 124.338 108.698 124.955 108.33 125.749V137.26L111.23 137.758V140H101.925ZM143.343 140.374C141.339 140.374 139.815 139.887 138.771 138.915C137.727 137.93 137.205 136.549 137.205 134.769C137.205 132.943 137.952 131.478 139.447 130.375C140.941 129.26 143.017 128.703 145.674 128.703H149.107V126.817C149.107 125.654 148.752 124.753 148.04 124.112C147.34 123.472 146.35 123.152 145.069 123.152C144.262 123.152 143.563 123.253 142.969 123.454C142.376 123.644 141.837 123.911 141.35 124.255L140.977 126.941H138.273V122.529C140.016 121.106 142.299 120.394 145.122 120.394C147.459 120.394 149.291 120.952 150.62 122.066C151.948 123.181 152.612 124.777 152.612 126.852V136.122C152.612 136.371 152.612 136.614 152.612 136.851C152.624 137.088 152.642 137.325 152.666 137.563L154.534 137.758V140H149.499C149.297 139.027 149.173 138.144 149.125 137.349C148.449 138.215 147.601 138.938 146.581 139.52C145.573 140.089 144.494 140.374 143.343 140.374ZM143.859 137.438C145.021 137.438 146.083 137.159 147.044 136.602C148.004 136.044 148.692 135.374 149.107 134.591V131.104H145.549C143.936 131.104 142.726 131.49 141.92 132.261C141.113 133.032 140.71 133.892 140.71 134.841C140.71 136.572 141.76 137.438 143.859 137.438Z" fill="white"/>
</svg>
