<svg width="33" height="35" viewBox="0 0 33 35" fill="none" xmlns="http://www.w3.org/2000/svg">
<path d="M15.4115 29.5601C8.31689 19.275 7 18.2194 7 14.4395C7 9.26183 11.1973 5.06451 16.375 5.06451C21.5527 5.06451 25.75 9.26183 25.75 14.4395C25.75 18.2194 24.4331 19.275 17.3385 29.5601C16.8729 30.2327 15.877 30.2326 15.4115 29.5601ZM16.375 18.3458C18.5324 18.3458 20.2812 16.5969 20.2812 14.4395C20.2812 12.2821 18.5324 10.5333 16.375 10.5333C14.2176 10.5333 12.4687 12.2821 12.4687 14.4395C12.4687 16.5969 14.2176 18.3458 16.375 18.3458Z" fill="#D4AF37"/>
<rect width="33" height="34.0645" rx="10.6452" fill="#D4AF37" fill-opacity="0.15"/>
</svg>
