<svg width="33" height="35" viewBox="0 0 33 35" fill="none" xmlns="http://www.w3.org/2000/svg">
<path d="M12.5938 14.547H20.4062C20.8379 14.547 21.1875 14.1974 21.1875 13.7658V12.9845C21.1875 12.5529 20.8379 12.2033 20.4062 12.2033H12.5938C12.1621 12.2033 11.8125 12.5529 11.8125 12.9845V13.7658C11.8125 14.1974 12.1621 14.547 12.5938 14.547ZM11.8125 18.4533C11.8125 18.8849 12.1621 19.2345 12.5938 19.2345H20.4062C20.8379 19.2345 21.1875 18.8849 21.1875 18.4533V17.672C21.1875 17.2404 20.8379 16.8908 20.4062 16.8908H12.5938C12.1621 16.8908 11.8125 17.2404 11.8125 17.672V18.4533ZM16.5 24.3678C15.6982 24.3678 14.8965 24.1208 14.2119 23.6261L4 16.2492V26.6564C4 27.9508 5.04932 29.0002 6.34375 29.0002H26.6562C27.9507 29.0002 29 27.9508 29 26.6564V16.2492L18.7881 23.6261C18.1035 24.1203 17.3018 24.3678 16.5 24.3678ZM28.1021 11.9567C27.6699 11.6178 27.2603 11.299 26.6562 10.8429V8.68765C26.6562 7.39322 25.6069 6.3439 24.3125 6.3439H20.5259C20.3774 6.23648 20.2393 6.13589 20.0845 6.02359C19.2637 5.42447 17.6328 3.98306 16.5 4.00015C15.3672 3.98306 13.7368 5.42447 12.9155 6.02359C12.7607 6.13589 12.6226 6.23648 12.4741 6.3439H8.6875C7.39307 6.3439 6.34375 7.39322 6.34375 8.68765V10.8429C5.73975 11.2985 5.33008 11.6178 4.89795 11.9567C4.61824 12.1759 4.39205 12.4558 4.23648 12.7754C4.08091 13.0949 4.00005 13.4456 4 13.8009V14.321L8.6875 17.7072V8.68765H24.3125V17.7072L29 14.321V13.8009C29 13.0812 28.6689 12.401 28.1021 11.9567Z" fill="#D4AF37"/>
<rect width="33" height="34.0645" rx="10.6452" fill="#D4AF37" fill-opacity="0.15"/>
</svg>
