<svg width="72" height="72" viewBox="0 0 72 72" fill="none" xmlns="http://www.w3.org/2000/svg">
<circle cx="36" cy="36" r="36" fill="#D4AF37"/>
<path d="M45.6629 17.4896H28.0973C26.0192 17.4896 24.3333 19.1756 24.3333 21.2536V53.8755C24.3333 55.9536 26.0192 57.6396 28.0973 57.6396H45.6629C47.741 57.6396 49.427 55.9536 49.427 53.8755V21.2536C49.427 19.1756 47.741 17.4896 45.6629 17.4896ZM36.8801 55.1302C35.4921 55.1302 34.3708 54.0088 34.3708 52.6208C34.3708 51.2328 35.4921 50.1115 36.8801 50.1115C38.2681 50.1115 39.3895 51.2328 39.3895 52.6208C39.3895 54.0088 38.2681 55.1302 36.8801 55.1302ZM45.6629 46.6611C45.6629 47.1786 45.2395 47.6021 44.7219 47.6021H29.0383C28.5208 47.6021 28.0973 47.1786 28.0973 46.6611V22.1947C28.0973 21.6771 28.5208 21.2536 29.0383 21.2536H44.7219C45.2395 21.2536 45.6629 21.6771 45.6629 22.1947V46.6611Z" fill="white"/>
</svg>
