<svg width="419" height="524" viewBox="0 0 419 524" fill="none" xmlns="http://www.w3.org/2000/svg">
<rect y="6.88501" width="412.115" height="516.373" rx="5" fill="#D4AF37"/>
<rect x="6.88477" width="412.115" height="516.373" rx="5" fill="#260043"/>
<path d="M212.107 478.998C313.497 478.998 395.691 474.199 395.691 468.279C395.691 462.36 313.497 457.561 212.107 457.561C110.717 457.561 28.5234 462.36 28.5234 468.279C28.5234 474.199 110.717 478.998 212.107 478.998Z" fill="#F5F5F5"/>
<path d="M337.137 426.978C337.137 426.978 329.79 418.248 325.093 422.32C320.397 426.391 322.774 435.036 328.19 435.32C331.402 435.493 334.572 434.524 337.137 432.583V426.978Z" fill="#D4AF37"/>
<path opacity="0.2" d="M337.137 426.978C337.137 426.978 329.79 418.248 325.093 422.32C320.397 426.391 322.774 435.036 328.19 435.32C331.402 435.493 334.572 434.524 337.137 432.583V426.978Z" fill="white"/>
<path d="M367.086 404.822C367.086 404.822 373.25 398.365 377.066 399.463C380.881 400.561 380.493 415.985 368.648 409.736L367.086 404.822Z" fill="#D4AF37"/>
<path opacity="0.3" d="M367.086 404.822C367.086 404.822 373.25 398.365 377.066 399.463C380.881 400.561 380.493 415.985 368.648 409.736L367.086 404.822Z" fill="white"/>
<path d="M345.062 453.007C345.062 453.007 324.8 425.293 341.275 419.678C357.75 414.063 360.657 441.976 355.961 449.75C351.264 457.523 345.062 453.007 345.062 453.007Z" fill="#D4AF37"/>
<path d="M354.455 396.263C354.455 396.263 367.029 367.081 348.414 366.2C329.8 365.32 327.764 395.136 349.191 399.463L354.455 396.263Z" fill="#D4AF37"/>
<path opacity="0.3" d="M345.062 453.007C345.062 453.007 324.8 425.293 341.275 419.678C357.75 414.063 360.657 441.976 355.961 449.75C351.264 457.523 345.062 453.007 345.062 453.007Z" fill="white"/>
<path opacity="0.3" d="M354.455 396.263C354.455 396.263 367.029 367.081 348.414 366.2C329.8 365.32 327.764 395.136 349.191 399.463L354.455 396.263Z" fill="white"/>
<path d="M349.996 420.151C349.996 420.151 343.888 394.388 355.677 392.333C367.465 390.278 379.016 413.561 354.73 425.264C354.673 425.264 350.507 422.679 349.996 420.151Z" fill="#D4AF37"/>
<path opacity="0.2" d="M349.996 420.151C349.996 420.151 343.888 394.388 355.677 392.333C367.465 390.278 379.016 413.561 354.73 425.264C354.673 425.264 350.507 422.679 349.996 420.151Z" fill="white"/>
<path d="M330.481 449.077H364.492L361.652 470.845H333.322L330.481 449.077Z" fill="#263238"/>
<path d="M348.168 394.198C341.162 389.076 336.304 379.172 340.442 370.83C340.272 371.606 340.063 372.449 339.874 373.226C338.492 381.132 342.828 388.678 348.168 394.198V394.198Z" fill="#D4AF37"/>
<path d="M343.718 369.135C351.794 370.773 355.364 379.342 354.427 386.889C354.247 387.959 354.095 389.01 353.877 390.061C353.983 387.946 353.961 385.828 353.811 383.717C353.309 377.496 349.882 371.408 343.718 369.135V369.135Z" fill="#D4AF37"/>
<path d="M357.92 394.198C362.456 395.798 365.296 400.779 365.306 405.494C365.306 409.603 363.033 413.334 360.496 416.402C358.646 418.629 356.532 420.623 354.199 422.338C356.259 420.362 358.159 418.225 359.88 415.947C361.992 413.107 363.848 410.029 364.312 406.526C364.709 401.659 362.333 396.471 357.873 394.217L357.92 394.198Z" fill="#D4AF37"/>
<path d="M354.455 396.262C355.667 400.05 356.746 404.547 354.777 408.259C353.129 410.664 352.959 413.807 352.883 416.676C352.883 417.68 352.883 418.674 352.949 419.678C352.466 417.712 352.246 415.69 352.296 413.665C352.264 411.58 352.832 409.529 353.934 407.757C355.752 404.292 354.881 400.002 354.417 396.262H354.455Z" fill="#D4AF37"/>
<path d="M346.198 422.32C350.932 424.753 352.826 441.095 352.646 446.237C352.504 445.195 352.343 444.163 352.144 443.131C351.245 437.98 350.308 432.811 348.944 427.764C348.31 425.87 347.903 423.541 346.198 422.32V422.32Z" fill="#D4AF37"/>
<path d="M340.442 423.219C339.301 426.929 339.127 430.869 339.936 434.665C340.744 438.461 342.509 441.988 345.063 444.911C344.311 444.267 343.6 443.578 342.932 442.847C340.644 440.177 339.189 436.895 338.747 433.406C338.304 429.918 338.893 426.376 340.442 423.219V423.219Z" fill="#D4AF37"/>
<path d="M371.867 407.965C374.026 407.388 375.863 406.867 377.435 405.276C377.046 407.691 373.979 408.827 371.867 407.965Z" fill="#D4AF37"/>
<path d="M370.608 403.714C371.622 401.65 375.087 400.362 376.555 402.606C374.481 401.707 372.464 402.833 370.608 403.714Z" fill="#D4AF37"/>
<path d="M333.786 428.285C331.419 426.618 328.967 423.778 325.908 425.264C328.398 422.31 332.583 425.615 333.786 428.285Z" fill="#D4AF37"/>
<path d="M333.786 432.583C330.69 433.72 324.507 433.805 324.128 429.478C325.899 433.01 330.415 432.233 333.786 432.583Z" fill="#D4AF37"/>
<path d="M274.267 451.956C274.429 451.626 274.51 451.262 274.5 450.894C274.491 450.527 274.393 450.167 274.214 449.846C274.036 449.524 273.782 449.251 273.474 449.05C273.167 448.848 272.815 448.725 272.449 448.689C272.763 447.752 272.783 446.741 272.507 445.792C272.232 444.843 271.673 444 270.906 443.377C270.723 443.202 270.486 443.095 270.233 443.074C269.966 443.103 269.714 443.216 269.514 443.396L265.262 446.454C264.917 446.661 264.625 446.947 264.41 447.288C263.539 448.973 266.683 451.132 265.357 452.524C264.988 452.931 264.41 453.007 263.927 453.3C262.914 453.935 262.791 455.326 262.318 456.425C261.844 457.523 260.197 458.366 259.562 457.372C260.036 456.321 258.616 455.412 257.479 455.279C256.343 455.146 255.141 455.08 254.516 454.01C252.887 455.431 249.261 451.473 249.337 449.882C248.697 449.997 248.11 450.309 247.657 450.774C247.203 451.239 246.907 451.834 246.808 452.476C246.624 453.793 246.576 455.126 246.666 456.453C246.666 459.038 245.795 461.566 245.843 464.151C245.843 466.158 246.657 468.383 248.494 469.198C249.404 469.522 250.371 469.651 251.334 469.576L272.288 469.444C272.793 469.483 273.3 469.398 273.765 469.198C274.712 468.705 274.911 467.465 274.996 466.404C275.362 461.853 275.738 457.302 276.123 452.751L274.267 451.956Z" fill="#D4AF37"/>
<path opacity="0.3" d="M274.267 451.956C274.429 451.626 274.51 451.262 274.5 450.894C274.491 450.527 274.393 450.167 274.214 449.846C274.036 449.524 273.782 449.251 273.474 449.05C273.167 448.848 272.815 448.725 272.449 448.689C272.763 447.752 272.783 446.741 272.507 445.792C272.232 444.843 271.673 444 270.906 443.377C270.723 443.202 270.486 443.095 270.233 443.074C269.966 443.103 269.714 443.216 269.514 443.396L265.262 446.454C264.917 446.661 264.625 446.947 264.41 447.288C263.539 448.973 266.683 451.132 265.357 452.524C264.988 452.931 264.41 453.007 263.927 453.3C262.914 453.935 262.791 455.326 262.318 456.425C261.844 457.523 260.197 458.366 259.562 457.372C260.036 456.321 258.616 455.412 257.479 455.279C256.343 455.146 255.141 455.08 254.516 454.01C252.887 455.431 249.261 451.473 249.337 449.882C248.697 449.997 248.11 450.309 247.657 450.774C247.203 451.239 246.907 451.834 246.808 452.476C246.624 453.793 246.576 455.126 246.666 456.453C246.666 459.038 245.795 461.566 245.843 464.151C245.843 466.158 246.657 468.383 248.494 469.198C249.404 469.522 250.371 469.651 251.334 469.576L272.288 469.444C272.793 469.483 273.3 469.398 273.765 469.198C274.712 468.705 274.911 467.465 274.996 466.404C275.362 461.853 275.738 457.302 276.123 452.751L274.267 451.956Z" fill="white"/>
<path d="M275.545 429.762H242.983L243.249 433.047L243.447 435.395L243.94 441.493L244.224 445.006L244.593 449.664L244.754 451.672L244.811 452.268L245 454.616L245.265 457.845L245.426 459.843L245.587 461.879L245.777 464.227L245.928 466.007L246.089 468.005L246.155 468.876H275.99L276.057 468.005L276.218 466.016L276.369 464.217L276.559 461.869L276.719 459.843L276.88 457.845L277.146 454.607L277.335 452.268L277.382 451.672L277.543 449.664L277.922 445.006L278.206 441.503L278.698 435.395L278.888 433.047L279.153 429.762H275.545ZM277.496 431.921L276.871 431.286H277.553L277.496 431.921ZM277.335 433.909L277.278 434.704L274.362 437.611L271.029 434.278L274.011 431.286H274.712L277.335 433.909ZM276.492 444.324L274.362 446.455L271.029 443.112L274.362 439.789L276.672 442.09L276.492 444.324ZM245.559 442.09L247.869 439.789L251.202 443.112L247.869 446.455L245.748 444.324L245.559 442.09ZM273.245 438.7L269.864 442.033L266.569 438.7L269.902 435.367L273.245 438.7ZM267.971 431.286H271.758L269.864 433.18L267.971 431.286ZM268.804 443.103L265.471 446.445L262.129 443.103L265.471 439.779L268.804 443.103ZM257.716 447.525L261.059 444.192L264.382 447.525L261.059 450.857L257.716 447.525ZM259.97 451.937L256.608 455.279L253.323 451.956L256.656 448.613L259.97 451.937ZM265.471 448.604L268.823 451.956L265.49 455.289L262.148 451.956L265.471 448.604ZM261.059 442.033L257.735 438.7L261.078 435.367L264.401 438.7L261.059 442.033ZM259.97 443.103L256.637 446.445L253.304 443.103L256.637 439.779L259.97 443.103ZM252.215 442.033L248.901 438.7L252.234 435.367L255.576 438.7L252.215 442.033ZM252.215 444.192L255.558 447.525L252.215 450.857L248.882 447.525L252.215 444.192ZM255.558 456.359L252.215 459.691L248.882 456.359L252.215 453.026L255.558 456.359ZM256.627 457.438L259.97 460.771L256.637 464.113L253.304 460.771L256.627 457.438ZM257.716 456.359L261.059 453.026L264.382 456.359L261.059 459.691L257.716 456.359ZM265.471 457.438L268.804 460.771L265.471 464.113L262.129 460.771L265.471 457.438ZM269.883 461.85L273.226 465.193L271.057 467.351H268.728L266.569 465.212L269.883 461.85ZM266.55 456.359L269.883 453.026L273.226 456.359L269.864 459.691L266.55 456.359ZM266.55 447.525L269.864 444.192L273.207 447.525L269.864 450.857L266.55 447.525ZM268.804 434.269L265.471 437.602L262.129 434.269L265.121 431.277H265.821L268.804 434.269ZM261.059 433.189L259.165 431.296H262.952L261.059 433.189ZM259.97 434.269L256.637 437.602L253.304 434.269L256.287 431.277H256.987L259.97 434.269ZM254.128 431.277L252.234 433.17L250.34 431.277H254.128ZM248.153 431.277L251.136 434.269L247.803 437.602L244.896 434.695L244.839 433.899L247.453 431.277H248.153ZM245.313 431.277L244.697 431.902L244.64 431.277H245.313ZM245.104 437.052L246.742 438.681L245.351 440.073L245.104 437.052ZM246.051 448.235L245.928 446.653L246.78 447.515L246.051 448.235ZM246.212 450.251L247.86 448.594L251.193 451.937L247.86 455.27L246.515 453.925L246.212 450.251ZM246.714 456.415V456.273L246.79 456.349L246.723 456.415H246.714ZM247.292 463.526L246.875 458.413L247.822 457.466L251.155 460.799L247.822 464.132L247.254 463.564L247.292 463.526ZM247.595 467.314L247.538 466.547L247.86 466.225L248.939 467.314H247.595ZM248.939 465.155L252.272 461.812L255.614 465.155L253.446 467.314H251.098L248.939 465.155ZM255.614 467.314L256.694 466.225L257.783 467.314H255.614ZM259.932 467.314L257.735 465.212L261.078 461.869L264.401 465.212L262.29 467.351L259.932 467.314ZM264.439 467.314L265.528 466.225L266.607 467.314H264.439ZM274.617 467.314H273.273L274.352 466.225L274.674 466.547L274.617 467.314ZM274.93 463.526L274.352 464.094L271.019 460.761L274.352 457.429L275.299 458.375L274.93 463.526ZM275.517 456.264V456.415L275.451 456.349L275.536 456.264H275.517ZM275.706 453.925L274.352 455.27L270.982 451.956L274.314 448.613L275.971 450.27L275.706 453.925ZM276.17 448.244L275.432 447.515L276.293 446.653L276.17 448.244ZM277.117 437.043L276.871 440.082L275.394 438.7L277.041 437.062L277.117 437.043Z" fill="#D4AF37"/>
<g opacity="0.6">
<path opacity="0.6" d="M275.545 429.762H242.983L243.249 433.047L243.447 435.395L243.94 441.493L244.224 445.006L244.593 449.664L244.754 451.672L244.811 452.268L245 454.616L245.265 457.845L245.426 459.843L245.587 461.879L245.777 464.227L245.928 466.007L246.089 468.005L246.155 468.876H275.99L276.057 468.005L276.218 466.016L276.369 464.217L276.559 461.869L276.719 459.843L276.88 457.845L277.146 454.607L277.335 452.268L277.382 451.672L277.543 449.664L277.922 445.006L278.206 441.503L278.698 435.395L278.888 433.047L279.153 429.762H275.545ZM277.496 431.921L276.871 431.286H277.553L277.496 431.921ZM277.335 433.909L277.278 434.704L274.362 437.611L271.029 434.278L274.011 431.286H274.712L277.335 433.909ZM276.492 444.324L274.362 446.455L271.029 443.112L274.362 439.789L276.672 442.09L276.492 444.324ZM245.559 442.09L247.869 439.789L251.202 443.112L247.869 446.455L245.748 444.324L245.559 442.09ZM273.245 438.7L269.864 442.033L266.569 438.7L269.902 435.367L273.245 438.7ZM267.971 431.286H271.758L269.864 433.18L267.971 431.286ZM268.804 443.103L265.471 446.445L262.129 443.103L265.471 439.779L268.804 443.103ZM257.716 447.525L261.059 444.192L264.382 447.525L261.059 450.857L257.716 447.525ZM259.97 451.937L256.608 455.279L253.323 451.956L256.656 448.613L259.97 451.937ZM265.471 448.604L268.823 451.956L265.49 455.289L262.148 451.956L265.471 448.604ZM261.059 442.033L257.735 438.7L261.078 435.367L264.401 438.7L261.059 442.033ZM259.97 443.103L256.637 446.445L253.304 443.103L256.637 439.779L259.97 443.103ZM252.215 442.033L248.901 438.7L252.234 435.367L255.576 438.7L252.215 442.033ZM252.215 444.192L255.558 447.525L252.215 450.857L248.882 447.525L252.215 444.192ZM255.558 456.359L252.215 459.691L248.882 456.359L252.215 453.026L255.558 456.359ZM256.627 457.438L259.97 460.771L256.637 464.113L253.304 460.771L256.627 457.438ZM257.716 456.359L261.059 453.026L264.382 456.359L261.059 459.691L257.716 456.359ZM265.471 457.438L268.804 460.771L265.471 464.113L262.129 460.771L265.471 457.438ZM269.883 461.85L273.226 465.193L271.057 467.351H268.728L266.569 465.212L269.883 461.85ZM266.55 456.359L269.883 453.026L273.226 456.359L269.864 459.691L266.55 456.359ZM266.55 447.525L269.864 444.192L273.207 447.525L269.864 450.857L266.55 447.525ZM268.804 434.269L265.471 437.602L262.129 434.269L265.121 431.277H265.821L268.804 434.269ZM261.059 433.189L259.165 431.296H262.952L261.059 433.189ZM259.97 434.269L256.637 437.602L253.304 434.269L256.287 431.277H256.987L259.97 434.269ZM254.128 431.277L252.234 433.17L250.34 431.277H254.128ZM248.153 431.277L251.136 434.269L247.803 437.602L244.896 434.695L244.839 433.899L247.453 431.277H248.153ZM245.313 431.277L244.697 431.902L244.64 431.277H245.313ZM245.104 437.052L246.742 438.681L245.351 440.073L245.104 437.052ZM246.051 448.235L245.928 446.653L246.78 447.515L246.051 448.235ZM246.212 450.251L247.86 448.594L251.193 451.937L247.86 455.27L246.515 453.925L246.212 450.251ZM246.714 456.415V456.273L246.79 456.349L246.723 456.415H246.714ZM247.292 463.526L246.875 458.413L247.822 457.466L251.155 460.799L247.822 464.132L247.254 463.564L247.292 463.526ZM247.595 467.314L247.538 466.547L247.86 466.225L248.939 467.314H247.595ZM248.939 465.155L252.272 461.812L255.614 465.155L253.446 467.314H251.098L248.939 465.155ZM255.614 467.314L256.694 466.225L257.783 467.314H255.614ZM259.932 467.314L257.735 465.212L261.078 461.869L264.401 465.212L262.29 467.351L259.932 467.314ZM264.439 467.314L265.528 466.225L266.607 467.314H264.439ZM274.617 467.314H273.273L274.352 466.225L274.674 466.547L274.617 467.314ZM274.93 463.526L274.352 464.094L271.019 460.761L274.352 457.429L275.299 458.375L274.93 463.526ZM275.517 456.264V456.415L275.451 456.349L275.536 456.264H275.517ZM275.706 453.925L274.352 455.27L270.982 451.956L274.314 448.613L275.971 450.27L275.706 453.925ZM276.17 448.244L275.432 447.515L276.293 446.653L276.17 448.244ZM277.117 437.043L276.871 440.082L275.394 438.7L277.041 437.062L277.117 437.043Z" fill="white"/>
</g>
<path d="M242.454 432.659H279.684C280.541 432.659 281.236 431.964 281.236 431.106V429.96C281.236 429.103 280.541 428.408 279.684 428.408H242.454C241.596 428.408 240.901 429.103 240.901 429.96V431.106C240.901 431.964 241.596 432.659 242.454 432.659Z" fill="#D4AF37"/>
<path d="M276.776 466.594H245.369C244.512 466.594 243.816 467.289 243.816 468.147V469.293C243.816 470.15 244.512 470.845 245.369 470.845H276.776C277.634 470.845 278.329 470.15 278.329 469.293V468.147C278.329 467.289 277.634 466.594 276.776 466.594Z" fill="#D4AF37"/>
<path d="M147.04 214.544H119.838C117.615 214.544 115.484 215.427 113.912 216.998C112.341 218.57 111.458 220.701 111.458 222.924V246.595C111.458 248.817 112.341 250.948 113.912 252.52C115.484 254.091 117.615 254.974 119.838 254.974H127.772L121.144 268.126L133.453 254.974H147.078C148.178 254.974 149.267 254.757 150.284 254.336C151.3 253.915 152.223 253.298 153 252.519C153.778 251.741 154.394 250.817 154.814 249.801C155.234 248.784 155.45 247.695 155.448 246.595V222.924C155.45 221.82 155.233 220.728 154.81 219.709C154.388 218.69 153.768 217.764 152.987 216.985C152.205 216.207 151.278 215.59 150.257 215.171C149.237 214.752 148.144 214.539 147.04 214.544Z" fill="#D4AF37"/>
<path opacity="0.7" d="M147.04 214.544H119.838C117.615 214.544 115.484 215.427 113.912 216.998C112.341 218.57 111.458 220.701 111.458 222.924V246.595C111.458 248.817 112.341 250.948 113.912 252.52C115.484 254.091 117.615 254.974 119.838 254.974H127.772L121.144 268.126L133.453 254.974H147.078C148.178 254.974 149.267 254.757 150.284 254.336C151.3 253.915 152.223 253.298 153 252.519C153.778 251.741 154.394 250.817 154.814 249.801C155.234 248.784 155.45 247.695 155.448 246.595V222.924C155.45 221.82 155.233 220.728 154.81 219.709C154.388 218.69 153.768 217.764 152.987 216.985C152.205 216.207 151.278 215.59 150.257 215.171C149.237 214.752 148.144 214.539 147.04 214.544Z" fill="white"/>
<path d="M132.024 240.686C131.844 240.687 131.666 240.648 131.502 240.573C131.339 240.498 131.193 240.388 131.077 240.251L125.774 234.011C125.669 233.887 125.588 233.743 125.538 233.588C125.488 233.432 125.469 233.269 125.483 233.106C125.496 232.943 125.541 232.785 125.615 232.64C125.69 232.494 125.792 232.365 125.916 232.26C126.167 232.046 126.493 231.941 126.822 231.968C126.984 231.981 127.143 232.026 127.288 232.1C127.433 232.175 127.562 232.277 127.668 232.402L132.024 237.533L139.201 229.059C139.306 228.935 139.435 228.833 139.581 228.758C139.726 228.684 139.884 228.639 140.047 228.625C140.21 228.612 140.373 228.631 140.529 228.681C140.684 228.731 140.828 228.811 140.952 228.917C141.077 229.023 141.179 229.152 141.253 229.297C141.328 229.442 141.373 229.601 141.386 229.764C141.399 229.926 141.38 230.09 141.33 230.245C141.28 230.401 141.2 230.544 141.094 230.669L132.961 240.251C132.846 240.388 132.702 240.497 132.541 240.573C132.379 240.648 132.202 240.687 132.024 240.686V240.686Z" fill="white"/>
<path d="M142.98 244.204C148.253 238.931 148.253 230.382 142.98 225.109C137.707 219.836 129.158 219.836 123.885 225.109C118.612 230.382 118.612 238.931 123.885 244.204C129.158 249.476 137.707 249.476 142.98 244.204Z" fill="#D4AF37"/>
<path d="M169.499 469.112H224.605C224.894 469.112 225.171 468.998 225.375 468.794C225.579 468.589 225.694 468.312 225.694 468.024V464.511C225.691 464.224 225.576 463.949 225.372 463.747C225.168 463.545 224.892 463.431 224.605 463.431H172.339V350.927H223.715C224.238 350.927 224.74 350.72 225.111 350.351C225.482 349.982 225.691 349.481 225.694 348.958V345.246H169.499C168.745 345.246 168.023 345.546 167.49 346.078C166.957 346.611 166.658 347.334 166.658 348.087V466.272C166.658 467.025 166.957 467.748 167.49 468.281C168.023 468.813 168.745 469.112 169.499 469.112Z" fill="#263238"/>
<g opacity="0.3">
<path opacity="0.3" d="M166.659 348.087V466.263C166.659 467.016 166.958 467.739 167.491 468.271C168.024 468.804 168.746 469.103 169.5 469.103H224.606C224.892 469.103 225.167 468.99 225.369 468.787C225.572 468.585 225.685 468.31 225.685 468.024V464.511C225.685 464.224 225.572 463.948 225.37 463.744C225.168 463.541 224.893 463.425 224.606 463.422H172.34V350.928H223.716C224.239 350.925 224.74 350.716 225.109 350.345C225.478 349.974 225.685 349.472 225.685 348.949V345.247H169.5C168.746 345.247 168.024 345.546 167.491 346.079C166.958 346.611 166.659 347.334 166.659 348.087Z" fill="white"/>
</g>
<path opacity="0.2" d="M166.658 348.087V378.225C168.552 378.705 170.446 379.169 172.339 379.617V350.927H223.715C224.238 350.925 224.739 350.715 225.108 350.344C225.477 349.974 225.684 349.472 225.684 348.949V345.246H169.499C168.745 345.246 168.023 345.546 167.49 346.078C166.957 346.611 166.658 347.334 166.658 348.087Z" fill="black"/>
<path d="M67.0038 453.253L89.5955 451.283V421.657H97.5395V451.321L120.264 453.253C121.228 453.347 122.123 453.797 122.774 454.514C123.425 455.232 123.786 456.166 123.786 457.135V460.146H63.4531V457.135C63.4539 456.162 63.8186 455.224 64.4756 454.505C65.1325 453.787 66.0343 453.34 67.0038 453.253Z" fill="#263238"/>
<path opacity="0.1" d="M67.0038 453.253L89.5955 451.283V421.657H97.5395V451.321L120.264 453.253C121.228 453.347 122.123 453.797 122.774 454.514C123.425 455.232 123.786 456.166 123.786 457.135V460.146H63.4531V457.135C63.4539 456.162 63.8186 455.224 64.4756 454.505C65.1325 453.787 66.0343 453.34 67.0038 453.253Z" fill="white"/>
<path d="M116.419 463.886C116.419 464.914 116.724 465.919 117.295 466.774C117.866 467.629 118.678 468.295 119.628 468.688C120.578 469.082 121.623 469.185 122.631 468.984C123.64 468.784 124.566 468.289 125.293 467.562C126.02 466.835 126.515 465.908 126.715 464.9C126.916 463.892 126.813 462.847 126.42 461.897C126.026 460.947 125.36 460.135 124.505 459.564C123.65 458.993 122.645 458.688 121.617 458.688C120.934 458.687 120.258 458.82 119.626 459.081C118.995 459.342 118.422 459.725 117.939 460.208C117.456 460.69 117.073 461.264 116.812 461.895C116.551 462.526 116.418 463.203 116.419 463.886V463.886Z" fill="#263238"/>
<path d="M70.7909 463.886C70.7909 464.914 70.4858 465.92 69.9142 466.775C69.3426 467.63 68.5302 468.296 67.5798 468.689C66.6294 469.082 65.5837 469.185 64.5751 468.984C63.5665 468.782 62.6403 468.286 61.9137 467.558C61.1871 466.83 60.6928 465.903 60.4933 464.894C60.2938 463.885 60.3981 462.84 60.7929 461.89C61.1878 460.94 61.8556 460.129 62.7116 459.559C63.5677 458.989 64.5737 458.686 65.6022 458.688C66.2844 458.688 66.9599 458.822 67.59 459.084C68.2201 459.345 68.7926 459.728 69.2745 460.211C69.7564 460.694 70.1384 461.267 70.3986 461.897C70.6588 462.528 70.7921 463.204 70.7909 463.886V463.886Z" fill="#263238"/>
<path d="M95.3896 427.669H91.7442C90.8125 427.669 89.9191 427.299 89.2603 426.64C88.6015 425.982 88.2314 425.088 88.2314 424.156V398.592H98.9023V424.156C98.9023 425.088 98.5322 425.982 97.8735 426.64C97.2147 427.299 96.3212 427.669 95.3896 427.669V427.669Z" fill="#263238"/>
<path opacity="0.2" d="M95.3896 427.669H91.7442C90.8125 427.669 89.9191 427.299 89.2603 426.64C88.6015 425.982 88.2314 425.088 88.2314 424.156V398.592H98.9023V424.156C98.9023 425.088 98.5322 425.982 97.8735 426.64C97.2147 427.299 96.3212 427.669 95.3896 427.669V427.669Z" fill="white"/>
<path d="M70.1376 339.906C70.1376 339.906 72.5805 388.981 83.1473 397.427H71.842C71.842 397.427 61.7675 380.706 61.0195 339.906H70.1376Z" fill="#263238"/>
<path opacity="0.1" d="M70.1376 339.906C70.1376 339.906 72.5805 388.981 83.1473 397.427H71.842C71.842 397.427 61.7675 380.706 61.0195 339.906H70.1376Z" fill="white"/>
<path d="M69.2188 393.356H119.316C120.444 393.356 121.525 393.804 122.322 394.601C123.12 395.398 123.568 396.48 123.568 397.607V401.489H64.958V397.607C64.958 397.048 65.0683 396.494 65.2825 395.978C65.4968 395.462 65.8108 394.992 66.2065 394.598C66.6023 394.203 67.0721 393.89 67.589 393.677C68.1059 393.464 68.6597 393.354 69.2188 393.356V393.356Z" fill="#D4AF37"/>
<path d="M124.098 397.427H64.4472C63.5007 397.427 62.7334 398.194 62.7334 399.141V399.775C62.7334 400.722 63.5007 401.489 64.4472 401.489H124.098C125.045 401.489 125.812 400.722 125.812 399.775V399.141C125.812 398.194 125.045 397.427 124.098 397.427Z" fill="#263238"/>
<path opacity="0.6" d="M124.098 397.427H64.4472C63.5007 397.427 62.7334 398.194 62.7334 399.141V399.775C62.7334 400.722 63.5007 401.489 64.4472 401.489H124.098C125.045 401.489 125.812 400.722 125.812 399.775V399.141C125.812 398.194 125.045 397.427 124.098 397.427Z" fill="white"/>
<path d="M59.0308 350.643H77.1439C82.4463 350.643 86.2715 345.909 85.6655 339.991L84.8986 332.152C84.3115 326.272 79.5489 321.5 74.2466 321.5H56.1619C50.8595 321.5 47.0343 326.234 47.6403 332.152L48.4072 339.991C48.9564 345.909 53.7285 350.643 59.0308 350.643Z" fill="#D4AF37"/>
<path d="M118.805 308.31C119.932 311.88 121.258 315.601 122.716 319.009C123.947 321.85 125.698 325.467 127.696 327.37C129.514 328.989 133.841 329.605 136.653 329.974C140.441 330.457 144.474 330.637 148.404 330.798L149.104 336.1C144.939 337.218 140.667 337.894 136.36 338.117C131.55 338.287 125.944 338.117 121.778 335.163C115.728 330.428 113.096 324.122 110.416 317.466C109.659 315.355 108.977 313.423 108.399 311.207L118.815 308.31H118.805Z" fill="#B65B52"/>
<path d="M114.157 303.301C117.139 304.324 119.838 308.613 127.346 325.817C127.346 325.817 128.567 327.919 134.656 329.235L134.097 338.893C134.097 338.893 125.405 338.514 123.388 337.123C121.371 335.731 109.28 315.837 109.28 315.837L114.157 303.301Z" fill="#263238"/>
<path opacity="0.2" d="M134.655 329.254L134.097 338.912C134.097 338.912 127.128 338.609 124.221 337.539C123.928 337.441 123.648 337.308 123.388 337.141C122.223 336.327 117.707 329.33 114.061 323.573C111.42 319.388 109.327 315.856 109.327 315.856L114.156 303.301C117.139 304.324 119.837 308.613 127.355 325.808C127.355 325.827 128.567 327.919 134.655 329.254Z" fill="white"/>
<path opacity="0.2" d="M124.221 337.539C123.928 337.441 123.648 337.308 123.388 337.142C122.223 336.327 117.707 329.33 114.062 323.573C115.01 320.309 116.132 317.098 117.423 313.953C117.423 313.953 124.354 327.844 124.221 337.539Z" fill="black"/>
<path d="M146.339 331.28L153.128 328.838L152.295 337.927C152.295 337.927 146.065 338.723 145.298 335.447L146.339 331.28Z" fill="#B55B52"/>
<path d="M158.752 330.675L157.711 338.164L152.295 337.927L153.128 328.838L158.752 330.675Z" fill="#B55B52"/>
<path d="M134.702 328.838L138.168 329.879L136.899 339.272L133.434 339.868L134.702 328.838Z" fill="#263238"/>
<path d="M119.071 363.038C119.071 363.038 164.888 381.113 175.54 388.669C186.192 396.224 213.054 447.165 213.054 447.165L201.948 455.686C201.948 455.686 169.907 409.158 165.968 406.005C162.029 402.852 111.051 387.201 111.051 387.201L119.071 363.038Z" fill="#D4AF37"/>
<path opacity="0.4" d="M213.054 447.165L201.948 455.686C201.948 455.686 194.468 444.826 186.296 433.246C177.557 420.852 168.022 407.681 165.996 406.005C163.156 403.695 135.082 394.7 120.207 390.042C114.734 388.318 111.051 387.201 111.051 387.201L119.061 363.009C119.061 363.009 164.869 381.085 175.531 388.64C186.192 396.196 213.054 447.165 213.054 447.165Z" fill="white"/>
<path d="M215.09 465.391L220.44 460.013L211.691 446.483L206.351 451.861L215.09 465.391Z" fill="#B55B52"/>
<path opacity="0.2" d="M206.351 451.861L211.691 446.492L216.69 454.228L211.161 459.322L206.351 451.861Z" fill="black"/>
<path d="M221.368 459.426C221.368 459.426 221.368 459.426 221.434 459.426C221.5 459.426 221.434 459.426 221.434 459.426C222.064 459.195 222.667 458.897 223.233 458.536C223.674 458.3 224.011 457.909 224.18 457.438C224.215 457.261 224.198 457.079 224.133 456.911C224.068 456.743 223.956 456.598 223.811 456.491C223.733 456.41 223.635 456.35 223.527 456.317C223.42 456.284 223.305 456.278 223.195 456.302C222.674 456.425 222.163 457.163 221.775 457.874C221.857 457.211 221.703 456.54 221.339 455.98C221.233 455.873 221.094 455.805 220.944 455.788C220.794 455.771 220.643 455.805 220.516 455.885C220.397 455.941 220.293 456.024 220.212 456.128C220.132 456.231 220.077 456.353 220.052 456.482C219.834 457.504 221.207 459.152 221.273 459.246L221.368 459.152L221.283 459.256C221.283 459.256 221.216 459.36 221.216 459.37C221.23 459.396 221.254 459.416 221.281 459.426C221.309 459.437 221.34 459.437 221.368 459.426V459.426ZM221.415 458.726C221.415 458.783 221.368 458.839 221.349 458.887C220.932 458.3 220.317 457.268 220.449 456.662C220.46 456.59 220.486 456.523 220.526 456.462C220.565 456.402 220.616 456.35 220.677 456.311H220.743C220.97 456.198 221.093 456.264 221.169 456.311C221.531 457.062 221.618 457.917 221.415 458.726ZM221.737 458.953C222.154 458.006 222.845 456.775 223.366 456.662C223.42 456.648 223.477 456.649 223.531 456.666C223.584 456.683 223.632 456.714 223.669 456.756C223.757 456.824 223.826 456.914 223.869 457.017C223.913 457.12 223.928 457.233 223.915 457.343C223.811 457.836 223.006 458.423 221.737 458.953V458.953Z" fill="#D4AF37"/>
<path d="M220.335 458.943L213.272 463.678C213.211 463.714 213.157 463.762 213.115 463.818C213.073 463.875 213.043 463.94 213.026 464.009C213.009 464.078 213.006 464.149 213.018 464.219C213.029 464.289 213.054 464.356 213.092 464.416L216.5 470.239C216.695 470.534 216.999 470.739 217.345 470.81C217.691 470.881 218.052 470.812 218.347 470.618C220.78 468.923 221.86 467.995 224.975 465.884C227.811 464.14 230.522 462.2 233.089 460.08C235.418 457.911 233.212 455.667 232.038 456.377C229.198 458.053 224.388 458.773 221.68 458.574C221.202 458.537 220.727 458.667 220.335 458.943Z" fill="#263238"/>
<path d="M202.469 459.445L216.34 450.214L213.14 443.69L198.113 454.115L202.469 459.445Z" fill="#D4AF37"/>
<path opacity="0.2" d="M202.469 459.445L216.34 450.214L213.14 443.69L198.113 454.115L202.469 459.445Z" fill="white"/>
<path opacity="0.2" d="M186.316 433.284C177.576 420.89 168.042 407.719 166.015 406.043C163.175 403.733 135.101 394.738 120.226 390.079L118.493 372.089L123.928 371.143L124.543 372.525C124.543 372.525 158.497 380.223 168.098 385.033C174.281 388.072 182.585 418.447 186.316 433.284Z" fill="black"/>
<path d="M184.28 461.225C184.29 461.23 184.301 461.232 184.313 461.232C184.324 461.232 184.335 461.23 184.346 461.225C185.018 461.218 185.688 461.138 186.344 460.989C186.845 460.918 187.301 460.661 187.622 460.269C187.716 460.119 187.766 459.945 187.766 459.767C187.766 459.59 187.716 459.416 187.622 459.265C187.575 459.162 187.503 459.072 187.412 459.004C187.321 458.936 187.214 458.893 187.101 458.877C186.571 458.811 185.842 459.351 185.208 459.89C185.498 459.303 185.568 458.631 185.406 457.997C185.343 457.861 185.236 457.75 185.102 457.683C184.968 457.616 184.815 457.596 184.668 457.627C184.538 457.647 184.414 457.693 184.303 457.763C184.192 457.833 184.097 457.926 184.024 458.035C183.484 458.934 184.232 460.941 184.27 461.055L184.384 460.989L184.27 461.064C184.27 461.064 184.166 461.14 184.176 461.15L184.28 461.225ZM184.564 460.572L184.441 460.705C184.147 459.936 184.107 459.093 184.327 458.3C184.363 458.238 184.41 458.185 184.467 458.142C184.524 458.1 184.589 458.07 184.658 458.054H184.744C184.99 458.054 185.085 458.129 185.122 458.224C185.218 459.048 185.02 459.879 184.564 460.572V460.572ZM184.782 460.894C185.492 460.137 186.552 459.209 187.082 459.275C187.138 459.281 187.191 459.301 187.236 459.335C187.281 459.368 187.316 459.413 187.338 459.464C187.391 459.562 187.419 459.671 187.419 459.782C187.419 459.892 187.391 460.001 187.338 460.099C187.111 460.525 186.164 460.818 184.782 460.894V460.894Z" fill="#D4AF37"/>
<path d="M176.383 464.767L183.209 461.462L179.147 445.195L172.33 448.5L176.383 464.767Z" fill="#B55B52"/>
<path opacity="0.2" d="M172.33 448.5L179.147 445.205L181.467 454.503L174.555 457.466L172.33 448.5Z" fill="black"/>
<path d="M183.465 460.421L175.228 462.551C175.158 462.564 175.092 462.592 175.034 462.631C174.975 462.671 174.925 462.721 174.886 462.78C174.847 462.839 174.82 462.906 174.808 462.975C174.795 463.045 174.796 463.116 174.811 463.185V463.185L176.099 469.813C176.192 470.151 176.414 470.439 176.716 470.616C177.018 470.792 177.378 470.844 177.718 470.76C180.559 469.965 181.903 469.444 185.52 468.478C188.762 467.786 191.952 466.865 195.064 465.723C197.98 464.454 196.645 461.604 195.301 461.888C192.101 462.541 187.281 461.604 184.8 460.515C184.377 460.342 183.909 460.309 183.465 460.421Z" fill="#263238"/>
<path d="M182.471 448.282C182.471 448.282 170.92 390.326 168.553 386.879C164.708 381.198 118.483 372.042 118.483 372.042L123.909 371.095L117.641 354.431L76.4814 356.05C76.4814 356.05 77.3431 383.243 81.5281 390.534C85.7132 397.825 147.627 401.177 151.651 402.843C155.675 404.509 167.956 449.967 167.956 449.967L182.471 448.282Z" fill="#D4AF37"/>
<path opacity="0.4" d="M182.471 448.282C182.471 448.282 170.92 390.326 168.553 386.879C164.708 381.198 118.483 372.042 118.483 372.042L123.909 371.095L117.641 354.431L76.4814 356.05C76.4814 356.05 77.3431 383.243 81.5281 390.534C85.7132 397.825 147.627 401.177 151.651 402.843C155.675 404.509 167.956 449.967 167.956 449.967L182.471 448.282Z" fill="white"/>
<path d="M168.202 455.099L184.355 450.99L183.494 443.775L165.863 448.632L168.202 455.099Z" fill="#D4AF37"/>
<path opacity="0.2" d="M168.202 455.099L184.355 450.99L183.494 443.775L165.863 448.632L168.202 455.099Z" fill="white"/>
<path d="M89.5101 356.684L77.5799 356.486L77.3242 360.093L90.0214 360.396L89.5101 356.684Z" fill="#263238"/>
<path d="M91.3467 356.618L91.8674 360.368L118.493 359.989L117.631 356.571L91.3467 356.618Z" fill="#263238"/>
<path d="M104.167 357.271L104.508 359.743C104.557 360.044 104.714 360.318 104.948 360.515C105.183 360.711 105.48 360.817 105.786 360.812L110.047 360.68C110.188 360.683 110.327 360.654 110.456 360.595C110.584 360.537 110.698 360.45 110.789 360.342C110.879 360.234 110.945 360.107 110.98 359.971C111.016 359.834 111.02 359.692 110.993 359.553L110.643 357.072C110.593 356.772 110.436 356.499 110.202 356.304C109.967 356.109 109.67 356.006 109.365 356.012L105.114 356.145C104.972 356.142 104.833 356.171 104.704 356.229C104.576 356.288 104.462 356.374 104.371 356.482C104.281 356.59 104.215 356.717 104.18 356.854C104.144 356.99 104.14 357.133 104.167 357.271V357.271Z" fill="white"/>
<path d="M77.5225 355.955H116.627C117.095 355.958 117.548 355.787 117.898 355.476C118.247 355.165 118.469 354.735 118.521 354.27C123.35 316.396 114.127 303.32 114.127 303.32C110.616 302.318 107.033 301.586 103.409 301.133C98.1145 300.716 92.8004 300.603 87.4927 300.792C83.8769 300.89 80.2727 301.247 76.7082 301.862C74.8145 302.686 72.8545 311.122 74.8145 337.407C75.3258 344.29 75.4015 350.236 75.3542 353.721C75.3466 354.304 75.5705 354.867 75.9769 355.286C76.3832 355.705 76.939 355.945 77.5225 355.955V355.955Z" fill="#263238"/>
<path d="M108.674 316.718H116.211L116.779 325.713L112.736 328.336L108.674 326.328V316.718Z" fill="#263238"/>
<path opacity="0.2" d="M118.55 354.27C118.498 354.735 118.276 355.165 117.927 355.476C117.577 355.787 117.124 355.958 116.656 355.955H77.5515C77.2586 355.956 76.9683 355.899 76.6977 355.787C76.4271 355.675 76.1815 355.51 75.9752 355.302C75.769 355.094 75.6062 354.847 75.4965 354.576C75.3867 354.304 75.3321 354.014 75.3359 353.721C75.3359 350.236 75.3359 344.252 74.8056 337.406C74.5342 333.619 74.3354 330.198 74.2091 327.143C73.9003 321.553 73.9319 315.95 74.3038 310.365C74.7772 304.684 75.7525 302.288 76.7372 301.843C80.3143 301.227 83.9311 300.869 87.5596 300.773C92.8641 300.584 98.1751 300.697 103.467 301.114C107.081 301.569 110.654 302.3 114.156 303.301C114.156 303.301 123.379 316.434 118.55 354.27Z" fill="white"/>
<path d="M87.8809 300.404L100.512 304.712L101.023 301.095C99.7921 298.936 99.4797 297.573 100.521 295.064L92.0943 285.377C92.3121 290.339 91.4126 297.118 87.8809 300.404Z" fill="#B55B52"/>
<path d="M95.873 306.587L98.3538 307.619L100.513 308.973C100.513 308.973 103.4 325.505 102.596 339.461L105.02 341.45L107.576 339.395C107.576 339.395 104.395 313.764 103.249 308.774L103.751 307.572L104.915 305.091L102.766 303.964L99.348 304.712H96.9619L95.873 306.587Z" fill="white"/>
<path opacity="0.2" d="M95.522 289.326L100.512 295.064C100.137 295.943 99.8364 296.852 99.6124 297.781C97.5009 297.147 94.8782 294.335 95.0012 292.043C95.0082 291.113 95.1847 290.193 95.522 289.326Z" fill="black"/>
<path d="M88.6678 298.113C92.2325 300.486 96.0417 302.47 100.03 304.03C100.465 302.267 100.465 300.425 100.03 298.662L105.607 301.445C105.607 301.445 106.071 305.773 104.793 308.073L100.693 305.072L96.091 308.859C96.091 308.859 87.3801 305.498 86.0166 300.934L88.6678 298.113Z" fill="#263238"/>
<path opacity="0.2" d="M117.082 331.707L104.167 342.122C85.6278 346.25 77.4754 334.689 74.1994 327.114C73.8906 321.525 73.9222 315.922 74.2941 310.336C78.7442 310.128 84.2833 310.128 85.7793 311.283C88.3831 313.281 97.4539 327.285 98.8078 328.326C100.162 329.368 117.082 331.707 117.082 331.707Z" fill="black"/>
<path d="M124.429 331.214L131.218 328.762L130.385 337.852C130.385 337.852 124.155 338.647 123.388 335.371L124.429 331.214Z" fill="#B55B52"/>
<path d="M136.833 330.599L135.801 338.088L130.385 337.852L131.218 328.762L136.833 330.599Z" fill="#B55B52"/>
<path d="M84.937 312.874C86.9395 316.83 89.152 320.677 91.5649 324.397C93.0491 326.83 94.909 329.012 97.0755 330.864C97.2391 331.006 97.4289 331.116 97.6342 331.186C100.005 331.813 102.454 332.1 104.906 332.038C111.78 332.104 118.777 331.47 125.68 330.883L126.806 336.109C122.182 337.616 117.467 338.828 112.689 339.736C107.51 340.683 102.785 341.393 97.2744 340.863C95.4967 340.677 93.7709 340.153 92.1898 339.319C86.0543 335.731 82.2953 329.927 78.7352 324.17C77.4569 321.935 76.2923 319.852 75.2129 317.466L84.9654 312.855L84.937 312.874Z" fill="#B65B52"/>
<path d="M76.7086 301.862C64.4943 306.265 80.335 336.696 87.0008 340.105C93.6666 343.514 104.915 342.122 104.915 342.122L105.71 331.546C105.71 331.546 99.8779 330.836 98.1357 330.419C95.3614 329.756 89.7561 317.504 85.9782 310.848C83.8931 306.965 80.6542 303.825 76.7086 301.862V301.862Z" fill="#263238"/>
<path opacity="0.2" d="M76.7086 301.862C64.4943 306.265 80.335 336.696 87.0008 340.105C93.6666 343.514 104.915 342.122 104.915 342.122L105.71 331.546C105.71 331.546 99.8779 330.836 98.1357 330.419C95.3614 329.756 89.7561 317.504 85.9782 310.848C83.8931 306.965 80.6542 303.825 76.7086 301.862V301.862Z" fill="white"/>
<path d="M104.139 330.75L103.154 343.031L106.658 342.377L107.576 331.404L104.139 330.75Z" fill="#263238"/>
<path d="M113.806 275.398C114.289 278.238 113.067 283.749 109.517 281.42C105.966 279.091 112.963 270.531 113.806 275.398Z" fill="#263238"/>
<path d="M93.7513 276.411C92.3879 283.342 91.2327 287.328 93.7513 291.703C97.5387 298.274 106.846 297.27 110.264 290.879C113.342 285.113 115.055 274.782 109.062 270.361C107.734 269.393 106.184 268.777 104.554 268.569C102.925 268.361 101.269 268.569 99.7416 269.173C98.2139 269.776 96.8636 270.756 95.8163 272.022C94.769 273.288 94.0587 274.797 93.7513 276.411V276.411Z" fill="#B55B52"/>
<path d="M90.4191 268.77L98.2685 268.41L98.4768 272.917L98.0128 272.661C98.0128 272.661 97.5204 279.289 93.7615 281.496C88.6769 277.613 87.1809 271.26 90.4191 268.77Z" fill="#263238"/>
<path d="M89.605 281.41C89.654 282.285 89.8759 283.141 90.2579 283.929C90.6398 284.717 91.1741 285.422 91.8301 286.002C93.6007 287.546 95.5133 286.211 95.8826 284.014C96.214 282.035 95.6932 278.844 93.506 278.144C93.023 278.002 92.5126 277.982 92.0199 278.085C91.5273 278.188 91.0676 278.41 90.6817 278.734C90.2959 279.057 89.9957 279.47 89.8079 279.937C89.62 280.404 89.5504 280.91 89.605 281.41V281.41Z" fill="#B55B52"/>
<path d="M103.618 280.927C103.467 281.486 103.618 282.007 104.016 282.101C104.414 282.196 104.792 281.817 104.963 281.259C105.133 280.7 104.963 280.179 104.565 280.094C104.167 280.009 103.76 280.378 103.618 280.927Z" fill="#263238"/>
<path d="M109.914 282.518C109.772 283.067 109.914 283.597 110.312 283.683C110.709 283.768 111.098 283.399 111.259 282.849C111.42 282.3 111.259 281.77 110.861 281.675C110.463 281.581 110.066 281.959 109.914 282.518Z" fill="#263238"/>
<path d="M107.84 282.291C108.097 284.105 108.607 285.874 109.355 287.546C108.903 287.706 108.423 287.769 107.945 287.732C107.467 287.694 107.002 287.557 106.581 287.328L107.84 282.291Z" fill="#A02724"/>
<path d="M103.04 288.701C103.271 288.798 103.508 288.877 103.75 288.938C103.794 288.947 103.84 288.939 103.878 288.916C103.917 288.894 103.946 288.857 103.959 288.815C103.964 288.793 103.966 288.77 103.963 288.748C103.96 288.726 103.952 288.704 103.941 288.685C103.929 288.665 103.914 288.648 103.896 288.635C103.878 288.622 103.857 288.612 103.836 288.606C103.141 288.451 102.493 288.132 101.946 287.676C101.399 287.22 100.969 286.639 100.692 285.983C100.675 285.942 100.644 285.909 100.603 285.889C100.563 285.87 100.517 285.867 100.474 285.879C100.452 285.886 100.432 285.896 100.415 285.911C100.397 285.926 100.383 285.944 100.373 285.965C100.363 285.985 100.358 286.008 100.357 286.031C100.357 286.053 100.361 286.076 100.37 286.097C100.611 286.692 100.973 287.231 101.432 287.679C101.892 288.127 102.439 288.475 103.04 288.701V288.701Z" fill="#263238"/>
<path d="M102.207 278.418C102.262 278.439 102.322 278.445 102.38 278.435C102.438 278.425 102.493 278.399 102.538 278.361C102.865 278.089 103.251 277.897 103.665 277.8C104.079 277.703 104.51 277.704 104.924 277.803C104.966 277.817 105.011 277.823 105.056 277.82C105.1 277.817 105.144 277.805 105.184 277.785C105.223 277.764 105.259 277.736 105.287 277.702C105.316 277.667 105.337 277.628 105.35 277.585C105.365 277.544 105.371 277.5 105.369 277.457C105.366 277.413 105.355 277.371 105.335 277.332C105.316 277.293 105.289 277.258 105.255 277.23C105.222 277.202 105.184 277.181 105.142 277.168C104.621 277.029 104.075 277.018 103.549 277.135C103.024 277.252 102.534 277.494 102.121 277.841C102.086 277.867 102.056 277.901 102.034 277.94C102.012 277.978 101.998 278.021 101.993 278.065C101.987 278.109 101.991 278.154 102.003 278.197C102.016 278.24 102.037 278.279 102.065 278.314C102.104 278.359 102.152 278.394 102.207 278.418V278.418Z" fill="#263238"/>
<path d="M113.2 281.041C113.258 281.062 113.32 281.067 113.38 281.056C113.44 281.046 113.497 281.019 113.544 280.98C113.591 280.941 113.626 280.89 113.648 280.833C113.669 280.775 113.675 280.713 113.664 280.653C113.564 280.127 113.34 279.633 113.011 279.212C112.682 278.79 112.256 278.453 111.771 278.229C111.686 278.197 111.593 278.199 111.51 278.235C111.427 278.27 111.361 278.336 111.326 278.418C111.294 278.501 111.297 278.593 111.332 278.674C111.367 278.756 111.433 278.82 111.515 278.854C111.892 279.029 112.221 279.293 112.475 279.623C112.729 279.952 112.9 280.338 112.973 280.748C112.981 280.812 113.006 280.874 113.046 280.926C113.086 280.978 113.139 281.017 113.2 281.041V281.041Z" fill="#263238"/>
<path d="M95.5884 274.347C95.7391 274.474 95.9006 274.588 96.0713 274.688C96.5259 274.959 97.0413 275.113 97.5706 275.135C98.0998 275.156 98.626 275.045 99.1012 274.811C101.052 273.864 101.667 268.296 107.216 271.127C107.825 270.981 108.464 271.013 109.056 271.222C109.647 271.43 110.166 271.805 110.549 272.302C111.978 274.053 110.994 280.444 114.042 279.564C117.091 278.683 116.561 277.736 116.561 277.736C116.561 277.736 115.709 278.276 115.207 277.85C115.659 277.47 115.981 276.958 116.129 276.386C116.277 275.814 116.242 275.211 116.031 274.659C116.031 274.659 115.292 275.54 114.8 275.369C115.308 272.784 115.014 270.104 113.957 267.69C112.187 263.278 101.355 264.263 101.355 264.263C101.355 264.263 99.9912 261.981 95.096 263.572C90.2009 265.162 87.9663 271.061 88.7427 273.627" fill="#263238"/>
<path d="M160.22 337.141L159.52 334.5H130.802L117.584 335.816L117.082 337.141H160.22Z" fill="#263238"/>
<path opacity="0.5" d="M160.22 337.141L159.52 334.5H130.802L117.584 335.816L117.082 337.141H160.22Z" fill="white"/>
<path opacity="0.2" d="M130.802 334.5V337.141H160.22L159.52 334.5H130.802Z" fill="black"/>
<path d="M140.517 321.85C140.479 322.17 140.51 322.495 140.608 322.802C140.706 323.109 140.868 323.392 141.084 323.631C141.3 323.871 141.565 324.061 141.861 324.19C142.156 324.319 142.476 324.383 142.798 324.378H186.789C187.476 324.361 188.134 324.096 188.641 323.631C189.148 323.166 189.469 322.533 189.544 321.85L192.157 293.691C192.182 293.418 192.163 293.143 192.101 292.876C191.98 292.38 191.694 291.94 191.289 291.628C190.885 291.317 190.386 291.152 189.876 291.163H145.885C145.198 291.179 144.54 291.444 144.033 291.909C143.526 292.374 143.205 293.007 143.13 293.691L140.517 321.85Z" fill="#263238"/>
<path opacity="0.5" d="M140.517 321.85C140.479 322.17 140.51 322.495 140.608 322.802C140.706 323.109 140.868 323.392 141.084 323.631C141.3 323.871 141.565 324.061 141.861 324.19C142.156 324.319 142.476 324.383 142.798 324.378H186.789C187.476 324.361 188.134 324.096 188.641 323.631C189.148 323.166 189.469 322.533 189.544 321.85L192.157 293.691C192.182 293.418 192.163 293.143 192.101 292.876C191.98 292.38 191.694 291.94 191.289 291.628C190.885 291.317 190.386 291.152 189.876 291.163H145.885C145.198 291.179 144.54 291.444 144.033 291.909C143.526 292.374 143.205 293.007 143.13 293.691L140.517 321.85Z" fill="white"/>
<path opacity="0.1" d="M142.987 324.378H186.817C187.504 324.361 188.162 324.096 188.669 323.631C189.176 323.166 189.497 322.533 189.572 321.85L192.185 293.691C192.21 293.418 192.191 293.143 192.129 292.876H148.29C147.604 292.895 146.948 293.162 146.443 293.626C145.939 294.091 145.619 294.723 145.544 295.405L142.931 323.564C142.901 323.836 142.92 324.112 142.987 324.378V324.378Z" fill="black"/>
<path d="M173.173 307.108H164.074L166.498 333.165L152.115 335.324V337.142H182.424V335.324L176.212 333.165L173.173 307.108Z" fill="#263238"/>
<path opacity="0.5" d="M173.173 307.108H164.074L166.498 333.165L152.115 335.324V337.142H182.424V335.324L176.212 333.165L173.173 307.108Z" fill="white"/>
<path opacity="0.2" d="M164.073 307.108L170.815 336.725L176.212 336.564L173.172 307.108H164.073Z" fill="white"/>
<path d="M88.9606 469.112H144.067C144.21 469.112 144.351 469.084 144.482 469.029C144.614 468.975 144.733 468.894 144.834 468.793C144.934 468.692 145.013 468.572 145.067 468.44C145.121 468.308 145.148 468.166 145.146 468.024V464.511C145.146 464.225 145.033 463.95 144.83 463.748C144.628 463.545 144.353 463.431 144.067 463.431H91.8012V350.927H143.177C143.699 350.927 144.2 350.72 144.57 350.351C144.939 349.981 145.146 349.48 145.146 348.958V345.246H88.9606C88.2073 345.246 87.4848 345.546 86.9521 346.078C86.4194 346.611 86.1201 347.334 86.1201 348.087V466.272C86.1201 467.025 86.4194 467.748 86.9521 468.281C87.4848 468.813 88.2073 469.112 88.9606 469.112Z" fill="#263238"/>
<g opacity="0.4">
<path opacity="0.4" d="M88.9606 469.112H144.067C144.21 469.112 144.351 469.084 144.482 469.029C144.614 468.975 144.733 468.894 144.834 468.793C144.934 468.692 145.013 468.572 145.067 468.44C145.121 468.308 145.148 468.166 145.146 468.024V464.511C145.146 464.225 145.033 463.95 144.83 463.748C144.628 463.545 144.353 463.431 144.067 463.431H91.8012V350.927H143.177C143.699 350.927 144.2 350.72 144.57 350.351C144.939 349.981 145.146 349.48 145.146 348.958V345.246H88.9606C88.2073 345.246 87.4848 345.546 86.9521 346.078C86.4194 346.611 86.1201 347.334 86.1201 348.087V466.272C86.1201 467.025 86.4194 467.748 86.9521 468.281C87.4848 468.813 88.2073 469.112 88.9606 469.112Z" fill="white"/>
</g>
<path d="M227.162 346.193L81.8974 346.193C81.4102 346.193 80.943 346 80.5985 345.655C80.254 345.311 80.0605 344.844 80.0605 344.356V339.887H228.999V344.366C228.997 344.851 228.802 345.316 228.458 345.659C228.113 346.001 227.648 346.193 227.162 346.193V346.193Z" fill="#D4AF37"/>
<path opacity="0.2" d="M80.0605 343.031H228.999V339.878H80.0605V343.031Z" fill="black"/>
<path d="M76.9451 340.692H232.133C232.603 340.692 233.055 340.506 233.388 340.174C233.722 339.842 233.91 339.392 233.913 338.921V338.921C233.913 338.449 233.725 337.997 233.392 337.663C233.058 337.329 232.605 337.141 232.133 337.141H76.9451C76.473 337.141 76.0202 337.329 75.6864 337.663C75.3526 337.997 75.165 338.449 75.165 338.921V338.921C75.1675 339.392 75.3562 339.842 75.6897 340.174C76.0233 340.506 76.4746 340.692 76.9451 340.692V340.692Z" fill="#D4AF37"/>
<path d="M334.975 178.909L324.398 182.782L334.975 186.626V190.555L319.825 184.808V180.68L334.975 174.932V178.909Z" fill="#E0E0E0"/>
<path d="M346.356 167.149H350.777L340.296 197.079H335.874L346.356 167.149Z" fill="#E0E0E0"/>
<path d="M366.476 180.717V184.874L351.326 190.621V186.654L361.902 182.81L351.326 178.937V174.999L366.476 180.717Z" fill="#E0E0E0"/>
<path d="M270.928 369.877C272.443 370.331 273.144 371.288 273.144 373.57V378.843C273.1 379.171 273.131 379.505 273.236 379.819C273.341 380.133 273.516 380.419 273.748 380.654C273.98 380.89 274.263 381.07 274.575 381.179C274.887 381.289 275.22 381.325 275.549 381.286H276.146V385.31H274.252C270.124 385.31 268.012 383.199 268.012 379.402V373.437C268.012 372.377 267.454 371.884 266.563 371.884H265.475V367.907H266.563C267.454 367.907 268.012 367.415 268.012 366.355V360.333C268.012 356.545 270.124 354.434 274.252 354.434H276.146V358.439H275.549C275.22 358.4 274.887 358.437 274.575 358.546C274.263 358.656 273.98 358.835 273.748 359.071C273.516 359.307 273.341 359.592 273.236 359.906C273.131 360.22 273.1 360.554 273.144 360.882V366.156C273.144 368.457 272.443 369.413 270.928 369.877Z" fill="#E0E0E0"/>
<path d="M297.175 367.907V371.931H296.086C295.882 371.913 295.676 371.942 295.484 372.015C295.293 372.088 295.12 372.204 294.98 372.353C294.839 372.503 294.735 372.682 294.674 372.878C294.613 373.074 294.597 373.281 294.628 373.484V379.449C294.628 383.237 292.517 385.358 288.398 385.358H286.504V381.334H287.101C287.429 381.373 287.763 381.336 288.075 381.227C288.387 381.117 288.67 380.937 288.902 380.702C289.134 380.466 289.309 380.18 289.414 379.866C289.519 379.552 289.55 379.219 289.506 378.891V373.588C289.506 371.306 290.197 370.35 291.712 369.896C290.197 369.432 289.506 368.475 289.506 366.194V360.901C289.554 360.57 289.525 360.232 289.42 359.914C289.316 359.596 289.14 359.306 288.905 359.068C288.67 358.83 288.384 358.649 288.067 358.54C287.751 358.43 287.414 358.396 287.082 358.439H286.485V354.415H288.379C292.498 354.415 294.609 356.526 294.609 360.314V366.288C294.578 366.491 294.594 366.698 294.655 366.894C294.716 367.09 294.82 367.27 294.961 367.419C295.101 367.569 295.274 367.684 295.466 367.758C295.657 367.831 295.863 367.859 296.067 367.841L297.175 367.907Z" fill="#E0E0E0"/>
<path d="M108.523 148.962L111.629 145.232C112.945 146.993 114.403 147.892 116.127 147.892C118.38 147.892 119.554 146.538 119.554 143.878V132.364H111.033V127.866H125.112V143.565C125.112 149.549 122.101 152.494 116.392 152.494C114.897 152.55 113.409 152.261 112.045 151.648C110.68 151.035 109.475 150.116 108.523 148.962V148.962Z" fill="#E0E0E0"/>
<path d="M128.483 150.345L130.245 146.472C132.201 147.638 134.434 148.259 136.711 148.271C139.202 148.271 140.139 147.618 140.139 146.576C140.139 143.537 128.9 146.643 128.9 139.21C128.9 135.678 132.081 133.188 137.507 133.188C139.993 133.14 142.453 133.699 144.674 134.816L142.875 138.661C141.239 137.733 139.388 137.253 137.507 137.269C135.092 137.269 134.051 138.036 134.051 139.002C134.051 142.183 145.29 139.106 145.29 146.434C145.29 149.9 142.08 152.352 136.503 152.352C133.7 152.4 130.934 151.707 128.483 150.345V150.345Z" fill="#E0E0E0"/>
<path d="M223.666 38.3591H195.422C194.235 38.3591 193.272 39.3214 193.272 40.5085V68.7528C193.272 69.9399 194.235 70.9022 195.422 70.9022H223.666C224.853 70.9022 225.816 69.9399 225.816 68.7528V40.5085C225.816 39.3214 224.853 38.3591 223.666 38.3591Z" fill="#D4AF37"/>
<g opacity="0.4">
<path opacity="0.4" d="M223.666 38.3591H195.422C194.235 38.3591 193.272 39.3214 193.272 40.5085V68.7528C193.272 69.9399 194.235 70.9022 195.422 70.9022H223.666C224.853 70.9022 225.816 69.9399 225.816 68.7528V40.5085C225.816 39.3214 224.853 38.3591 223.666 38.3591Z" fill="white"/>
</g>
<path d="M205.175 52.9122L199.493 54.9857L205.175 57.0404V59.1803L197.107 56.103V53.9063L205.175 50.8291V52.9122Z" fill="white"/>
<path d="M211.254 46.644H213.611L208.006 62.6173H205.648L211.254 46.644Z" fill="white"/>
<path d="M221.981 53.8874V56.0841L213.914 59.1803V57.0593L219.595 55.0047L213.914 52.9311V50.8291L221.981 53.8874Z" fill="white"/>
<path d="M200.44 76.8483V84.745H198.613V81.4974H195.015V84.745H193.188V76.8389H195.015V80.0108H198.613V76.8957L200.44 76.8483Z" fill="#263238"/>
<path d="M203.962 78.3349H201.425V76.8484H208.318V78.3349H205.79V84.7451H203.962V78.3349Z" fill="#263238"/>
<path d="M216.508 84.745V80.0108L214.178 83.9213H213.317L210.997 80.1339V84.745H209.283V76.8389H210.798L213.752 81.753L216.669 76.8389H218.174V84.745H216.508Z" fill="#263238"/>
<path d="M220.106 76.8484H221.934V83.2585H225.901V84.7451H220.106V76.8484Z" fill="#263238"/>
<g opacity="0.6">
<path opacity="0.6" d="M200.44 76.8483V84.745H198.613V81.4974H195.015V84.745H193.188V76.8389H195.015V80.0108H198.613V76.8957L200.44 76.8483Z" fill="white"/>
<path opacity="0.6" d="M203.962 78.3349H201.425V76.8484H208.318V78.3349H205.79V84.7451H203.962V78.3349Z" fill="white"/>
<path opacity="0.6" d="M216.509 84.745V80.0108L214.179 83.9213H213.318L210.998 80.1339V84.745H209.284V76.8389H210.799L213.753 81.753L216.67 76.8389H218.175V84.745H216.509Z" fill="white"/>
<path opacity="0.6" d="M220.106 76.8484H221.934V83.2585H225.901V84.7451H220.106V76.8484Z" fill="white"/>
</g>
<path d="M331.205 93.6062H302.961C301.774 93.6062 300.812 94.5685 300.812 95.7555V124C300.812 125.187 301.774 126.149 302.961 126.149H331.205C332.392 126.149 333.355 125.187 333.355 124V95.7555C333.355 94.5685 332.392 93.6062 331.205 93.6062Z" fill="#D4AF37"/>
<g opacity="0.4">
<path opacity="0.4" d="M331.204 93.606H302.96C301.773 93.606 300.811 94.5682 300.811 95.7553V124C300.811 125.187 301.773 126.149 302.96 126.149H331.204C332.391 126.149 333.354 125.187 333.354 124V95.7553C333.354 94.5682 332.391 93.606 331.204 93.606Z" fill="white"/>
</g>
<path d="M311.747 109.873C312.523 110.11 312.883 110.602 312.883 111.767V114.484C312.862 114.652 312.879 114.824 312.934 114.984C312.988 115.145 313.079 115.291 313.199 115.412C313.318 115.532 313.464 115.624 313.624 115.679C313.784 115.735 313.955 115.754 314.123 115.734H314.426V117.808H313.48C311.359 117.808 310.279 116.719 310.279 114.768V111.7C310.294 111.597 310.285 111.491 310.253 111.391C310.221 111.291 310.168 111.2 310.096 111.124C310.024 111.047 309.936 110.988 309.838 110.95C309.741 110.912 309.636 110.897 309.531 110.905H308.973V108.831H309.531C309.636 108.84 309.741 108.824 309.838 108.786C309.936 108.748 310.024 108.689 310.096 108.613C310.168 108.537 310.221 108.445 310.253 108.345C310.285 108.246 310.294 108.14 310.279 108.036V104.968C310.279 103.018 311.359 101.929 313.48 101.929H314.426V104.003H314.123C313.955 103.982 313.784 104.001 313.624 104.057C313.464 104.113 313.318 104.205 313.199 104.325C313.079 104.445 312.988 104.592 312.934 104.752C312.879 104.913 312.862 105.084 312.883 105.252V107.97C312.883 109.144 312.523 109.636 311.747 109.873Z" fill="white"/>
<path d="M325.23 108.841V110.914H324.672C324.567 110.906 324.462 110.922 324.365 110.96C324.267 110.997 324.179 111.057 324.107 111.133C324.035 111.209 323.982 111.301 323.95 111.4C323.918 111.5 323.909 111.606 323.924 111.71V114.777C323.924 116.728 322.835 117.817 320.723 117.817H319.776V115.743H320.079C320.248 115.763 320.419 115.745 320.579 115.689C320.739 115.633 320.885 115.541 321.004 115.421C321.124 115.3 321.214 115.154 321.269 114.994C321.324 114.833 321.341 114.662 321.32 114.493V111.776C321.32 110.602 321.67 110.11 322.456 109.882C321.67 109.646 321.32 109.153 321.32 107.989V105.271C321.341 105.103 321.324 104.932 321.269 104.771C321.214 104.61 321.124 104.464 321.004 104.344C320.885 104.223 320.739 104.132 320.579 104.076C320.419 104.02 320.248 104.001 320.079 104.021H319.776V101.948H320.723C322.835 101.948 323.924 103.037 323.924 104.987V108.055C323.909 108.159 323.918 108.264 323.95 108.364C323.982 108.464 324.035 108.555 324.107 108.632C324.179 108.708 324.267 108.767 324.365 108.805C324.462 108.843 324.567 108.858 324.672 108.85L325.23 108.841Z" fill="white"/>
<path d="M306.17 136.167C306.217 135.309 306.516 134.484 307.031 133.796C307.545 133.108 308.252 132.587 309.062 132.3C309.872 132.012 310.748 131.971 311.581 132.18C312.415 132.39 313.167 132.841 313.745 133.478L312.571 134.567C312.332 134.27 312.029 134.03 311.684 133.866C311.34 133.702 310.963 133.618 310.582 133.62C310.237 133.599 309.89 133.648 309.565 133.766C309.239 133.884 308.941 134.067 308.689 134.304C308.436 134.542 308.235 134.828 308.098 135.146C307.961 135.464 307.89 135.806 307.89 136.153C307.89 136.499 307.961 136.841 308.098 137.159C308.235 137.477 308.436 137.764 308.689 138.001C308.941 138.238 309.239 138.421 309.565 138.539C309.89 138.657 310.237 138.707 310.582 138.685C310.963 138.686 311.34 138.602 311.684 138.438C312.028 138.274 312.331 138.035 312.571 137.739L313.745 138.818C313.17 139.458 312.418 139.914 311.584 140.126C310.75 140.339 309.872 140.299 309.061 140.012C308.25 139.725 307.542 139.204 307.027 138.514C306.512 137.825 306.214 136.998 306.17 136.138V136.167Z" fill="#263238"/>
<path d="M314.237 139.348L314.853 137.966C315.624 138.492 316.533 138.779 317.466 138.79C318.545 138.79 318.99 138.43 318.99 137.947C318.99 136.46 314.389 137.483 314.389 134.548C314.389 133.203 315.478 132.076 317.722 132.076C318.683 132.06 319.631 132.302 320.468 132.777L319.909 134.169C319.242 133.778 318.485 133.566 317.712 133.554C316.633 133.554 316.207 133.951 316.207 134.453C316.207 135.911 320.808 134.907 320.808 137.805C320.808 139.13 319.71 140.257 317.457 140.257C316.317 140.284 315.195 139.967 314.237 139.348V139.348Z" fill="#263238"/>
<path d="M321.443 139.348L322.068 137.966C322.837 138.496 323.748 138.783 324.682 138.789C325.761 138.789 326.206 138.43 326.206 137.947C326.206 136.46 321.604 137.483 321.604 134.548C321.604 133.203 322.693 132.076 324.937 132.076C325.899 132.062 326.846 132.303 327.683 132.777L327.115 134.169C326.452 133.777 325.698 133.565 324.928 133.553C323.839 133.553 323.422 133.951 323.422 134.453C323.422 135.911 328.024 134.907 328.024 137.805C328.024 139.13 326.926 140.257 324.663 140.257C323.523 140.284 322.401 139.967 321.443 139.348V139.348Z" fill="#263238"/>
<g opacity="0.6">
<path opacity="0.6" d="M306.17 136.167C306.217 135.309 306.516 134.484 307.031 133.796C307.545 133.108 308.252 132.587 309.062 132.3C309.872 132.012 310.748 131.971 311.581 132.18C312.415 132.39 313.167 132.841 313.745 133.478L312.571 134.567C312.332 134.27 312.029 134.03 311.684 133.866C311.34 133.702 310.963 133.618 310.582 133.62C310.237 133.599 309.89 133.648 309.565 133.766C309.239 133.884 308.941 134.067 308.689 134.304C308.436 134.542 308.235 134.828 308.098 135.146C307.961 135.464 307.89 135.806 307.89 136.153C307.89 136.499 307.961 136.841 308.098 137.159C308.235 137.477 308.436 137.764 308.689 138.001C308.941 138.238 309.239 138.421 309.565 138.539C309.89 138.657 310.237 138.707 310.582 138.685C310.963 138.686 311.34 138.602 311.684 138.438C312.028 138.274 312.331 138.035 312.571 137.739L313.745 138.818C313.17 139.458 312.418 139.914 311.584 140.126C310.75 140.339 309.872 140.299 309.061 140.012C308.25 139.725 307.542 139.204 307.027 138.514C306.512 137.825 306.214 136.998 306.17 136.138V136.167Z" fill="white"/>
<path opacity="0.6" d="M314.237 139.348L314.853 137.966C315.624 138.492 316.533 138.779 317.466 138.79C318.545 138.79 318.99 138.43 318.99 137.947C318.99 136.46 314.389 137.483 314.389 134.548C314.389 133.203 315.478 132.076 317.722 132.076C318.683 132.06 319.631 132.302 320.468 132.777L319.909 134.169C319.242 133.778 318.485 133.566 317.712 133.554C316.633 133.554 316.207 133.951 316.207 134.453C316.207 135.911 320.808 134.907 320.808 137.805C320.808 139.13 319.71 140.257 317.457 140.257C316.317 140.284 315.195 139.967 314.237 139.348V139.348Z" fill="white"/>
<path opacity="0.6" d="M321.442 139.348L322.067 137.966C322.836 138.496 323.747 138.783 324.681 138.789C325.76 138.789 326.205 138.43 326.205 137.947C326.205 136.46 321.603 137.483 321.603 134.548C321.603 133.203 322.692 132.076 324.936 132.076C325.898 132.062 326.845 132.303 327.682 132.777L327.114 134.169C326.451 133.777 325.697 133.565 324.927 133.553C323.838 133.553 323.421 133.951 323.421 134.453C323.421 135.911 328.023 134.907 328.023 137.805C328.023 139.13 326.925 140.257 324.662 140.257C323.522 140.284 322.4 139.967 321.442 139.348V139.348Z" fill="white"/>
</g>
<path d="M291.664 159.797H175.666V243.763H291.664V159.797Z" fill="black"/>
<path opacity="0.9" d="M291.664 159.797H175.666V243.763H291.664V159.797Z" fill="white"/>
<path opacity="0.1" d="M191.819 159.797H175.666V243.763H191.819V159.797Z" fill="black"/>
<path d="M291.664 159.797H175.666V167.646H291.664V159.797Z" fill="#D4AF37"/>
<g opacity="0.2">
<path opacity="0.2" d="M222.214 179.492H201.089C200.838 179.492 200.597 179.392 200.42 179.214C200.242 179.037 200.143 178.796 200.143 178.545C200.143 178.294 200.242 178.053 200.42 177.875C200.597 177.698 200.838 177.598 201.089 177.598H222.214C222.465 177.598 222.705 177.698 222.883 177.875C223.061 178.053 223.16 178.294 223.16 178.545C223.16 178.796 223.061 179.037 222.883 179.214C222.705 179.392 222.465 179.492 222.214 179.492Z" fill="black"/>
<path opacity="0.2" d="M268.883 179.492H227.837C227.586 179.492 227.346 179.392 227.168 179.214C226.99 179.037 226.891 178.796 226.891 178.545C226.891 178.294 226.99 178.053 227.168 177.875C227.346 177.698 227.586 177.598 227.837 177.598H268.883C269.134 177.598 269.375 177.698 269.553 177.875C269.73 178.053 269.83 178.294 269.83 178.545C269.83 178.796 269.73 179.037 269.553 179.214C269.375 179.392 269.134 179.492 268.883 179.492Z" fill="black"/>
<path opacity="0.2" d="M259.111 185.674H203.929C203.678 185.674 203.437 185.575 203.26 185.397C203.082 185.22 202.982 184.979 202.982 184.728C202.982 184.476 203.082 184.236 203.26 184.058C203.437 183.881 203.678 183.781 203.929 183.781H259.111C259.362 183.781 259.603 183.881 259.781 184.058C259.958 184.236 260.058 184.476 260.058 184.728C260.058 184.979 259.958 185.22 259.781 185.397C259.603 185.575 259.362 185.674 259.111 185.674Z" fill="black"/>
<path opacity="0.2" d="M236.634 191.848H201.089C200.838 191.848 200.597 191.748 200.42 191.57C200.242 191.393 200.143 191.152 200.143 190.901C200.143 190.65 200.242 190.409 200.42 190.231C200.597 190.054 200.838 189.954 201.089 189.954H236.634C236.885 189.954 237.126 190.054 237.303 190.231C237.481 190.409 237.581 190.65 237.581 190.901C237.581 191.152 237.481 191.393 237.303 191.57C237.126 191.748 236.885 191.848 236.634 191.848Z" fill="black"/>
<path opacity="0.2" d="M268.884 191.848H243.414C243.163 191.848 242.922 191.748 242.744 191.57C242.567 191.393 242.467 191.152 242.467 190.901C242.467 190.65 242.567 190.409 242.744 190.231C242.922 190.054 243.163 189.954 243.414 189.954H268.884C269.135 189.954 269.376 190.054 269.553 190.231C269.731 190.409 269.831 190.65 269.831 190.901C269.831 191.152 269.731 191.393 269.553 191.57C269.376 191.748 269.135 191.848 268.884 191.848Z" fill="black"/>
<path opacity="0.2" d="M220.718 198.031H201.089C200.838 198.031 200.597 197.931 200.42 197.754C200.242 197.576 200.143 197.335 200.143 197.084C200.143 196.833 200.242 196.592 200.42 196.415C200.597 196.237 200.838 196.137 201.089 196.137H220.718C220.969 196.137 221.209 196.237 221.387 196.415C221.565 196.592 221.664 196.833 221.664 197.084C221.664 197.335 221.565 197.576 221.387 197.754C221.209 197.931 220.969 198.031 220.718 198.031Z" fill="black"/>
<path opacity="0.2" d="M257.985 198.031H227.08C226.829 198.031 226.588 197.931 226.41 197.754C226.233 197.576 226.133 197.335 226.133 197.084C226.133 196.833 226.233 196.592 226.41 196.415C226.588 196.237 226.829 196.137 227.08 196.137H257.985C258.236 196.137 258.477 196.237 258.654 196.415C258.832 196.592 258.931 196.833 258.931 197.084C258.931 197.335 258.832 197.576 258.654 197.754C258.477 197.931 258.236 198.031 257.985 198.031Z" fill="black"/>
<path opacity="0.2" d="M230.337 204.214H203.929C203.678 204.214 203.437 204.114 203.26 203.936C203.082 203.759 202.982 203.518 202.982 203.267C202.982 203.016 203.082 202.775 203.26 202.597C203.437 202.42 203.678 202.32 203.929 202.32H230.337C230.588 202.32 230.829 202.42 231.006 202.597C231.184 202.775 231.284 203.016 231.284 203.267C231.284 203.518 231.184 203.759 231.006 203.936C230.829 204.114 230.588 204.214 230.337 204.214V204.214Z" fill="black"/>
<path opacity="0.2" d="M233.641 210.397H203.929C203.678 210.397 203.437 210.297 203.26 210.119C203.082 209.942 202.982 209.701 202.982 209.45C202.982 209.199 203.082 208.958 203.26 208.78C203.437 208.603 203.678 208.503 203.929 208.503H233.641C233.892 208.503 234.133 208.603 234.311 208.78C234.488 208.958 234.588 209.199 234.588 209.45C234.588 209.701 234.488 209.942 234.311 210.119C234.133 210.297 233.892 210.397 233.641 210.397Z" fill="black"/>
<path opacity="0.2" d="M268.884 210.397H238.585C238.333 210.397 238.093 210.297 237.915 210.119C237.737 209.942 237.638 209.701 237.638 209.45C237.638 209.199 237.737 208.958 237.915 208.78C238.093 208.603 238.333 208.503 238.585 208.503H268.884C269.135 208.503 269.375 208.603 269.553 208.78C269.731 208.958 269.83 209.199 269.83 209.45C269.83 209.701 269.731 209.942 269.553 210.119C269.375 210.297 269.135 210.397 268.884 210.397Z" fill="black"/>
<path opacity="0.2" d="M218.095 216.57H201.051C200.8 216.57 200.559 216.47 200.382 216.293C200.204 216.115 200.104 215.874 200.104 215.623C200.104 215.372 200.204 215.131 200.382 214.954C200.559 214.776 200.8 214.676 201.051 214.676H218.095C218.346 214.676 218.586 214.776 218.764 214.954C218.942 215.131 219.041 215.372 219.041 215.623C219.041 215.874 218.942 216.115 218.764 216.293C218.586 216.47 218.346 216.57 218.095 216.57Z" fill="black"/>
<path opacity="0.2" d="M268.884 216.57H223.899C223.648 216.57 223.407 216.47 223.229 216.293C223.052 216.115 222.952 215.874 222.952 215.623C222.952 215.372 223.052 215.131 223.229 214.954C223.407 214.776 223.648 214.676 223.899 214.676H268.884C269.135 214.676 269.376 214.776 269.553 214.954C269.731 215.131 269.83 215.372 269.83 215.623C269.83 215.874 269.731 216.115 269.553 216.293C269.376 216.47 269.135 216.57 268.884 216.57Z" fill="black"/>
<path opacity="0.2" d="M233.452 222.753H203.929C203.678 222.753 203.437 222.653 203.26 222.475C203.082 222.298 202.982 222.057 202.982 221.806C202.982 221.555 203.082 221.314 203.26 221.136C203.437 220.959 203.678 220.859 203.929 220.859H233.452C233.703 220.859 233.944 220.959 234.121 221.136C234.299 221.314 234.399 221.555 234.399 221.806C234.399 222.057 234.299 222.298 234.121 222.475C233.944 222.653 233.703 222.753 233.452 222.753Z" fill="black"/>
<path opacity="0.2" d="M256.678 222.753H237.571C237.32 222.753 237.079 222.653 236.901 222.475C236.724 222.298 236.624 222.057 236.624 221.806C236.624 221.555 236.724 221.314 236.901 221.136C237.079 220.959 237.32 220.859 237.571 220.859H256.678C256.929 220.859 257.17 220.959 257.348 221.136C257.525 221.314 257.625 221.555 257.625 221.806C257.625 222.057 257.525 222.298 257.348 222.475C257.17 222.653 256.929 222.753 256.678 222.753Z" fill="black"/>
<path opacity="0.2" d="M237.911 228.936H203.929C203.678 228.936 203.437 228.836 203.26 228.658C203.082 228.481 202.982 228.24 202.982 227.989C202.982 227.738 203.082 227.497 203.26 227.319C203.437 227.142 203.678 227.042 203.929 227.042H237.911C238.163 227.042 238.403 227.142 238.581 227.319C238.759 227.497 238.858 227.738 238.858 227.989C238.858 228.24 238.759 228.481 238.581 228.658C238.403 228.836 238.163 228.936 237.911 228.936V228.936Z" fill="black"/>
</g>
<path opacity="0.4" d="M286.674 165.393C287.568 165.393 288.293 164.668 288.293 163.774C288.293 162.88 287.568 162.155 286.674 162.155C285.78 162.155 285.055 162.88 285.055 163.774C285.055 164.668 285.78 165.393 286.674 165.393Z" fill="white"/>
<path opacity="0.4" d="M280.983 165.393C281.878 165.393 282.602 164.668 282.602 163.774C282.602 162.88 281.878 162.155 280.983 162.155C280.089 162.155 279.364 162.88 279.364 163.774C279.364 164.668 280.089 165.393 280.983 165.393Z" fill="white"/>
<path opacity="0.4" d="M275.303 165.393C276.197 165.393 276.922 164.668 276.922 163.774C276.922 162.88 276.197 162.155 275.303 162.155C274.408 162.155 273.684 162.88 273.684 163.774C273.684 164.668 274.408 165.393 275.303 165.393Z" fill="white"/>
<g opacity="0.2">
<path opacity="0.2" d="M184.027 179.492C183.776 179.492 183.535 179.392 183.357 179.214C183.18 179.037 183.08 178.796 183.08 178.545C183.08 178.294 183.18 178.053 183.357 177.875C183.535 177.698 183.776 177.598 184.027 177.598C184.278 177.598 184.519 177.698 184.696 177.875C184.874 178.053 184.974 178.294 184.974 178.545C184.974 178.796 184.874 179.037 184.696 179.214C184.519 179.392 184.278 179.492 184.027 179.492Z" fill="black"/>
<path opacity="0.2" d="M184.027 185.675C183.776 185.675 183.535 185.575 183.357 185.397C183.18 185.22 183.08 184.979 183.08 184.728C183.08 184.477 183.18 184.236 183.357 184.058C183.535 183.881 183.776 183.781 184.027 183.781C184.278 183.781 184.519 183.881 184.696 184.058C184.874 184.236 184.974 184.477 184.974 184.728C184.974 184.979 184.874 185.22 184.696 185.397C184.519 185.575 184.278 185.675 184.027 185.675Z" fill="black"/>
<path opacity="0.2" d="M184.027 191.848C183.776 191.848 183.535 191.748 183.357 191.571C183.18 191.393 183.08 191.152 183.08 190.901C183.08 190.65 183.18 190.409 183.357 190.232C183.535 190.054 183.776 189.954 184.027 189.954C184.278 189.954 184.519 190.054 184.696 190.232C184.874 190.409 184.974 190.65 184.974 190.901C184.974 191.152 184.874 191.393 184.696 191.571C184.519 191.748 184.278 191.848 184.027 191.848Z" fill="black"/>
<path opacity="0.2" d="M184.027 198.031C183.776 198.031 183.535 197.931 183.357 197.754C183.18 197.576 183.08 197.335 183.08 197.084C183.08 196.833 183.18 196.592 183.357 196.415C183.535 196.237 183.776 196.137 184.027 196.137C184.278 196.137 184.519 196.237 184.696 196.415C184.874 196.592 184.974 196.833 184.974 197.084C184.974 197.335 184.874 197.576 184.696 197.754C184.519 197.931 184.278 198.031 184.027 198.031Z" fill="black"/>
<path opacity="0.2" d="M184.027 204.214C183.776 204.214 183.535 204.114 183.357 203.936C183.18 203.759 183.08 203.518 183.08 203.267C183.08 203.016 183.18 202.775 183.357 202.597C183.535 202.42 183.776 202.32 184.027 202.32C184.278 202.32 184.519 202.42 184.696 202.597C184.874 202.775 184.974 203.016 184.974 203.267C184.974 203.518 184.874 203.759 184.696 203.936C184.519 204.114 184.278 204.214 184.027 204.214Z" fill="black"/>
<path opacity="0.2" d="M184.027 210.397C183.776 210.397 183.535 210.297 183.357 210.119C183.18 209.942 183.08 209.701 183.08 209.45C183.08 209.199 183.18 208.958 183.357 208.78C183.535 208.603 183.776 208.503 184.027 208.503C184.278 208.503 184.519 208.603 184.696 208.78C184.874 208.958 184.974 209.199 184.974 209.45C184.974 209.701 184.874 209.942 184.696 210.119C184.519 210.297 184.278 210.397 184.027 210.397Z" fill="black"/>
<path opacity="0.2" d="M184.027 216.57C183.776 216.57 183.535 216.47 183.357 216.293C183.18 216.115 183.08 215.874 183.08 215.623C183.08 215.372 183.18 215.131 183.357 214.954C183.535 214.776 183.776 214.677 184.027 214.677C184.278 214.677 184.519 214.776 184.696 214.954C184.874 215.131 184.974 215.372 184.974 215.623C184.974 215.874 184.874 216.115 184.696 216.293C184.519 216.47 184.278 216.57 184.027 216.57Z" fill="black"/>
<path opacity="0.2" d="M184.027 222.753C183.776 222.753 183.535 222.653 183.357 222.476C183.18 222.298 183.08 222.057 183.08 221.806C183.08 221.555 183.18 221.314 183.357 221.137C183.535 220.959 183.776 220.859 184.027 220.859C184.278 220.859 184.519 220.959 184.696 221.137C184.874 221.314 184.974 221.555 184.974 221.806C184.974 222.057 184.874 222.298 184.696 222.476C184.519 222.653 184.278 222.753 184.027 222.753Z" fill="black"/>
<path opacity="0.2" d="M184.027 228.936C183.776 228.936 183.535 228.836 183.357 228.659C183.18 228.481 183.08 228.24 183.08 227.989C183.08 227.738 183.18 227.497 183.357 227.32C183.535 227.142 183.776 227.042 184.027 227.042C184.278 227.042 184.519 227.142 184.696 227.32C184.874 227.497 184.974 227.738 184.974 227.989C184.974 228.24 184.874 228.481 184.696 228.659C184.519 228.836 184.278 228.936 184.027 228.936Z" fill="black"/>
</g>
<path d="M396.725 228.311H244.729V325.637H396.725V228.311Z" fill="#263238"/>
<path opacity="0.9" d="M396.725 228.311H244.729V325.637H396.725V228.311Z" fill="white"/>
<path opacity="0.1" d="M268.437 228.311H244.729V325.637H268.437V228.311Z" fill="black"/>
<path d="M396.725 228.311H244.729V236.16H396.725V228.311Z" fill="#D4AF37"/>
<path d="M255.466 244.767L252.948 245.714L255.466 246.661V247.608L251.868 246.235V245.288L255.466 243.924V244.767Z" fill="white"/>
<path d="M258.183 241.964H259.234L256.735 249.094H255.684L258.183 241.964Z" fill="white"/>
<path d="M262.974 245.193V246.14L259.376 247.513V246.566L261.895 245.619L259.376 244.672V243.725L262.974 245.193Z" fill="white"/>
<g opacity="0.2">
<path opacity="0.2" d="M262.445 255.589H252.143C251.892 255.589 251.651 255.49 251.474 255.312C251.296 255.135 251.196 254.894 251.196 254.643C251.196 254.392 251.296 254.151 251.474 253.973C251.651 253.796 251.892 253.696 252.143 253.696H262.445C262.696 253.696 262.937 253.796 263.114 253.973C263.292 254.151 263.392 254.392 263.392 254.643C263.392 254.894 263.292 255.135 263.114 255.312C262.937 255.49 262.696 255.589 262.445 255.589Z" fill="black"/>
<path opacity="0.2" d="M262.445 261.763H252.143C251.892 261.763 251.651 261.663 251.474 261.486C251.296 261.308 251.196 261.067 251.196 260.816C251.196 260.565 251.296 260.324 251.474 260.146C251.651 259.969 251.892 259.869 252.143 259.869H262.445C262.696 259.869 262.937 259.969 263.114 260.146C263.292 260.324 263.392 260.565 263.392 260.816C263.392 261.067 263.292 261.308 263.114 261.486C262.937 261.663 262.696 261.763 262.445 261.763Z" fill="black"/>
<path opacity="0.2" d="M262.445 267.946H252.143C251.892 267.946 251.651 267.846 251.474 267.668C251.296 267.491 251.196 267.25 251.196 266.999C251.196 266.748 251.296 266.507 251.474 266.329C251.651 266.152 251.892 266.052 252.143 266.052H262.445C262.696 266.052 262.937 266.152 263.114 266.329C263.292 266.507 263.392 266.748 263.392 266.999C263.392 267.25 263.292 267.491 263.114 267.668C262.937 267.846 262.696 267.946 262.445 267.946Z" fill="black"/>
<path opacity="0.2" d="M262.445 274.129H252.143C251.892 274.129 251.651 274.029 251.474 273.851C251.296 273.674 251.196 273.433 251.196 273.182C251.196 272.931 251.296 272.69 251.474 272.512C251.651 272.335 251.892 272.235 252.143 272.235H262.445C262.696 272.235 262.937 272.335 263.114 272.512C263.292 272.69 263.392 272.931 263.392 273.182C263.392 273.433 263.292 273.674 263.114 273.851C262.937 274.029 262.696 274.129 262.445 274.129Z" fill="black"/>
<path opacity="0.2" d="M262.445 280.312H252.143C251.892 280.312 251.651 280.212 251.474 280.034C251.296 279.857 251.196 279.616 251.196 279.365C251.196 279.114 251.296 278.873 251.474 278.695C251.651 278.518 251.892 278.418 252.143 278.418H262.445C262.696 278.418 262.937 278.518 263.114 278.695C263.292 278.873 263.392 279.114 263.392 279.365C263.392 279.616 263.292 279.857 263.114 280.034C262.937 280.212 262.696 280.312 262.445 280.312Z" fill="black"/>
<path opacity="0.2" d="M262.445 286.485H252.143C251.892 286.485 251.651 286.385 251.474 286.208C251.296 286.03 251.196 285.789 251.196 285.538C251.196 285.287 251.296 285.046 251.474 284.869C251.651 284.691 251.892 284.591 252.143 284.591H262.445C262.696 284.591 262.937 284.691 263.114 284.869C263.292 285.046 263.392 285.287 263.392 285.538C263.392 285.789 263.292 286.03 263.114 286.208C262.937 286.385 262.696 286.485 262.445 286.485Z" fill="black"/>
<path opacity="0.2" d="M262.445 292.668H252.143C251.892 292.668 251.651 292.568 251.474 292.391C251.296 292.213 251.196 291.972 251.196 291.721C251.196 291.47 251.296 291.229 251.474 291.051C251.651 290.874 251.892 290.774 252.143 290.774H262.445C262.696 290.774 262.937 290.874 263.114 291.051C263.292 291.229 263.392 291.47 263.392 291.721C263.392 291.972 263.292 292.213 263.114 292.391C262.937 292.568 262.696 292.668 262.445 292.668Z" fill="black"/>
<path opacity="0.2" d="M262.445 298.851H252.143C251.892 298.851 251.651 298.751 251.474 298.573C251.296 298.396 251.196 298.155 251.196 297.904C251.196 297.653 251.296 297.412 251.474 297.234C251.651 297.057 251.892 296.957 252.143 296.957H262.445C262.696 296.957 262.937 297.057 263.114 297.234C263.292 297.412 263.392 297.653 263.392 297.904C263.392 298.155 263.292 298.396 263.114 298.573C262.937 298.751 262.696 298.851 262.445 298.851Z" fill="black"/>
<path opacity="0.2" d="M262.445 305.034H252.143C251.892 305.034 251.651 304.934 251.474 304.756C251.296 304.579 251.196 304.338 251.196 304.087C251.196 303.836 251.296 303.595 251.474 303.417C251.651 303.24 251.892 303.14 252.143 303.14H262.445C262.696 303.14 262.937 303.24 263.114 303.417C263.292 303.595 263.392 303.836 263.392 304.087C263.392 304.338 263.292 304.579 263.114 304.756C262.937 304.934 262.696 305.034 262.445 305.034Z" fill="black"/>
</g>
<path d="M292.222 255.589H271.098C270.847 255.589 270.606 255.489 270.429 255.312C270.251 255.134 270.151 254.894 270.151 254.642C270.151 254.391 270.251 254.15 270.429 253.973C270.606 253.795 270.847 253.696 271.098 253.696H292.222C292.473 253.696 292.714 253.795 292.892 253.973C293.069 254.15 293.169 254.391 293.169 254.642C293.169 254.894 293.069 255.134 292.892 255.312C292.714 255.489 292.473 255.589 292.222 255.589Z" fill="#D4AF37"/>
<path d="M352.905 255.589H297.846C297.595 255.589 297.354 255.489 297.177 255.312C296.999 255.134 296.899 254.894 296.899 254.642C296.899 254.391 296.999 254.15 297.177 253.973C297.354 253.795 297.595 253.696 297.846 253.696H352.905C353.156 253.696 353.397 253.795 353.575 253.973C353.752 254.15 353.852 254.391 353.852 254.642C353.852 254.894 353.752 255.134 353.575 255.312C353.397 255.489 353.156 255.589 352.905 255.589V255.589Z" fill="#263238"/>
<g opacity="0.2">
<path opacity="0.2" d="M378.035 255.589H362.081C361.83 255.589 361.589 255.49 361.411 255.312C361.234 255.135 361.134 254.894 361.134 254.643C361.134 254.392 361.234 254.151 361.411 253.973C361.589 253.796 361.83 253.696 362.081 253.696H378.035C378.286 253.696 378.527 253.796 378.704 253.973C378.882 254.151 378.982 254.392 378.982 254.643C378.982 254.894 378.882 255.135 378.704 255.312C378.527 255.49 378.286 255.589 378.035 255.589V255.589Z" fill="#263238"/>
</g>
<g opacity="0.2">
<path opacity="0.2" d="M329.121 261.763H273.939C273.688 261.763 273.447 261.663 273.27 261.486C273.092 261.308 272.992 261.067 272.992 260.816C272.992 260.565 273.092 260.324 273.27 260.146C273.447 259.969 273.688 259.869 273.939 259.869H329.121C329.372 259.869 329.613 259.969 329.791 260.146C329.968 260.324 330.068 260.565 330.068 260.816C330.068 261.067 329.968 261.308 329.791 261.486C329.613 261.663 329.372 261.763 329.121 261.763Z" fill="#263238"/>
</g>
<path d="M385.61 261.763H334.215C333.964 261.763 333.723 261.663 333.546 261.486C333.368 261.308 333.269 261.067 333.269 260.816C333.269 260.565 333.368 260.324 333.546 260.146C333.723 259.969 333.964 259.869 334.215 259.869H385.648C385.899 259.869 386.14 259.969 386.317 260.146C386.495 260.324 386.595 260.565 386.595 260.816C386.595 261.067 386.495 261.308 386.317 261.486C386.14 261.663 385.899 261.763 385.648 261.763H385.61Z" fill="#D4AF37"/>
<path d="M306.643 267.946H273.939C273.688 267.946 273.447 267.846 273.27 267.668C273.092 267.491 272.992 267.25 272.992 266.999C272.992 266.748 273.092 266.507 273.27 266.329C273.447 266.152 273.688 266.052 273.939 266.052H306.643C306.894 266.052 307.135 266.152 307.313 266.329C307.49 266.507 307.59 266.748 307.59 266.999C307.59 267.25 307.49 267.491 307.313 267.668C307.135 267.846 306.894 267.946 306.643 267.946Z" fill="#263238"/>
<path d="M345.577 267.946H313.384C313.133 267.946 312.892 267.846 312.715 267.668C312.537 267.491 312.438 267.25 312.438 266.999C312.438 266.748 312.537 266.507 312.715 266.329C312.892 266.152 313.133 266.052 313.384 266.052H345.577C345.828 266.052 346.069 266.152 346.247 266.329C346.424 266.507 346.524 266.748 346.524 266.999C346.524 267.25 346.424 267.491 346.247 267.668C346.069 267.846 345.828 267.946 345.577 267.946Z" fill="#D4AF37"/>
<path d="M385.609 267.946H350.841C350.59 267.946 350.349 267.846 350.172 267.668C349.994 267.491 349.895 267.25 349.895 266.999C349.895 266.748 349.994 266.507 350.172 266.329C350.349 266.152 350.59 266.052 350.841 266.052H385.609C385.861 266.052 386.101 266.152 386.279 266.329C386.457 266.507 386.556 266.748 386.556 266.999C386.556 267.25 386.457 267.491 386.279 267.668C386.101 267.846 385.861 267.946 385.609 267.946Z" fill="#263238"/>
<path d="M309.673 274.129H290.045C289.793 274.129 289.553 274.029 289.375 273.851C289.197 273.674 289.098 273.433 289.098 273.182C289.098 272.931 289.197 272.69 289.375 272.512C289.553 272.335 289.793 272.235 290.045 272.235H309.673C309.924 272.235 310.165 272.335 310.342 272.512C310.52 272.69 310.619 272.931 310.619 273.182C310.619 273.433 310.52 273.674 310.342 273.851C310.165 274.029 309.924 274.129 309.673 274.129V274.129Z" fill="#263238"/>
<path d="M337.473 274.129H316.045C315.794 274.129 315.554 274.029 315.376 273.851C315.198 273.674 315.099 273.433 315.099 273.182C315.099 272.931 315.198 272.69 315.376 272.512C315.554 272.335 315.794 272.235 316.045 272.235H337.473C337.724 272.235 337.964 272.335 338.142 272.512C338.32 272.69 338.419 272.931 338.419 273.182C338.419 273.433 338.32 273.674 338.142 273.851C337.964 274.029 337.724 274.129 337.473 274.129Z" fill="#263238"/>
<g opacity="0.2">
<path opacity="0.2" d="M377.089 274.129H342.339C342.088 274.129 341.847 274.029 341.67 273.851C341.492 273.674 341.393 273.433 341.393 273.182C341.393 272.931 341.492 272.69 341.67 272.512C341.847 272.335 342.088 272.235 342.339 272.235H377.089C377.34 272.235 377.581 272.335 377.758 272.512C377.936 272.69 378.035 272.931 378.035 273.182C378.035 273.433 377.936 273.674 377.758 273.851C377.581 274.029 377.34 274.129 377.089 274.129Z" fill="#263238"/>
</g>
<g opacity="0.2">
<path opacity="0.2" d="M300.347 280.311H273.939C273.688 280.311 273.447 280.212 273.27 280.034C273.092 279.857 272.992 279.616 272.992 279.365C272.992 279.113 273.092 278.873 273.27 278.695C273.447 278.517 273.688 278.418 273.939 278.418H300.347C300.598 278.418 300.838 278.517 301.016 278.695C301.194 278.873 301.293 279.113 301.293 279.365C301.293 279.616 301.194 279.857 301.016 280.034C300.838 280.212 300.598 280.311 300.347 280.311Z" fill="#263238"/>
</g>
<path d="M303.651 286.485H273.939C273.688 286.485 273.447 286.385 273.27 286.207C273.092 286.03 272.992 285.789 272.992 285.538C272.992 285.287 273.092 285.046 273.27 284.868C273.447 284.691 273.688 284.591 273.939 284.591H303.651C303.902 284.591 304.143 284.691 304.321 284.868C304.498 285.046 304.598 285.287 304.598 285.538C304.598 285.789 304.498 286.03 304.321 286.207C304.143 286.385 303.902 286.485 303.651 286.485Z" fill="#D4AF37"/>
<path d="M353.284 286.485H308.517C308.266 286.485 308.025 286.385 307.848 286.207C307.67 286.03 307.57 285.789 307.57 285.538C307.57 285.287 307.67 285.046 307.848 284.868C308.025 284.691 308.266 284.591 308.517 284.591H353.284C353.535 284.591 353.776 284.691 353.953 284.868C354.131 285.046 354.231 285.287 354.231 285.538C354.231 285.789 354.131 286.03 353.953 286.207C353.776 286.385 353.535 286.485 353.284 286.485Z" fill="#263238"/>
<path d="M385.609 286.485H358.71C358.458 286.485 358.218 286.385 358.04 286.207C357.862 286.03 357.763 285.789 357.763 285.538C357.763 285.287 357.862 285.046 358.04 284.868C358.218 284.691 358.458 284.591 358.71 284.591H385.609C385.861 284.591 386.101 284.691 386.279 284.868C386.456 285.046 386.556 285.287 386.556 285.538C386.556 285.789 386.456 286.03 386.279 286.207C386.101 286.385 385.861 286.485 385.609 286.485V286.485Z" fill="#263238"/>
<g opacity="0.2">
<path opacity="0.2" d="M300.423 292.668H283.379C283.128 292.668 282.888 292.568 282.71 292.391C282.532 292.213 282.433 291.972 282.433 291.721C282.433 291.47 282.532 291.229 282.71 291.051C282.888 290.874 283.128 290.774 283.379 290.774H300.423C300.674 290.774 300.915 290.874 301.092 291.051C301.27 291.229 301.369 291.47 301.369 291.721C301.369 291.972 301.27 292.213 301.092 292.391C300.915 292.568 300.674 292.668 300.423 292.668Z" fill="#263238"/>
</g>
<g opacity="0.2">
<path opacity="0.2" d="M338.854 292.668H306.226C305.975 292.668 305.734 292.568 305.557 292.391C305.379 292.213 305.279 291.972 305.279 291.721C305.279 291.47 305.379 291.229 305.557 291.051C305.734 290.874 305.975 290.774 306.226 290.774H338.854C339.105 290.774 339.346 290.874 339.524 291.051C339.701 291.229 339.801 291.47 339.801 291.721C339.801 291.972 339.701 292.213 339.524 292.391C339.346 292.568 339.105 292.668 338.854 292.668Z" fill="#263238"/>
</g>
<path d="M377.088 292.668H345.227C344.976 292.668 344.735 292.568 344.558 292.391C344.38 292.213 344.28 291.972 344.28 291.721C344.28 291.47 344.38 291.229 344.558 291.051C344.735 290.874 344.976 290.774 345.227 290.774H377.088C377.34 290.774 377.58 290.874 377.758 291.051C377.936 291.229 378.035 291.47 378.035 291.721C378.035 291.972 377.936 292.213 377.758 292.391C377.58 292.568 377.34 292.668 377.088 292.668Z" fill="#263238"/>
<path d="M312.939 298.85H292.885C292.634 298.85 292.393 298.751 292.216 298.573C292.038 298.396 291.938 298.155 291.938 297.904C291.938 297.653 292.038 297.412 292.216 297.234C292.393 297.057 292.634 296.957 292.885 296.957H312.939C313.191 296.957 313.431 297.057 313.609 297.234C313.787 297.412 313.886 297.653 313.886 297.904C313.886 298.155 313.787 298.396 313.609 298.573C313.431 298.751 313.191 298.85 312.939 298.85V298.85Z" fill="#263238"/>
<g opacity="0.2">
<path opacity="0.2" d="M336.156 298.851H317.058C316.807 298.851 316.566 298.751 316.389 298.573C316.211 298.396 316.111 298.155 316.111 297.904C316.111 297.653 316.211 297.412 316.389 297.234C316.566 297.057 316.807 296.957 317.058 296.957H336.156C336.407 296.957 336.648 297.057 336.826 297.234C337.003 297.412 337.103 297.653 337.103 297.904C337.103 298.155 337.003 298.396 336.826 298.573C336.648 298.751 336.407 298.851 336.156 298.851Z" fill="#263238"/>
</g>
<path d="M377.089 298.85H342.15C341.899 298.85 341.658 298.751 341.48 298.573C341.303 298.396 341.203 298.155 341.203 297.904C341.203 297.653 341.303 297.412 341.48 297.234C341.658 297.057 341.899 296.957 342.15 296.957H377.089C377.34 296.957 377.58 297.057 377.758 297.234C377.936 297.412 378.035 297.653 378.035 297.904C378.035 298.155 377.936 298.396 377.758 298.573C377.58 298.751 377.34 298.85 377.089 298.85Z" fill="#D4AF37"/>
<g opacity="0.2">
<path opacity="0.2" d="M317.399 305.033H292.885C292.634 305.033 292.393 304.934 292.216 304.756C292.038 304.578 291.938 304.338 291.938 304.086C291.938 303.835 292.038 303.595 292.216 303.417C292.393 303.239 292.634 303.14 292.885 303.14H317.399C317.65 303.14 317.891 303.239 318.069 303.417C318.246 303.595 318.346 303.835 318.346 304.086C318.346 304.338 318.246 304.578 318.069 304.756C317.891 304.934 317.65 305.033 317.399 305.033Z" fill="#263238"/>
</g>
<path opacity="0.4" d="M390.079 232.297C390.079 232.62 390.175 232.935 390.354 233.203C390.534 233.471 390.789 233.68 391.087 233.803C391.385 233.926 391.713 233.957 392.029 233.894C392.345 233.83 392.635 233.674 392.863 233.445C393.09 233.217 393.244 232.925 393.306 232.609C393.368 232.292 393.334 231.965 393.21 231.667C393.085 231.37 392.875 231.116 392.606 230.938C392.337 230.761 392.021 230.667 391.698 230.668C391.485 230.668 391.273 230.711 391.076 230.793C390.879 230.875 390.7 230.995 390.55 231.146C390.4 231.297 390.28 231.477 390.2 231.675C390.119 231.872 390.078 232.084 390.079 232.297V232.297Z" fill="white"/>
<path opacity="0.4" d="M386.055 233.916C386.949 233.916 387.674 233.191 387.674 232.297C387.674 231.403 386.949 230.678 386.055 230.678C385.16 230.678 384.436 231.403 384.436 232.297C384.436 233.191 385.16 233.916 386.055 233.916Z" fill="white"/>
<path opacity="0.4" d="M380.364 233.916C381.258 233.916 381.983 233.191 381.983 232.297C381.983 231.403 381.258 230.678 380.364 230.678C379.47 230.678 378.745 231.403 378.745 232.297C378.745 233.191 379.47 233.916 380.364 233.916Z" fill="white"/>
</svg>
