<svg width="100" height="100" viewBox="0 0 100 100" fill="none" xmlns="http://www.w3.org/2000/svg">
<path d="M55.4165 33.792L60.9165 44.792C61.6665 46.292 63.6665 47.792 65.3331 48.042L75.2915 49.7086C81.6665 50.792 83.1664 55.3753 78.5831 59.9587L70.8332 67.7087C69.5415 69.0003 68.7914 71.542 69.2081 73.3753L71.4166 83.0003C73.1666 90.5837 69.1249 93.542 62.4166 89.5837L53.0831 84.042C51.3748 83.042 48.6249 83.042 46.9165 84.042L37.5831 89.5837C30.8748 93.542 26.8331 90.5837 28.5831 83.0003L30.7916 73.3753C31.2082 71.5837 30.4582 69.042 29.1665 67.7087L21.4166 59.9587C16.8332 55.3753 18.3331 50.7503 24.7081 49.7086L34.6665 48.042C36.3332 47.7503 38.3332 46.292 39.0832 44.792L44.5832 33.792C47.5416 27.8337 52.4581 27.8337 55.4165 33.792Z" stroke="#D4AF37" stroke-width="4" stroke-linecap="round" stroke-linejoin="round"/>
<path d="M25 37.4999V8.33325" stroke="#D4AF37" stroke-width="4" stroke-linecap="round" stroke-linejoin="round"/>
<path d="M75 37.4999V8.33325" stroke="#D4AF37" stroke-width="4" stroke-linecap="round" stroke-linejoin="round"/>
<path d="M50 16.6666V8.33325" stroke="#D4AF37" stroke-width="4" stroke-linecap="round" stroke-linejoin="round"/>
</svg>
