<svg width="254" height="41" viewBox="0 0 254 41" fill="none" xmlns="http://www.w3.org/2000/svg">
<path d="M14.5364 13.2055L13.7935 13.3138L2.35189 14.9819L2.35085 14.982C1.47213 15.1095 1.11604 16.1978 1.75611 16.8211L1.75652 16.8214L10.0343 24.8877L10.5724 25.4121L10.4451 26.1526L8.48746 37.5462L14.5364 13.2055ZM14.5364 13.2055L14.8685 12.5322M14.5364 13.2055L14.8685 12.5322M14.8685 12.5322L19.9821 2.16403C19.9821 2.16398 19.9821 2.16394 19.9821 2.1639C19.9822 2.16376 19.9823 2.16363 19.9823 2.16349C20.3752 1.36874 21.5174 1.36181 21.9164 2.16536C21.9166 2.16562 21.9167 2.16587 21.9168 2.16612L27.0294 12.5322L27.3615 13.2055L28.1043 13.3138L39.546 14.9819L39.547 14.982C40.4257 15.1095 40.7818 16.1978 40.1417 16.8211L40.1413 16.8214L31.8636 24.8877L31.3255 25.4121L31.4527 26.1526L33.4104 37.5462L14.8685 12.5322ZM10.0443 38.6826L10.0488 38.6802L20.2844 33.3L20.9489 32.9507L21.6135 33.3L31.8491 38.6802L31.8493 38.6803C32.6354 39.0937 33.5592 38.4206 33.4106 37.5472L10.0443 38.6826ZM10.0443 38.6826C9.26807 39.0941 8.33715 38.4293 8.48729 37.5472L10.0443 38.6826Z" stroke="#D4AF37" stroke-width="2.85667"/>
<path d="M118.329 13.2055L117.586 13.3138L106.144 14.9819L106.143 14.982C105.265 15.1095 104.909 16.1978 105.549 16.8211L105.549 16.8214L113.827 24.8877L114.365 25.4121L114.238 26.1526L112.28 37.5462L118.329 13.2055ZM118.329 13.2055L118.661 12.5322M118.329 13.2055L118.661 12.5322M118.661 12.5322L123.775 2.16403C123.775 2.16398 123.775 2.16394 123.775 2.1639C123.775 2.16376 123.775 2.16363 123.775 2.16349C124.168 1.36874 125.31 1.36181 125.709 2.16536C125.709 2.16562 125.709 2.16587 125.709 2.16612L130.822 12.5322L131.154 13.2055L131.897 13.3138L143.338 14.9819L143.339 14.982C144.218 15.1095 144.574 16.1978 143.934 16.8211L143.934 16.8214L135.656 24.8877L135.118 25.4121L135.245 26.1526L137.203 37.5462L118.661 12.5322ZM113.837 38.6826L113.841 38.6802L124.077 33.3L124.741 32.9507L125.406 33.3L135.642 38.6802L135.642 38.6803C136.428 39.0937 137.352 38.4206 137.203 37.5472L113.837 38.6826ZM113.837 38.6826C113.061 39.0941 112.13 38.4293 112.28 37.5472L113.837 38.6826Z" stroke="#D4AF37" stroke-width="2.85667"/>
<path d="M172.606 13.2055L171.863 13.3138L160.421 14.9819L160.42 14.982C159.541 15.1095 159.185 16.1978 159.825 16.8211L159.826 16.8214L168.104 24.8877L168.642 25.4121L168.514 26.1526L166.557 37.5462L172.606 13.2055ZM172.606 13.2055L172.938 12.5322M172.606 13.2055L172.938 12.5322M172.938 12.5322L178.051 2.16403C178.051 2.16398 178.051 2.16394 178.051 2.1639C178.052 2.16376 178.052 2.16363 178.052 2.16349C178.445 1.36874 179.587 1.36181 179.986 2.16536C179.986 2.16562 179.986 2.16587 179.986 2.16612L185.099 12.5322L185.431 13.2055L186.174 13.3138L197.615 14.9819L197.616 14.982C198.495 15.1095 198.851 16.1978 198.211 16.8211L198.211 16.8214L189.933 24.8877L189.395 25.4121L189.522 26.1526L191.48 37.5462L172.938 12.5322ZM168.114 38.6826L168.118 38.6802L178.354 33.3L179.018 32.9507L179.683 33.3L189.918 38.6802L189.919 38.6803C190.705 39.0937 191.629 38.4206 191.48 37.5472L168.114 38.6826ZM168.114 38.6826C167.337 39.0941 166.406 38.4293 166.557 37.5472L168.114 38.6826Z" stroke="#D4AF37" stroke-width="2.85667"/>
<path d="M225.93 13.2055L225.187 13.3138L213.745 14.9819L213.744 14.982C212.866 15.1095 212.51 16.1978 213.15 16.8211L213.15 16.8214L221.428 24.8877L221.966 25.4121L221.839 26.1526L219.881 37.5462L225.93 13.2055ZM225.93 13.2055L226.262 12.5322M225.93 13.2055L226.262 12.5322M226.262 12.5322L231.376 2.16403C231.376 2.16398 231.376 2.16394 231.376 2.1639C231.376 2.16376 231.376 2.16363 231.376 2.16349C231.769 1.36874 232.911 1.36181 233.31 2.16536C233.31 2.16562 233.31 2.16587 233.31 2.16612L238.423 12.5322L238.755 13.2055L239.498 13.3138L250.94 14.9819L250.941 14.982C251.819 15.1095 252.175 16.1978 251.535 16.8211L251.535 16.8214L243.257 24.8877L242.719 25.4121L242.846 26.1526L244.804 37.5462L226.262 12.5322ZM221.438 38.6826L221.442 38.6802L231.678 33.3L232.342 32.9507L233.007 33.3L243.243 38.6802L243.243 38.6803C244.029 39.0937 244.953 38.4206 244.804 37.5472L221.438 38.6826ZM221.438 38.6826C220.662 39.0941 219.731 38.4293 219.881 37.5472L221.438 38.6826Z" stroke="#D4AF37" stroke-width="2.85667"/>
<path d="M65.9563 13.2055L65.2134 13.3138L53.7718 14.9819L53.7708 14.982C52.892 15.1095 52.536 16.1978 53.176 16.8211L53.1764 16.8214L61.4542 24.8877L61.9923 25.4121L61.8651 26.1526L59.9074 37.5462L65.9563 13.2055ZM65.9563 13.2055L66.2884 12.5322M65.9563 13.2055L66.2884 12.5322M66.2884 12.5322L71.402 2.16403C71.402 2.16398 71.402 2.16394 71.402 2.1639C71.4021 2.16376 71.4022 2.16363 71.4023 2.16349C71.7952 1.36874 72.9373 1.36181 73.3364 2.16536C73.3365 2.16562 73.3366 2.16587 73.3367 2.16612L78.4493 12.5322L78.7814 13.2055L79.5243 13.3138L90.9659 14.9819L90.9669 14.982C91.8456 15.1095 92.2017 16.1978 91.5617 16.8211L91.5613 16.8214L83.2835 24.8877L82.7454 25.4121L82.8726 26.1526L84.8303 37.5462L66.2884 12.5322ZM61.4642 38.6826L61.4687 38.6802L71.7043 33.3L72.3688 32.9507L73.0334 33.3L83.269 38.6802L83.2692 38.6803C84.0554 39.0937 84.9791 38.4206 84.8305 37.5472L61.4642 38.6826ZM61.4642 38.6826C60.688 39.0941 59.7571 38.4293 59.9072 37.5472L61.4642 38.6826Z" stroke="#D4AF37" stroke-width="2.85667"/>
</svg>
