<svg width="36" height="36" viewBox="0 0 36 36" fill="none" xmlns="http://www.w3.org/2000/svg">
<path d="M36 18C36 27.9412 27.9412 36 18 36C8.05885 36 0 27.9412 0 18C0 8.05885 8.05885 0 18 0C27.9412 0 36 8.05885 36 18ZM15.918 27.5309L29.2728 14.176C29.7263 13.7225 29.7263 12.9872 29.2728 12.5337L27.6305 10.8915C27.177 10.4379 26.4417 10.4379 25.9882 10.8915L15.0968 21.7828L10.0118 16.6978C9.55836 16.2443 8.82305 16.2443 8.36949 16.6978L6.72721 18.3401C6.27373 18.7936 6.27373 19.5289 6.72721 19.9824L14.2756 27.5308C14.7292 27.9843 15.4644 27.9843 15.918 27.5309Z" fill="#D4AF37"/>
</svg>
